<?xml version="1.0" encoding="UTF-8"?><svg id="Layer_1" xmlns="http://www.w3.org/2000/svg" viewBox="0 0 200 200"><g id="a"><path d="m100,199c54.86,0,99-44.14,99-99S154.86,1,100,1,1,45.14,1,100s44.14,99,99,99Z" style="fill:#2775ca;"/><path d="m127.23,115.67c0-14.44-8.67-19.39-25.98-21.45-12.38-1.65-14.85-4.95-14.85-10.72s4.13-9.49,12.38-9.49c7.42,0,11.55,2.48,13.61,8.67.41,1.24,1.65,2.06,2.89,2.06h6.6c1.65,0,2.89-1.24,2.89-2.89v-.41c-1.65-9.08-9.08-16.08-18.56-16.91v-9.9c0-1.65-1.24-2.89-3.3-3.3h-6.19c-1.65,0-2.89,1.23-3.3,3.3v9.49c-12.38,1.65-20.21,9.9-20.21,20.21,0,13.61,8.25,18.98,25.57,21.03,11.55,2.06,15.26,4.54,15.26,11.13s-5.77,11.13-13.61,11.13c-10.72,0-14.44-4.54-15.67-10.72-.41-1.65-1.65-2.48-2.89-2.48h-7.01c-1.65,0-2.89,1.24-2.89,2.89v.41c1.65,10.31,8.25,17.74,21.86,19.8v9.9c0,1.65,1.24,2.89,3.3,3.3h6.19c1.65,0,2.89-1.24,3.3-3.3v-9.9c12.38-2.06,20.62-10.72,20.62-21.86h-.01Z" style="fill:#fff;"/><path d="m78.97,158.99c-32.18-11.55-48.68-47.44-36.71-79.2,6.19-17.32,19.8-30.52,36.71-36.71,1.65-.82,2.48-2.06,2.48-4.13v-5.77c0-1.65-.82-2.89-2.48-3.3-.41,0-1.24,0-1.65.41-39.19,12.38-60.64,54.04-48.27,93.23,7.42,23.1,25.16,40.83,48.26,48.26,1.65.82,3.3,0,3.72-1.65.41-.41.41-.82.41-1.65v-5.77c0-1.24-1.23-2.89-2.48-3.71h.01ZM122.69,30.29c-1.65-.82-3.3,0-3.72,1.65-.41.41-.41.82-.41,1.65v5.77c0,1.65,1.24,3.3,2.48,4.13,32.18,11.55,48.68,47.44,36.71,79.2-6.19,17.33-19.8,30.52-36.71,36.71-1.65.82-2.48,2.06-2.48,4.13v5.77c0,1.65.82,2.89,2.48,3.3.41,0,1.24,0,1.65-.41,39.19-12.38,60.63-54.04,48.26-93.23-7.42-23.51-25.57-41.25-48.26-48.68h0Z" style="fill:#fff;"/></g></svg>