<svg xmlns="http://www.w3.org/2000/svg" viewBox="0 0 200 200">
  <defs>
    <clipPath id="a">
      <circle cx="161.72" cy="134.81" r="27" fill="none" stroke="#000" stroke-miterlimit="10"/>
    </clipPath>
  </defs>
  <path fill="#f5ac37" d="M100 1c54.68 0 99 44.33 99 99s-44.32 99-99 99-99-44.32-99-99S45.33 1 100 1Z"/>
  <path fill="#fefefd" d="M103.65 106.99h37.62c.8 0 1.18 0 1.24-1.05.31-3.82.31-7.68 0-11.5 0-.75-.37-1.05-1.18-1.05H66.46c-.93 0-1.18.31-1.18 1.18v11.02c0 .95.49 1.42 1.48 1.42h36.88v-.02Zm34.66-26.48c.11-.28.11-.59 0-.86a24.32 24.32 0 0 0-2.24-3.9 31.77 31.77 0 0 0-4.58-5.76 14.95 14.95 0 0 0-2.84-2.78 44.57 44.57 0 0 0-18.57-9.41 45.93 45.93 0 0 0-10.52-1.12H66.33c-.93 0-1.05.37-1.05 1.18v21.96c0 .93 0 1.18 1.18 1.18h71.4s.62-.13.75-.5h-.3Zm0 39.35a15.17 15.17 0 0 0-3.16 0H66.53c-.93 0-1.24 0-1.24 1.24v21.47c0 .99 0 1.24 1.24 1.24h31.68c1.52.11 3.03 0 4.51-.31 4.6-.33 9.12-1.33 13.43-2.97a23.73 23.73 0 0 0 4.51-2.11h.43a40.18 40.18 0 0 0 17.26-17.38s.43-.94-.05-1.18.01 0 .01 0Zm-85.45 35.08v-34.21c0-.81 0-.93-.99-.93H38.44c-.75 0-1.05 0-1.05-.99v-11.75h14.36c.8 0 1.12 0 1.12-1.05V94.38c0-.75 0-.93-.99-.93H38.45c-.75 0-1.05 0-1.05-.99V81.57c0-.68 0-.86.99-.86h13.3c.93 0 1.18 0 1.18-1.18V46.18c0-.99 0-1.24 1.24-1.24h46.4c3.37.14 6.71.51 10.03 1.12a60.68 60.68 0 0 1 19.37 7.17 54.6 54.6 0 0 1 10.89 8.41 59.5 59.5 0 0 1 6.62 8.23 50.02 50.02 0 0 1 4.84 9.47c.16.86.98 1.45 1.85 1.3h11.08c.95 0 1.44.46 1.48 1.37v10.15c0 .99-.37 1.24-1.37 1.24h-8.54c-.86 0-1.12 0-1.05 1.12.34 3.77.34 7.55 0 11.32 0 1.05 0 1.18 1.18 1.18h9.77c.43.56 0 1.12 0 1.67.06.72.06 1.44 0 2.16v7.49c0 1.05-.31 1.37-1.24 1.37h-11.69a1.55 1.55 0 0 0-1.8 1.18 49.46 49.46 0 0 1-13 18.94 77.03 77.03 0 0 1-6.62 5.32c-2.48 1.43-4.89 2.91-7.42 4.09a66.63 66.63 0 0 1-14.61 4.64 76.36 76.36 0 0 1-14.48 1.18H52.85V155l.02-.02v-.04Z"/>
  <g clip-path="url(#a)">
    <circle cx="161.72" cy="134.81" r="27" fill="#002fa7"/>
    <path fill="#fff" d="m175.26 146.15-.69.12h-.05l-.15.03-.18.03c-9.08 1.49-16.76 1.68-23.47.6a29.3 29.3 0 0 1-6.73-1.77c-2.68-1.15-4.2-2.72-4.52-4.66-.81-4.73 6.21-8.53 8.51-9.77 6.13-3.32 13.68-5.71 23.08-7.3 9.4-1.59 17.32-1.83 24.2-.72 4.49.73 10.54 2.18 11.26 6.42.72 4.24-4.51 7.6-8.51 9.77-5.98 3.23-13.28 5.58-22.35 7.17l-.18.03-.15.03c-.03.03-.04.03-.05.03Zm-.78-.25h.03l.71-.13h.01l.15-.03.18-.03c9.02-1.58 16.29-3.91 22.24-7.13 9.08-4.91 8.5-8.27 8.32-9.37-.74-4.46-8.41-5.71-10.93-6.1-6.83-1.1-14.71-.87-24.07.72s-16.86 3.96-22.97 7.26c-9.07 4.91-8.5 8.26-8.32 9.37.76 4.46 8.42 5.69 10.94 6.1 6.67 1.08 14.31.88 23.35-.6l.18-.03.15-.03h.03Z"/>
    <path fill="#fff" d="m174.6 144.34-.58.09-1.3.21h-.05c-.21.04-.42.08-.65.1l-.65.09h-.04l-1.09.14h-.05l-.47.05-.4.05h-.03c-2.91.32-5.68.51-8.22.55-4.62.06-8.32-.36-10.99-1.26-2.55-.86-4.18-2.17-4.82-3.89a5.2 5.2 0 0 1 .75-4.86c1.23-1.77 3.57-3.46 6.94-5.01a67.14 67.14 0 0 1 11.87-3.94 90.9 90.9 0 0 1 13.19-2.24c3.33-.33 8.21-.64 12.53-.22 3.71.36 6.48 1.19 8.22 2.49a5.22 5.22 0 0 1 2.24 4.36c-.05 1.83-1.14 3.59-3.23 5.22-2.22 1.73-5.58 3.36-9.98 4.82a85.95 85.95 0 0 1-8.27 2.25l-.99.22-.74.15-.24.05-.41.08-.45.09-.24.05a113 113 0 0 1-1.3.24l-.55.1Zm-4.44.25h.06l1.06-.14h.04l.65-.09.65-.09h.05c.47-.09.9-.15 1.28-.21l1.14-.19c.38-.06.82-.15 1.29-.24l.24-.05.44-.09.4-.08.24-.05.74-.15.99-.22.29-.06a85.08 85.08 0 0 0 7.94-2.18c4.36-1.45 7.68-3.05 9.86-4.76 2-1.56 3.04-3.22 3.09-4.94a4.89 4.89 0 0 0-2.1-4.04c-1.69-1.24-4.39-2.06-8.03-2.41-4.3-.41-9.14-.12-12.45.22a91.07 91.07 0 0 0-13.14 2.23 66.8 66.8 0 0 0-11.81 3.91c-3.31 1.52-5.59 3.17-6.78 4.89a4.88 4.88 0 0 0-.69 4.52c.6 1.62 2.14 2.85 4.59 3.67 2.63.88 6.28 1.29 10.86 1.23 2.54-.04 5.3-.22 8.19-.55h.03c.13 0 .27-.03.4-.05l.46-.06Z"/>
    <path fill="#fff" d="M159.61 140.58h-.04l-.04-.01.04.36.33-.03c.3-.02.6-.03.9-.01a9.6 9.6 0 0 1-1.2-.31Zm3.56.95Zm.63-.34h.04-.04Zm.14-.02h-.01v.02h.03m36.97-11.09a5.24 5.24 0 0 0-2.18-3.39c-1.74-1.3-4.51-2.13-8.22-2.49a67.29 67.29 0 0 0-12.53.22 89.79 89.79 0 0 0-13.19 2.24 65.01 65.01 0 0 0-11.87 3.94c-3.37 1.56-5.71 3.25-6.94 5.02a5.24 5.24 0 0 0-.82 4.64l.08.22.06.14c.68 1.65 2.29 2.91 4.77 3.75 2.67.9 6.37 1.32 10.99 1.26h.08l.05-.06c.67-.7 1.38-1.43 2.1-2.05l.04-.04.4-.35h-.62c-3.42.03-6.18-.27-8.2-.93h-.02l.02-.01a17.56 17.56 0 0 1 4.59-1.26 17.33 17.33 0 0 1 .7.18l-.18-.04-.49-.14h-.05l-.69-.25c-1.32.22-2.77.66-4.49 1.38l-.42.18h-.03v.01l.45.17c2.01.76 4.85 1.14 8.41 1.13a31.2 31.2 0 0 0-1.73 1.72c-4.54.06-8.16-.36-10.77-1.23-2.36-.79-3.88-1.96-4.52-3.49l-.07-.17a3.95 3.95 0 0 1-.23-.85 4.9 4.9 0 0 1 .92-3.67c1.19-1.72 3.47-3.36 6.78-4.89a65.98 65.98 0 0 1 11.81-3.91c2.97-.72 5.36-1.17 6.52-1.36s3.59-.58 6.62-.87c3.3-.33 8.16-.63 12.45-.22 3.64.35 6.33 1.17 8.03 2.41a4.89 4.89 0 0 1 2.1 4.04c-.05 1.72-1.09 3.37-3.09 4.94-2.17 1.69-5.46 3.3-9.78 4.73-.72-.37-1.49-.76-2.26-1.09 3.35-1.18 5.9-2.46 7.59-3.82l.37-.31h-.08l-.41-.04a16.64 16.64 0 0 0-5.59.38h-.04l-.04.04c-.83.59-1.91 1.17-3.21 1.69l-.18.06-1.09.41-.23.08v-.04l.04-.27c.07-.51.1-1.03.08-1.55l-.01-.25c-.01-.09 0-.17-.02-.25s-.01-.17-.02-.25l-.03-.25-.05-.34-.07-.33-.03-.17a8.9 8.9 0 0 0-1.43-3.28l-.16-.23-.14-.19-.16-.2a9.25 9.25 0 0 0-2.1-1.9 9.47 9.47 0 0 0-7.02-1.42h-.04a9.56 9.56 0 0 0-5.66 3.48l-.04.05c-.29.38-.55.78-.79 1.2l-.13.25-.1.2-.08.17c-.13.28-.24.57-.34.86l-.08.24-.07.24-.05.18v.03l-.02.06-.04.16v.04l-.03.13-.02.12-.05.25-.08.56-.02.19-.02.25a8.67 8.67 0 0 0 .04 1.6l.01.1.05.31.01.06v.13l.02.13a9.55 9.55 0 0 0 1.08 2.94l.16.27.06.09h-.07l-.46.02h.97v-.02l-.18-.28-.06-.09a8.84 8.84 0 0 1-1.22-3.62l-.03-.27a9.1 9.1 0 0 1 7.32-9.68h.04l.19-.04.23-.04a9.15 9.15 0 0 1 6.31 1.42 9.02 9.02 0 0 1 3.83 5.56l.09.47a9.1 9.1 0 0 1-.05 3.29c0 .03 0 .06-.02.08l-.06.33.32-.1.13-.04.42-.15c.38-.13.74-.27 1.1-.41l.18-.06c1.3-.54 2.39-1.12 3.25-1.72a16 16 0 0 1 4.95-.4h-.02c-1.72 1.3-4.25 2.52-7.52 3.63l-.5.17.48.19.04.02c.93.37 1.84.8 2.73 1.28l.08.04h.05c4.4-1.46 7.76-3.09 9.98-4.82 2.09-1.63 3.18-3.39 3.23-5.22 0-.32-.01-.65-.06-.97Zm-36.98 11.07h-.01v.02h.03m-.11 0h-.04.04Zm-.02.38h.41c-.15 0-.3 0-.44-.02h-.17m-4.09-.99.04.36.33-.03c.3-.02.6-.03.9-.01-.4-.08-.8-.18-1.2-.31h-.04l-.04-.01Zm.07.01h-.04l-.04-.01.04.36.33-.03c.3-.02.6-.03.9-.01-.4-.08-.8-.18-1.2-.31Zm4.19.61h.04-.04Zm.14-.02h-.01v.02h.03m-.01-.02h-.01v.02h.03m-.16 0h.04-.04Zm-4.19-.61h-.04l-.04-.01.04.36.33-.03c.3-.02.6-.03.9-.01a9.6 9.6 0 0 1-1.2-.31Z"/>
    <path fill="#fff" d="M159.61 140.58h-.04l-.04-.01.04.36.33-.03c.3-.02.6-.03.9-.01a9.6 9.6 0 0 1-1.2-.31Zm3.56.95Zm.63-.34h.04-.04Zm.14-.02h-.01v.02h.03m36.97-11.09a5.24 5.24 0 0 0-2.18-3.39c-1.74-1.3-4.51-2.13-8.22-2.49a67.29 67.29 0 0 0-12.53.22 89.79 89.79 0 0 0-13.19 2.24 65.01 65.01 0 0 0-11.87 3.94c-3.37 1.56-5.71 3.25-6.94 5.02a5.24 5.24 0 0 0-.82 4.64l.08.22.06.14c.68 1.65 2.29 2.91 4.77 3.75 2.67.9 6.37 1.32 10.99 1.26h.08l.05-.06c.67-.7 1.38-1.43 2.1-2.05l.04-.04.4-.35h-.62c-3.42.03-6.18-.27-8.2-.93h-.02l.02-.01a17.56 17.56 0 0 1 4.59-1.26 17.33 17.33 0 0 1 .7.18l-.18-.04-.49-.14h-.05l-.69-.25c-1.32.22-2.77.66-4.49 1.38l-.42.18h-.03v.01l.45.17c2.01.76 4.85 1.14 8.41 1.13a31.2 31.2 0 0 0-1.73 1.72c-4.54.06-8.16-.36-10.77-1.23-2.36-.79-3.88-1.96-4.52-3.49l-.07-.17a3.95 3.95 0 0 1-.23-.85 4.9 4.9 0 0 1 .92-3.67c1.19-1.72 3.47-3.36 6.78-4.89a65.98 65.98 0 0 1 11.81-3.91c2.97-.72 5.36-1.17 6.52-1.36s3.59-.58 6.62-.87c3.3-.33 8.16-.63 12.45-.22 3.64.35 6.33 1.17 8.03 2.41a4.89 4.89 0 0 1 2.1 4.04c-.05 1.72-1.09 3.37-3.09 4.94-2.17 1.69-5.46 3.3-9.78 4.73-.72-.37-1.49-.76-2.26-1.09 3.35-1.18 5.9-2.46 7.59-3.82l.37-.31h-.08l-.41-.04a16.64 16.64 0 0 0-5.59.38h-.04l-.04.04c-.83.59-1.91 1.17-3.21 1.69l-.18.06-1.09.41-.23.08v-.04l.04-.27c.07-.51.1-1.03.08-1.55l-.01-.25c-.01-.09 0-.17-.02-.25s-.01-.17-.02-.25l-.03-.25-.05-.34-.07-.33-.03-.17a8.9 8.9 0 0 0-1.43-3.28l-.16-.23-.14-.19-.16-.2a9.25 9.25 0 0 0-2.1-1.9 9.47 9.47 0 0 0-7.02-1.42h-.04a9.56 9.56 0 0 0-5.66 3.48l-.04.05c-.29.38-.55.78-.79 1.2l-.13.25-.1.2-.08.17c-.13.28-.24.57-.34.86l-.08.24-.07.24-.05.18v.03l-.02.06-.04.16v.04l-.03.13-.02.12-.05.25-.08.56-.02.19-.02.25a8.67 8.67 0 0 0 .04 1.6l.01.1.05.31.01.06v.13l.02.13a9.55 9.55 0 0 0 1.08 2.94l.16.27.06.09h-.07l-.46.02h.97v-.02l-.18-.28-.06-.09a8.84 8.84 0 0 1-1.22-3.62l-.03-.27a9.1 9.1 0 0 1 7.32-9.68h.04l.19-.04.23-.04a9.15 9.15 0 0 1 6.31 1.42 9.02 9.02 0 0 1 3.83 5.56l.09.47a9.1 9.1 0 0 1-.05 3.29c0 .03 0 .06-.02.08l-.06.33.32-.1.13-.04.42-.15c.38-.13.74-.27 1.1-.41l.18-.06c1.3-.54 2.39-1.12 3.25-1.72a16 16 0 0 1 4.95-.4h-.02c-1.72 1.3-4.25 2.52-7.52 3.63l-.5.17.48.19.04.02c.93.37 1.84.8 2.73 1.28l.08.04h.05c4.4-1.46 7.76-3.09 9.98-4.82 2.09-1.63 3.18-3.39 3.23-5.22 0-.32-.01-.65-.06-.97Zm-36.98 11.07h-.01v.02h.03m-.11 0h-.04.04Zm-.02.38h.41c-.15 0-.3 0-.44-.02h-.17m-4.09-.99.04.36.33-.03c.3-.02.6-.03.9-.01-.4-.08-.8-.18-1.2-.31h-.04l-.04-.01Zm.07.01h-.04l-.04-.01.04.36.33-.03c.3-.02.6-.03.9-.01-.4-.08-.8-.18-1.2-.31Zm4.19.61h.04-.04Zm0 0h.04-.04Zm-4.19-.62h-.04l-.04-.01.04.36.33-.03c.3-.02.6-.03.9-.01a9.6 9.6 0 0 1-1.2-.31Z"/>
    <path fill="#fff" d="M163.83 141.16h-.07l-.01.01c-.24 0-.47-.02-.69-.03a20.37 20.37 0 0 1-2.11-.25c-.46-.08-.92-.2-1.37-.34h-.04l-.04-.01c-.25.03-.5.06-.75.11-1.3.22-2.72.66-4.41 1.36-1.74-.66-2.83-1.61-3.26-2.84l-.06-.2a1.5 1.5 0 0 1-.04-.18l-.05-.23c-.18-1.05.1-2.09.83-3.08l.05-.06c1-1.31 2.8-2.56 5.36-3.73a41.24 41.24 0 0 1 4.25-1.62c1.58-.52 3.32-1 5.16-1.44.82-.19 1.57-.37 2.25-.51l.1-.02a9.58 9.58 0 0 0-3.17 2.63l-.02.03-.35.49a9.57 9.57 0 0 0-1.1 2.22l-.08.24-.07.24-.03.11-.02.08v.03l-.02.06-.04.16v.04l-.03.13-.02.12v.04l-.04.2-.08.57-.02.19-.02.25c-.02.38-.03.76 0 1.14 0 .15.02.3.04.46v.08l.05.32v.03l.02.16.06.34v.03l.04.19.19.7.06.18.07.21.08.21.17.42.08.18.08.17.25.46.16.27.06.09h-.07l-.46.02h.99l-.16-.29-.06-.09a9.14 9.14 0 0 1-1.22-3.64l-.03-.29a9.13 9.13 0 0 1 1.85-6.29l.3-.36a9.04 9.04 0 0 1 5.17-3.01s-.06-.37-.06-.37l-.67.11a80 80 0 0 0-4.28.91c-3.76.9-6.94 1.94-9.48 3.09-2.58 1.18-4.42 2.45-5.46 3.8l-.05.06a4.37 4.37 0 0 0-.84 3.89l.05.16c.42 1.27 1.46 2.27 3.12 2.98l.03.01.42.17.08.03.06-.03.45-.19h.02a16.98 16.98 0 0 1 4.58-1.27h.02l.51.14-.49-.14h-.05l-.69-.25c.25-.04.49-.08.73-.1l.04.36.33-.03c.3-.02.6-.03.9-.01a14.31 14.31 0 0 0 2.29.27l.7.03h.06l.05-.02h.04v.02h.17l.62.01h.32l-.34-.01-.61-.01h-.14m-.08.4h.38c-.15 0-.3 0-.44-.02h-.14m.17-.4h.03m1.17.04h-.34l-.61-.01h-.15v.03h.17l.62.01h.33l-.02-.02Zm17.04-2.55.06-.33a9.2 9.2 0 0 0 .06-3.37l-.09-.47a9.06 9.06 0 0 0-10.14-6.98l-.06-.37c.87-.14 2.69-.42 5-.64 2.6-.25 6.42-.49 9.86-.18h.03c2.87.25 5.05.86 6.5 1.8l.06.04a4.26 4.26 0 0 1 2.06 3.4c.05 1.48-.74 2.91-2.37 4.24l-.06.05h-.08a16.47 16.47 0 0 0-5.45.37c-.86.6-1.95 1.18-3.26 1.72l-.18.06c-.36.14-.72.28-1.1.41l-.55.19-.3.08Zm-7.5-11.57a9.2 9.2 0 0 1 3.91 1.49 9.5 9.5 0 0 1 4 5.81l.1.5a9.82 9.82 0 0 1 0 3.19l.23-.08 1.09-.41.18-.06c1.29-.53 2.37-1.1 3.21-1.69l.04-.03h.04c1.41-.42 3.17-.54 5.51-.4 1.49-1.24 2.22-2.55 2.17-3.89a3.9 3.9 0 0 0-1.85-3.07l-.05-.04c-1.39-.91-3.53-1.5-6.36-1.77h-.03a54.9 54.9 0 0 0-9.82.18l-2.37.27Z"/>
    <path fill="#fff" d="M163.95 141.19h.04-.04Zm1.07.01h-.34l-.61-.01h.02l.62.02h.32Zm-1.17-.03h-.08v.01c-.24 0-.47-.02-.69-.03a14.63 14.63 0 0 1-2.21-.27c-.43-.08-.85-.19-1.27-.32h-.04l-.01-.01h-.03c-1.34-.45-2.25-1.13-2.7-2.03l-.12-.26a2.72 2.72 0 0 1-.18-.63c-.12-.62.09-1.24.6-1.89.36-.45.87-.91 1.53-1.37.77-.52 1.58-.98 2.42-1.38 1.4-.67 2.84-1.25 4.31-1.75h.03c-.16.22-.3.47-.44.71l-.13.25-.1.2-.08.17c-.13.28-.24.57-.34.86l-.08.24-.07.24-.05.18v.03l-.02.06-.04.16v.04l-.03.13-.03.16-.04.2-.08.57-.02.19-.02.25c-.02.38-.02.76 0 1.14 0 .15.02.3.04.46v.08l.05.32v.03l.02.16.06.34v.03l.04.19.19.7.06.18.07.21.08.21.17.42.08.18.08.17.25.46.16.27.06.09h-.07l-.46.02h.98v-.02l-.15-.27-.07-.11a9.27 9.27 0 0 1-1.22-3.62 9.13 9.13 0 0 1 1.82-6.58l.28-.37.08-.12h-.04l-.55.2-.09.03h-.01l-.03.01c-.9.3-1.75.61-2.54.92-.83.33-1.59.66-2.29 1-1.95.94-3.33 1.9-4.09 2.86-.58.73-.81 1.47-.68 2.19a3.25 3.25 0 0 0 .21.7l.05.12c.4.91 1.19 1.63 2.35 2.13h.02l.03.02c.25-.04.49-.08.73-.1l.04.36.33-.03c.3-.02.6-.03.9-.01a14.46 14.46 0 0 0 2.28.27l.7.03h.06l.05-.02h.04m1.1.03-.34-.01-.61-.01h.02l.62.02h.32Zm-1.08-.02h.04-.04Zm-.1.38h.39c-.15 0-.3 0-.44-.02h-.14m1.37-.36h-.34l-.61-.01h-.14.17l.62.01h.32-.01Zm17.09-2.44.06-.33a9.2 9.2 0 0 0 .06-3.37l-.09-.47a9.06 9.06 0 0 0-3.83-5.56l-.51-.35h.62c1.74-.04 3.49.04 5.22.22 2.15.25 3.77.69 4.82 1.33.82.49 1.29 1.1 1.41 1.82.04.25.05.5.04.74-.06 1.24-.86 2.41-2.36 3.47l-.04.03c-.85.6-1.95 1.17-3.24 1.71l-.18.06c-.36.14-.72.28-1.1.41l-.55.19-.33.1Zm-3.1-9.73a9.37 9.37 0 0 1 3.51 5.47l.1.5a10.58 10.58 0 0 1 0 3.19l.23-.08 1.09-.41.18-.06c1.29-.53 2.37-1.1 3.21-1.69l.04-.03c1.37-.99 2.1-2.05 2.15-3.15.01-.22 0-.44-.04-.65-.1-.6-.51-1.12-1.23-1.55-1-.6-2.56-1.03-4.67-1.28a38.87 38.87 0 0 0-4.57-.24Z"/>
    <path fill="#fff" d="M165.02 141.2h-.34l-.61-.01h.02l.62.02h.32Zm.69.35-.15-.27-.07-.11a9.27 9.27 0 0 1-1.22-3.62l-.04-.31-.04.02-.22.14-.14.09c-.33.23-.64.48-.92.76-.48.48-.71.95-.69 1.41v.07c0 .11.02.22.05.32l.03.1a2.1 2.1 0 0 0 .77.99h.02c.23.03.46.04.7.04h.01-.03l-.02-.02-.02-.01-.05-.04h-.01l-.11-.07a2.24 2.24 0 0 1-.7-.6 1.19 1.19 0 0 1-.25-.59l-.02-.15c-.04-.36.17-.76.58-1.18.23-.23.47-.44.73-.62s0 .02 0 .04v.15l.06.34v.03l.04.19.19.7.06.18.07.21.08.21.17.42.08.18.08.17.25.46.16.27.06.09h-.07l-.46.02h.99l.02-.02Zm-.68-.34-.34-.01-.61-.01h.02l.62.02h.32Zm0-.01h-.34l-.61-.01h-.12l.15.01.62.01h.32Zm17.07-2.5.06-.33a9.2 9.2 0 0 0 .06-3.37l-.09-.47-.06-.31.31.08c.41.1.82.23 1.2.41.69.32 1.1.73 1.22 1.21l.04.21c.09.63-.14 1.24-.7 1.83l-.03.03h-.04c-.36.15-.72.29-1.1.42l-.55.19-.32.12Zm.48-3.96.04.19a10.58 10.58 0 0 1 0 3.19l.23-.08c.36-.13.71-.25 1.05-.4.45-.5.64-1 .58-1.49l-.03-.17c-.09-.36-.44-.68-1.02-.95a6.6 6.6 0 0 0-.85-.3Zm7.51 7.55c-.58-.24-1.27-.6-2-.97l-.42-.22.18-.33.42.22c.73.37 1.41.73 1.97.96l-.15.35Z"/>
    <path fill="#fff" d="m184.29 137.89-.24-.29a9.59 9.59 0 0 1 3.33-1.76l.09.37-.09.03a9.27 9.27 0 0 0-3.08 1.65Z"/>
    <path fill="#fff" d="m183.05 138.34-.31-.23c.65-.85 1.22-1.51 1.76-2.1a11.76 11.76 0 0 1 5.09-3.47h.04c1.56-.51 3.4-.9 5.6-1.17 1.86-.23 3.76-.37 5.58-.5h.19c1.86-.14 3.6-.27 5.27-.49l.05.38c-1.68.22-3.44.35-5.3.47h-.19c-1.82.14-3.71.28-5.56.51-2.18.27-4 .64-5.54 1.14h-.04a11.52 11.52 0 0 0-4.92 3.39c-.51.56-1.06 1.23-1.72 2.06Z"/>
    <path fill="#fff" d="m182.7 136.38-.32-.21c.35-.54.65-1 .95-1.41a14.7 14.7 0 0 1 4.83-4.56h.03l.06-.05a27.9 27.9 0 0 1 4.95-2.03h.01c1.68-.53 3.36-.95 5.37-1.45l.12-.03c1.65-.41 3.22-.79 4.71-1.24l.12.36a96.4 96.4 0 0 1-4.72 1.26l-.12.03c-2.01.5-3.69.92-5.37 1.45h-.01a27.87 27.87 0 0 0-4.89 2l-.05.03h-.03a14.5 14.5 0 0 0-4.71 4.48l-.94 1.39Zm-1.14-4.27-.33-.19a14.96 14.96 0 0 1 2.23-3.04c.83-.86 1.9-1.69 3.23-2.54l.04-.03a54.38 54.38 0 0 1 3.71-2.09l.19-.1c1.04-.55 2.03-1.06 2.94-1.59l.19.33c-.92.54-1.91 1.05-2.95 1.6l-.19.1a54.64 54.64 0 0 0-3.72 2.09l-.04.03a16.74 16.74 0 0 0-3.14 2.46l-.19.19c-.75.86-1.4 1.78-1.97 2.77Zm-4.94-4.25-.36-.14c.14-.35.31-.69.51-1.13.35-.71.73-1.41 1.09-2.06l.13-.22c.32-.59.67-1.19.96-1.78l.35.17c-.29.59-.64 1.21-.96 1.8l-.13.22c-.36.65-.74 1.35-1.09 2.05-.2.42-.37.76-.5 1.1Zm-9.36 1.59c-.25-.29-.54-.58-.85-.89-.53-.53-1.08-1.01-1.69-1.56l-.17-.14c-.54-.49-1.05-.93-1.54-1.41l.27-.27c.47.46.99.92 1.52 1.4l.17.14a45.6 45.6 0 0 1 1.71 1.58c.31.31.59.6.86.9l-.28.26Zm20.22 6.75c-.86.6-1.95 1.18-3.26 1.72l-.18.06c-.36.14-.72.28-1.1.41l-.42.15a.5.5 0 0 1-.13.04l-.32.1.06-.33.02-.08-1.28.4a66.6 66.6 0 0 1-5.72 1.35l-1.27.23-1.28.21a54.38 54.38 0 0 1-7.11.72h-.04l.06.09.18.28h.03c.24 0 .48-.02.71-.03l.36-.02a53.77 53.77 0 0 0 5.9-.67l.59-.08.32-.05.12-.02.25-.04 1.28-.23c1.06-.19 2.09-.41 3.07-.64l1.25-.31h.02l1.43-.41c.5-.14.96-.29 1.4-.44l.11-.04.44-.15c.38-.13.74-.27 1.1-.41l.18-.06c1.31-.54 2.4-1.12 3.26-1.72 1.28-.36 2.88-.49 4.92-.4h.02a15.8 15.8 0 0 0-4.96.39Zm-23.63 4.97h-.08v.01c-.24 0-.47-.02-.69-.03a14.63 14.63 0 0 1-2.21-.27c-.43-.08-.85-.19-1.27-.32h-.04l-.04-.01-.73.1c-1.32.22-2.77.66-4.49 1.39l-.42.18h-.03l.03.02.42.16c2.12.79 5.12 1.18 8.92 1.13h.07c1.11-.01 2.3-.06 3.53-.15h.22c.08-.03.17-.03.25-.04h.1l1.5-.14.85-.09.55-.06.72-.09h.06a99.49 99.49 0 0 0 3.2-.47c.27-.05.6-.1.92-.18.76-.14 1.5-.29 2.24-.46.25-.05.51-.1.78-.17l.53-.13.74-.18c.46-.1.93-.23 1.42-.36l.29-.08.33-.09h.04c1.16-.34 2.29-.68 3.34-1.03l.05-.02h.01c3.6-1.22 6.31-2.56 8.07-4l.35-.29.03-.02-.49-.03a16.64 16.64 0 0 0-5.59.38h-.04l-.04.04c-.83.59-1.91 1.17-3.21 1.69l-.18.06-1.09.41-.17.06-.36.13-.1.03-1.28.4a66.6 66.6 0 0 1-5.72 1.35l-1.27.23-1.28.21a54.38 54.38 0 0 1-7.11.72h-.16l-.31.02h-.34l-.61-.01h-.15.17l.62.01h.32v-.01l.16.27.06.09h.47c.24 0 .48-.02.71-.03l.36-.02a53.77 53.77 0 0 0 5.9-.67l.59-.08.32-.05.12-.02.25-.04 1.28-.23c1.06-.19 2.09-.41 3.07-.64l1.25-.31h.02l1.43-.41c.5-.14.96-.29 1.4-.44l.11-.04.44-.15c.38-.13.74-.27 1.1-.41l.18-.06c1.31-.54 2.4-1.12 3.26-1.72 1.28-.36 2.88-.49 4.92-.4h.03c-1.72 1.3-4.24 2.5-7.53 3.62h-.01l-.51.17c-.91.3-1.87.59-2.86.86h-.04c-.12.04-.22.08-.33.1l-.36.09c-.46.13-.92.24-1.36.35l-.74.18-.53.13-.78.17-2.23.45-.96.17-.96.15c-.7.1-1.46.22-2.22.31h-.06c-.23.05-.47.08-.72.1l-.55.06c-.27.04-.55.06-.83.09l-1.49.13h-.09c-.09.03-.17.03-.25.04h-.22a52.7 52.7 0 0 1-3.2.16h-.48c-3.42.03-6.17-.27-8.19-.93h-.03a17.87 17.87 0 0 1 4.6-1.27h-.01l-.69-.25c.25-.04.49-.08.73-.1l.04.36.33-.03c.3-.02.6-.03.9-.01a14.46 14.46 0 0 0 2.28.27l.7.03h.06l.05-.02h.04m.05-6.13a14.48 14.48 0 0 0-2.8-1.92l-.31-.15a17.34 17.34 0 0 0-3.83-1.28c-1.31-.31-2.68-.51-4.08-.73l-.23-.04c-1.17-.18-2.27-.35-3.33-.55l.08-.37c1.06.21 2.17.37 3.32.55l.23.04c1.41.22 2.78.42 4.1.73 1.54.35 2.81.78 3.91 1.31l.31.15c1.03.54 2 1.21 2.87 1.97l-.24.29Zm.36 4.56c-.51-.4-.99-.76-1.45-1.08a15.64 15.64 0 0 0-5.86-2.72l-.13-.03a23.68 23.68 0 0 0-5.23-.31h-.01c-1.86.06-3.8.25-5.5.42h-.04c-1.77.18-3.44.35-4.99.41v-.38c1.53-.06 3.19-.23 4.95-.41h.04c1.71-.17 3.64-.36 5.51-.42h.01c2.09-.08 3.83.03 5.32.32l.13.03c1.96.4 3.87 1.28 6 2.78.46.33.95.68 1.46 1.09l-.22.29Z"/>
    <path fill="#fff" d="M164.82 141.21h-.12l-.62-.01h-.02c-.44-.29-.84-.53-1.22-.74l-.5-.27-.04-.02a12.6 12.6 0 0 0-5.51-1.64h-.41c-1.51 0-3.25.22-5.31.65l-.19.04-.16.03c-1.73.38-3.48.86-5.05 1.29l-.21.06-.19.05a78.4 78.4 0 0 1-5.14 1.32l-.08-.37c1.58-.33 3.29-.8 5.09-1.31h.03l.19-.06.18-.05c1.57-.44 3.34-.92 5.08-1.31l.17-.04.17-.04c2.04-.44 3.77-.66 5.27-.67h.38a12.57 12.57 0 0 1 5.89 1.71l.08.05c.65.35 1.36.78 2.2 1.33h.02Z"/>
    <path fill="#fff" d="M163.89 141.18h-.05l-.04.02h-.01c-.24 0-.47-.02-.7-.03l-.69-.05-.08-.02-.1-.02a9.03 9.03 0 0 0-1.27-.18s-.06 0-.09 0h-.05c-.3-.01-.6 0-.9.01l-.33.03-.04-.36v-.03l.35-.03a8.53 8.53 0 0 1 3.67.53l.11.04h.03l.04.03.11.04h.03l.03.02Zm-17.18 4.83-.14-.35c1.1-.46 2.26-1.03 3.47-1.63l.09-.04c1.36-.67 2.76-1.36 4.17-1.95l.14.35c-1.4.59-2.8 1.27-4.14 1.94l-.09.05c-1.23.6-2.38 1.17-3.5 1.63Zm27.89-1.67-.58.09-1.3.21h-.12c-.19.04-.38.06-.59.09l-.65.09h-.04l-1.09.14h-.04l-.47.05c-2.87.34-5.76.54-8.66.59h-.45l.31-.32c.68-.72 1.42-1.48 2.17-2.12l.05-.05h.06c1.27-.01 2.64-.08 4.07-.19h.1l1.49-.14.87-.09.51-.06c.24-.03.47-.05.69-.09h.08c.77-.1 1.51-.22 2.22-.32l.96-.15.96-.17a88 88 0 0 0 2.23-.45l.78-.17.58-.14a26.99 26.99 0 0 0 2.04-.52l.36-.09a61.9 61.9 0 0 0 3.73-1.13h.13c.95.38 1.91.87 2.81 1.33l.41.21-.44.14a87.66 87.66 0 0 1-8.44 2.3l-.77.17-.81.17-.24.05-.41.08-.44.09-.24.05a113 113 0 0 1-1.3.24c-.18.06-.36.1-.55.12Zm-4.44.25h.05l1.06-.14h.04l.64-.09.59-.08h.1c.47-.09.9-.15 1.28-.21.19-.04.38-.07.58-.09l.56-.1 1.3-.24.24-.05.44-.09.4-.08.24-.05.81-.17.76-.17a90.73 90.73 0 0 0 7.96-2.14c-.74-.38-1.52-.76-2.3-1.06-1.15.38-2.4.77-3.69 1.11l-.29.08-1.42.36-.69.17-.59.14-.78.17c-.74.17-1.5.32-2.24.46l-.96.17-.97.15c-.72.11-1.46.22-2.23.31h-.08l-.71.1-.51.06-.88.09-1.5.13h-.1a65.9 65.9 0 0 1-4.01.21c-.6.53-1.21 1.13-1.77 1.72 2.53-.05 5.27-.25 8.16-.59l.54-.08Z"/>
    <path fill="#fff" d="m159.3 147.51-.25-.28c.46-.41 1-.99 1.56-1.59l.32-.35.28.27-.32.33c-.58.62-1.11 1.19-1.59 1.62Zm23.06-8.96.17-.34 2.52 1.24-.17.34zm-17.16 3.01h-.01l-1.58 1.57-.02.02-.21.21-.28-.19.03-.03.03-.03s1.26-1.35 1.56-1.52l.46-.02h.02Z"/>
    <path fill="#fff" d="M165.35 141.56h-.18l-.46.02h-.48c-.15 0-.3 0-.44-.02h-.65a17.33 17.33 0 0 1-2.92-.41l-.18-.04-.49-.14h-.05l-.69-.25c.25-.04.49-.08.73-.1l.04.36.33-.03c.3-.02.6-.03.9-.01a14.46 14.46 0 0 0 2.28.27l.7.03h.06l.05-.02h.04v.02h.17l.62.01h.32v-.01l.16.27.06.09.11-.03Z"/>
    <path fill="#fff" d="m182.65 137.84-.04.27-.07.35-.02.08v.02l-.1.03c-.5.17-.99.32-1.4.44l-1.44.4h-.02a49.94 49.94 0 0 1-5.58 1.18l-.26.05-.12.02-.32.05-.59.08a60.84 60.84 0 0 1-5.91.67l-.34.02-.71.03h-.46l-.06-.09-.16-.27a22.77 22.77 0 0 1-.41-.81l-.17-.42-.08-.21-.08-.23a10.01 10.01 0 0 1-.24-.86l-.04-.19v-.03l-.04-.19-.03-.16-.03-.17-.05-.34v-.07a9.33 9.33 0 0 1 1.91-6.77 9.56 9.56 0 0 1 5.07-3.38l.6-.14.47-.08a9.46 9.46 0 0 1 8.73 3.43l.16.2.14.19.16.23a9.63 9.63 0 0 1 1.4 3.21l.07.23.07.31v.02l.05.34.03.25.02.25.02.25.01.23v.02c.02.52-.01 1.03-.08 1.54Z"/>
  </g>
  <circle cx="161.72" cy="134.81" r="27" fill="none" stroke="#000" stroke-miterlimit="10"/>
</svg>
