<?xml version="1.0" encoding="UTF-8"?><svg xmlns="http://www.w3.org/2000/svg" xmlns:xlink="http://www.w3.org/1999/xlink" viewBox="0 0 200 200"><defs><clipPath id="d"><circle cx="161.72" cy="134.81" r="27" style="fill:none; stroke:#000; stroke-miterlimit:10;"/></clipPath></defs><g id="a"><g id="b"><circle cx="100" cy="100" r="99" style="fill:#50af95;"/><path d="m112.53,113.37h0c-.7.05-4.31.27-12.39.27-6.42,0-10.97-.19-12.57-.27h0c-24.8-1.09-43.31-5.41-43.31-10.58s18.51-9.48,43.31-10.59v16.87c1.62.11,6.26.39,12.68.39,7.7,0,11.56-.32,12.25-.39v-16.86c24.74,1.1,43.22,5.42,43.22,10.58s-18.46,9.47-43.22,10.57h.03Zm0-22.89v-15.09h34.54v-23.01H53.04v23.01h34.53v15.08c-28.06,1.29-49.17,6.85-49.17,13.51s21.11,12.21,49.17,13.51v48.36h24.95v-48.38c28-1.29,49.07-6.84,49.07-13.5s-21.05-12.21-49.07-13.51h0v.02Z" style="fill:#fff; fill-rule:evenodd;"/></g></g><g id="c"><g style="clip-path:url(#d);"><circle cx="161.72" cy="134.81" r="27" style="fill:#002fa7;"/><path d="m175.26,146.15l-.69.12h-.05c-.05.01-.1.01-.15.03l-.18.03c-9.08,1.49-16.76,1.68-23.47.6-1.81-.29-4.46-.79-6.73-1.77-2.68-1.15-4.2-2.72-4.52-4.66-.81-4.73,6.21-8.53,8.51-9.77,6.13-3.32,13.68-5.71,23.08-7.3,9.4-1.59,17.32-1.83,24.2-.72h0c4.49.73,10.54,2.18,11.26,6.42.72,4.24-4.51,7.6-8.51,9.77-5.98,3.23-13.28,5.58-22.35,7.17l-.18.03c-.05.01-.1.01-.15.03-.03.03-.04.03-.05.03Zm-.78-.25h.03l.71-.13h.01c.05-.01.1-.01.15-.03l.18-.03c9.02-1.58,16.29-3.91,22.24-7.13,9.08-4.91,8.5-8.27,8.32-9.37-.74-4.46-8.41-5.71-10.93-6.1h0c-6.83-1.1-14.71-.87-24.07.72s-16.86,3.96-22.97,7.26c-9.07,4.91-8.5,8.26-8.32,9.37.76,4.46,8.42,5.69,10.94,6.1,6.67,1.08,14.31.88,23.35-.6l.18-.03c.05-.01.1-.01.15-.03h.03Z" style="fill:#fff;"/><path d="m174.6,144.34c-.18.03-.37.06-.58.09-.38.06-.82.13-1.3.21h-.05c-.21.04-.42.08-.65.1-.21.03-.42.06-.65.09h-.04c-.35.05-.72.09-1.09.14h-.05l-.47.05c-.13.01-.27.03-.4.05h-.03c-2.91.32-5.68.51-8.22.55-4.62.06-8.32-.36-10.99-1.26-2.55-.86-4.18-2.17-4.82-3.89-.11-.29-.19-.6-.24-.91-.23-1.35.1-2.68.99-3.95,1.23-1.77,3.57-3.46,6.94-5.01,3.16-1.46,7.16-2.78,11.87-3.94,2.99-.73,5.39-1.17,6.55-1.36,1.18-.21,3.62-.58,6.64-.88,3.33-.33,8.21-.64,12.53-.22,3.71.36,6.48,1.19,8.22,2.49,1.22.91,1.96,2.04,2.18,3.38.05.32.07.65.06.98h0c-.05,1.83-1.14,3.59-3.23,5.22-2.22,1.73-5.58,3.36-9.98,4.82-2.44.81-5.12,1.54-7.98,2.19-.1.03-.2.05-.29.06l-.99.22c-.25.05-.5.1-.74.15l-.24.05c-.14.03-.27.05-.41.08s-.29.06-.45.09l-.24.05c-.47.09-.91.17-1.3.24-.18.03-.38.07-.55.1Zm-4.44.25h.06c.36-.04.72-.09,1.06-.14h.04c.22-.03.44-.06.65-.09s.45-.06.65-.09h.05c.47-.09.9-.15,1.28-.21.41-.06.73-.12,1.14-.19.38-.06.82-.15,1.29-.24l.24-.05c.14-.03.29-.05.44-.09.13-.03.27-.05.4-.08l.24-.05c.24-.05.49-.1.74-.15l.99-.22c.1-.03.19-.04.29-.06,2.85-.64,5.51-1.38,7.94-2.18,4.36-1.45,7.68-3.05,9.86-4.76,2-1.56,3.04-3.22,3.09-4.94h0c.01-.3-.01-.6-.06-.9-.21-1.24-.9-2.29-2.04-3.14-1.69-1.24-4.39-2.06-8.03-2.41-4.3-.41-9.14-.12-12.45.22-3.03.29-5.45.68-6.62.87s-3.57.64-6.52,1.36c-4.63,1.13-8.72,2.48-11.81,3.91-3.31,1.52-5.59,3.17-6.78,4.89-.82,1.18-1.13,2.42-.92,3.67.05.29.13.57.23.85.6,1.62,2.14,2.85,4.59,3.67,2.63.88,6.28,1.29,10.86,1.23,2.54-.04,5.3-.22,8.19-.55h.03c.13,0,.27-.03.4-.05l.46-.06h0Z" style="fill:#fff;"/><path d="m159.61,140.58h-.04s-.04-.01-.04-.01l.04.36c.12-.01.22-.01.33-.03.3-.02.6-.03.9-.01-.41-.08-.81-.18-1.2-.31Zm3.56.95h0Zm.63-.34h.04s-.04,0-.04,0Zm.14-.02h-.01v.02h.03m36.97-11.09c-.22-1.35-.96-2.47-2.18-3.39-1.74-1.3-4.51-2.13-8.22-2.49-4.32-.42-9.19-.12-12.53.22-3.03.31-5.46.68-6.64.88-1.17.19-3.56.63-6.55,1.36-4.72,1.15-8.72,2.47-11.87,3.94-3.37,1.56-5.71,3.25-6.94,5.02-.88,1.27-1.22,2.6-.99,3.95.04.23.1.46.17.69.02.08.05.15.08.22l.06.14c.68,1.65,2.29,2.91,4.77,3.75,2.67.9,6.37,1.32,10.99,1.26h.08l.05-.06c.67-.7,1.38-1.43,2.1-2.05.01-.01.03-.02.04-.04l.4-.35h-.62c-3.42.03-6.18-.27-8.2-.93h-.02s.02-.01.02-.01c1.77-.71,3.24-1.11,4.59-1.26h0c.99.31,2.2.51,3.62.59h0c-.83-.04-1.66-.15-2.48-.31-.15-.03-.29-.06-.44-.1-.06-.01-.12-.03-.18-.04-.17-.05-.33-.09-.49-.14h-.04s-.01,0-.01,0c-.24-.08-.47-.16-.69-.25-1.32.22-2.77.66-4.49,1.38l-.42.18h-.03s0,.01,0,.01l.45.17c2.01.76,4.85,1.14,8.41,1.13-.6.54-1.18,1.14-1.73,1.72-4.54.06-8.16-.36-10.77-1.23-2.36-.79-3.88-1.96-4.52-3.49-.02-.06-.05-.12-.07-.17s-.05-.13-.07-.19c-.07-.21-.13-.43-.16-.66-.21-1.24.1-2.49.92-3.67,1.19-1.72,3.47-3.36,6.78-4.89,3.09-1.44,7.18-2.78,11.81-3.91,2.97-.72,5.36-1.17,6.52-1.36s3.59-.58,6.62-.87c3.3-.33,8.16-.63,12.45-.22,3.64.35,6.33,1.17,8.03,2.41,1.14.85,1.83,1.9,2.04,3.14.05.3.08.6.06.9-.05,1.72-1.09,3.37-3.09,4.94-2.17,1.69-5.46,3.3-9.78,4.73-.72-.37-1.49-.76-2.26-1.09,3.35-1.18,5.9-2.46,7.59-3.82l.37-.31h-.08s-.41-.04-.41-.04c-2.38-.15-4.17-.03-5.59.38h-.04s-.04.04-.04.04c-.83.59-1.91,1.17-3.21,1.69l-.18.06c-.35.14-.72.28-1.09.41l-.23.08s0-.03,0-.04c.02-.09.03-.18.04-.27.07-.51.1-1.03.08-1.55,0-.08,0-.16-.01-.25s0-.17-.02-.25-.01-.17-.02-.25-.02-.17-.03-.25c-.02-.11-.03-.22-.05-.34s-.05-.22-.07-.33c-.01-.06-.02-.11-.03-.17-.19-.88-.51-1.72-.95-2.5-.15-.27-.31-.53-.48-.78-.05-.08-.11-.16-.16-.23s-.09-.13-.14-.19-.11-.14-.16-.2c-.6-.74-1.31-1.38-2.1-1.9-.62-.42-1.29-.76-2-1.02-1.46-.53-3.03-.69-4.57-.47-.15.02-.3.04-.45.07-.01,0-.03,0-.04,0-1.53.3-2.96.98-4.17,1.96-.56.44-1.06.95-1.49,1.52l-.04.05c-.29.38-.55.78-.79,1.2-.05.08-.09.17-.13.25-.04.07-.07.13-.1.2s-.06.12-.08.17c-.13.28-.24.57-.34.86h0c-.03.08-.05.16-.08.24s-.05.16-.07.24c-.02.06-.03.12-.05.18,0,.01,0,.02,0,.03,0,.02-.01.04-.02.06-.01.05-.03.11-.04.16,0,0,0,.01,0,.02,0,0,0,.01,0,.02-.01.04-.02.08-.03.13s-.02.08-.02.12c-.02.08-.03.17-.05.25-.03.19-.06.37-.08.56,0,.06-.01.13-.02.19,0,.08-.01.17-.02.25-.02.38-.03.76,0,1.14,0,.15.02.31.04.46,0,.03,0,.07.01.1.02.11.03.21.05.31,0,.02,0,.04.01.06h0s0,.06,0,.06c0,0,0,0,0,.01,0,.02,0,.04,0,.06,0,.04.01.08.02.13.08.44.2.88.34,1.3.19.57.44,1.12.74,1.64h0c.05.08.1.18.16.27l.06.09h-.07l-.46.02h.02c.11,0,.22,0,.32,0h.63v-.02l-.18-.28s-.04-.06-.06-.09c-.58-.96-.98-2.03-1.16-3.13-.03-.17-.05-.32-.06-.49-.01-.09-.02-.18-.03-.27-.07-.78-.03-1.56.1-2.33.25-1.45.85-2.81,1.75-3.98.12-.16.25-.31.39-.46.33-.38.69-.72,1.08-1.04,1.16-.94,2.53-1.58,4-1.87h.04s.19-.04.19-.04l.23-.04c1.48-.21,2.99-.05,4.4.46.67.24,1.31.57,1.91.96,1.95,1.29,3.32,3.28,3.83,5.56.03.15.06.31.09.47.07.42.12.85.13,1.28.01.67-.05,1.35-.18,2.01,0,.03,0,.06-.02.08l-.06.33.32-.1.13-.04c.14-.05.28-.1.42-.15.38-.13.74-.27,1.1-.41l.18-.06c1.3-.54,2.39-1.12,3.25-1.72,1.28-.36,2.9-.49,4.95-.4h-.02c-1.72,1.3-4.25,2.52-7.52,3.63l-.5.17h0l.48.19s.03.01.04.02c.93.37,1.84.8,2.73,1.28l.08.04h.05c4.4-1.46,7.76-3.09,9.98-4.82,2.09-1.63,3.18-3.39,3.23-5.22,0-.32-.01-.65-.06-.97Zm-36.98,11.07h-.01v.02h.03m-.11,0h-.04s.04,0,.04,0Zm-.02.38h.02c.07,0,.14,0,.22,0h.17c-.15,0-.3,0-.44-.02-.04,0-.08,0-.11,0h-.06m-4.09-.99l.04.36c.12-.01.22-.01.33-.03.3-.02.6-.03.9-.01-.4-.08-.8-.18-1.2-.31h-.04s-.04-.01-.04-.01Zm.07.01h-.04s-.04-.01-.04-.01l.04.36c.12-.01.22-.01.33-.03.3-.02.6-.03.9-.01-.4-.08-.8-.18-1.2-.31h0Zm4.19.61h.04s-.04,0-.04,0Zm.14-.02h-.01v.02h.03m-.01-.02h-.01v.02h.03m-.16,0h.04s-.04,0-.04,0Zm-4.19-.61h-.04s-.04-.01-.04-.01l.04.36c.12-.01.22-.01.33-.03.3-.02.6-.03.9-.01-.41-.08-.81-.18-1.2-.31Z" style="fill:#fff;"/><path d="m159.61,140.58h-.04s-.04-.01-.04-.01l.04.36c.12-.01.22-.01.33-.03.3-.02.6-.03.9-.01-.41-.08-.81-.18-1.2-.31Zm3.56.95h0Zm.63-.34h.04s-.04,0-.04,0Zm.14-.02h-.01v.02h.03m36.97-11.09c-.22-1.35-.96-2.47-2.18-3.39-1.74-1.3-4.51-2.13-8.22-2.49-4.32-.42-9.19-.12-12.53.22-3.03.31-5.46.68-6.64.88-1.17.19-3.56.63-6.55,1.36-4.72,1.15-8.72,2.47-11.87,3.94-3.37,1.56-5.71,3.25-6.94,5.02-.88,1.27-1.22,2.6-.99,3.95.04.23.1.46.17.69.02.08.05.15.08.22l.06.14c.68,1.65,2.29,2.91,4.77,3.75,2.67.9,6.37,1.32,10.99,1.26h.08l.05-.06c.67-.7,1.38-1.43,2.1-2.05.01-.01.03-.02.04-.04l.4-.35h-.62c-3.42.03-6.18-.27-8.2-.93h-.02s.02-.01.02-.01c1.77-.71,3.24-1.11,4.59-1.26h0c.99.31,2.2.51,3.62.59h0c-.83-.04-1.66-.15-2.48-.31-.15-.03-.29-.06-.44-.1-.06-.01-.12-.03-.18-.04-.17-.05-.33-.09-.49-.14h-.04s-.01,0-.01,0c-.24-.08-.47-.16-.69-.25-1.32.22-2.77.66-4.49,1.38l-.42.18h-.03s0,.01,0,.01l.45.17c2.01.76,4.85,1.14,8.41,1.13-.6.54-1.18,1.14-1.73,1.72-4.54.06-8.16-.36-10.77-1.23-2.36-.79-3.88-1.96-4.52-3.49-.02-.06-.05-.12-.07-.17s-.05-.13-.07-.19c-.07-.21-.13-.43-.16-.66-.21-1.24.1-2.49.92-3.67,1.19-1.72,3.47-3.36,6.78-4.89,3.09-1.44,7.18-2.78,11.81-3.91,2.97-.72,5.36-1.17,6.52-1.36s3.59-.58,6.62-.87c3.3-.33,8.16-.63,12.45-.22,3.64.35,6.33,1.17,8.03,2.41,1.14.85,1.83,1.9,2.04,3.14.05.3.08.6.06.9-.05,1.72-1.09,3.37-3.09,4.94-2.17,1.69-5.46,3.3-9.78,4.73-.72-.37-1.49-.76-2.26-1.09,3.35-1.18,5.9-2.46,7.59-3.82l.37-.31h-.08s-.41-.04-.41-.04c-2.38-.15-4.17-.03-5.59.38h-.04s-.04.04-.04.04c-.83.59-1.91,1.17-3.21,1.69l-.18.06c-.35.14-.72.28-1.09.41l-.23.08s0-.03,0-.04c.02-.09.03-.18.04-.27.07-.51.1-1.03.08-1.55,0-.08,0-.16-.01-.25s0-.17-.02-.25-.01-.17-.02-.25-.02-.17-.03-.25c-.02-.11-.03-.22-.05-.34s-.05-.22-.07-.33c-.01-.06-.02-.11-.03-.17-.19-.88-.51-1.72-.95-2.5-.15-.27-.31-.53-.48-.78-.05-.08-.11-.16-.16-.23s-.09-.13-.14-.19-.11-.14-.16-.2c-.6-.74-1.31-1.38-2.1-1.9-.62-.42-1.29-.76-2-1.02-1.46-.53-3.03-.69-4.57-.47-.15.02-.3.04-.45.07-.01,0-.03,0-.04,0-1.53.3-2.96.98-4.17,1.96-.56.44-1.06.95-1.49,1.52l-.04.05c-.29.38-.55.78-.79,1.2-.05.08-.09.17-.13.25-.04.07-.07.13-.1.2s-.06.12-.08.17c-.13.28-.24.57-.34.86h0c-.03.08-.05.16-.08.24s-.05.16-.07.24c-.02.06-.03.12-.05.18,0,.01,0,.02,0,.03,0,.02-.01.04-.02.06-.01.05-.03.11-.04.16,0,0,0,.01,0,.02,0,0,0,.01,0,.02-.01.04-.02.08-.03.13s-.02.08-.02.12c-.02.08-.03.17-.05.25-.03.19-.06.37-.08.56,0,.06-.01.13-.02.19,0,.08-.01.17-.02.25-.02.38-.03.76,0,1.14,0,.15.02.31.04.46,0,.03,0,.07.01.1.02.11.03.21.05.31,0,.02,0,.04.01.06h0s0,.06,0,.06c0,0,0,0,0,.01,0,.02,0,.04,0,.06,0,.04.01.08.02.13.08.44.2.88.34,1.3.19.57.44,1.12.74,1.64h0c.05.08.1.18.16.27l.06.09h-.07l-.46.02h.02c.11,0,.22,0,.32,0h.63v-.02l-.18-.28s-.04-.06-.06-.09c-.58-.96-.98-2.03-1.16-3.13-.03-.17-.05-.32-.06-.49-.01-.09-.02-.18-.03-.27-.07-.78-.03-1.56.1-2.33.25-1.45.85-2.81,1.75-3.98.12-.16.25-.31.39-.46.33-.38.69-.72,1.08-1.04,1.16-.94,2.53-1.58,4-1.87h.04s.19-.04.19-.04l.23-.04c1.48-.21,2.99-.05,4.4.46.67.24,1.31.57,1.91.96,1.95,1.29,3.32,3.28,3.83,5.56.03.15.06.31.09.47.07.42.12.85.13,1.28.01.67-.05,1.35-.18,2.01,0,.03,0,.06-.02.08l-.06.33.32-.1.13-.04c.14-.05.28-.1.42-.15.38-.13.74-.27,1.1-.41l.18-.06c1.3-.54,2.39-1.12,3.25-1.72,1.28-.36,2.9-.49,4.95-.4h-.02c-1.72,1.3-4.25,2.52-7.52,3.63l-.5.17h0l.48.19s.03.01.04.02c.93.37,1.84.8,2.73,1.28l.08.04h.05c4.4-1.46,7.76-3.09,9.98-4.82,2.09-1.63,3.18-3.39,3.23-5.22,0-.32-.01-.65-.06-.97Zm-36.98,11.07h-.01v.02h.03m-.11,0h-.04s.04,0,.04,0Zm-.02.38h.02c.07,0,.14,0,.22,0h.17c-.15,0-.3,0-.44-.02-.04,0-.08,0-.11,0h-.06m-4.09-.99l.04.36c.12-.01.22-.01.33-.03.3-.02.6-.03.9-.01-.4-.08-.8-.18-1.2-.31h-.04s-.04-.01-.04-.01Zm.07.01h-.04s-.04-.01-.04-.01l.04.36c.12-.01.22-.01.33-.03.3-.02.6-.03.9-.01-.4-.08-.8-.18-1.2-.31h0Zm4.19.61h.04s-.04,0-.04,0Zm0,0h.04s-.04,0-.04,0Zm-4.19-.62h-.04s-.04-.01-.04-.01l.04.36c.12-.01.22-.01.33-.03.3-.02.6-.03.9-.01-.41-.08-.81-.18-1.2-.31Z" style="fill:#fff;"/><path d="m163.83,141.16h-.07s-.01.01-.01.01c-.24,0-.47-.02-.69-.03-.29-.02-.57-.04-.84-.07-.45-.04-.87-.1-1.27-.18h0c-.46-.08-.92-.2-1.37-.34h-.04s-.04-.01-.04-.01c-.25.03-.5.06-.75.11-1.3.22-2.72.66-4.41,1.36-1.74-.66-2.83-1.61-3.26-2.84-.02-.07-.04-.13-.06-.2s-.03-.12-.04-.18c-.02-.08-.03-.16-.05-.23-.18-1.05.1-2.09.83-3.08l.05-.06c1-1.31,2.8-2.56,5.36-3.73,1.39-.62,2.81-1.16,4.25-1.62,1.58-.52,3.32-1,5.16-1.44.82-.19,1.57-.37,2.25-.51.03,0,.07-.01.1-.02-.59.3-1.15.67-1.67,1.09-.56.45-1.07.96-1.5,1.54,0,0-.02.02-.02.03-.12.16-.24.32-.35.49-.46.69-.83,1.43-1.1,2.22h0c-.03.08-.05.16-.08.24s-.05.16-.07.24c-.01.03-.02.07-.03.11,0,.03-.01.05-.02.08,0,.01,0,.02,0,.03,0,.02-.01.04-.02.06-.01.05-.03.11-.04.16,0,0,0,.01,0,.02,0,0,0,.01,0,.02-.01.04-.02.08-.03.13s-.02.08-.02.12c0,.01,0,.03,0,.04-.01.07-.03.13-.04.2-.03.19-.06.38-.08.57,0,.06-.01.13-.02.19,0,.08-.01.17-.02.25-.02.38-.03.76,0,1.14,0,.15.02.3.04.46,0,.03,0,.06,0,.08.02.11.03.22.05.32,0,.01,0,.02,0,.03,0,.05.01.1.02.16.02.11.04.23.06.34,0,.01,0,.02,0,.03.01.06.03.13.04.19.06.24.12.48.19.7.02.06.04.12.06.18s.05.14.07.21.05.14.08.21c.06.14.11.28.17.42.03.06.05.12.08.18s.06.11.08.17c.08.16.16.31.25.46h0c.05.09.1.18.16.27l.06.09h-.07l-.46.02h.02c.11,0,.22,0,.32,0h.65s-.16-.29-.16-.29c-.02-.03-.04-.06-.06-.09-.58-.97-.97-2.04-1.16-3.15-.03-.17-.05-.32-.06-.49-.01-.1-.02-.19-.03-.29-.07-.77-.03-1.55.11-2.31.25-1.45.85-2.81,1.74-3.98.1-.12.19-.24.3-.36,1.33-1.56,3.15-2.62,5.17-3.01h0s-.06-.37-.06-.37h0c-.18.03-.41.07-.67.11-.99.18-2.49.48-4.28.91-3.76.9-6.94,1.94-9.48,3.09-2.58,1.18-4.42,2.45-5.46,3.8l-.05.06c-.83,1.1-1.15,2.26-.95,3.44.01.08.03.16.05.23s.04.14.06.22c.02.05.03.11.05.16.42,1.27,1.46,2.27,3.12,2.98,0,0,.02,0,.03.01.13.06.27.11.42.17l.08.03.06-.03c.15-.06.3-.13.45-.19h.02c1.76-.72,3.22-1.12,4.58-1.27h.02c.16.05.33.1.51.14-.17-.05-.33-.09-.49-.14h-.04s-.01,0-.01,0c-.24-.08-.47-.16-.69-.25.25-.04.49-.08.73-.1h0l.04.36c.12-.01.22-.01.33-.03.3-.02.6-.03.9-.01.53.1,1.06.18,1.6.22.22.02.45.04.69.05s.46.02.7.03h.06s.05-.02.05-.02h.04s0,.02,0,.02h.03s0,0,0,0h.14c.21,0,.42.01.62.01h.32,0s-.34-.01-.34-.01c-.2,0-.4,0-.61-.01h-.12s-.02,0-.02,0m-.08.4h.21s.17,0,.17,0c-.15,0-.3,0-.44-.02-.04,0-.08,0-.11,0h-.03m.17-.4h.03m1.17.04h-.34c-.2,0-.4,0-.61-.01h-.12s-.03,0-.03,0v.03h.03s0,0,0,0h.14c.21,0,.42.01.62.01h.33l-.02-.02Z" style="fill:#fff;"/><path d="m182.1,138.7l.06-.33c.14-.69.21-1.39.19-2.09-.01-.43-.05-.86-.13-1.28-.03-.17-.06-.32-.09-.47-.51-2.28-1.89-4.27-3.83-5.56-.6-.4-1.24-.72-1.91-.96-1.41-.51-2.92-.67-4.4-.46l-.06-.37c.87-.14,2.69-.42,5-.64,2.6-.25,6.42-.49,9.86-.18h.03c2.87.25,5.05.86,6.5,1.8h0l.06.04c1.14.76,1.82,1.72,2.01,2.89.03.17.05.34.05.51.05,1.48-.74,2.91-2.37,4.24l-.06.05h-.08c-2.28-.14-4.07-.03-5.45.37-.86.6-1.95,1.18-3.26,1.72l-.18.06c-.36.14-.72.28-1.1.41-.18.06-.36.13-.55.19l-.3.08Zm-7.5-11.57c.65.09,1.29.25,1.91.47.71.26,1.38.6,2,1.02,1.27.84,2.31,1.98,3.05,3.31.44.78.76,1.63.95,2.5.04.17.06.33.1.5.07.44.12.88.13,1.33.01.62-.03,1.24-.13,1.86l.23-.08c.37-.13.74-.27,1.09-.41l.18-.06c1.29-.53,2.37-1.1,3.21-1.69l.04-.03h.04c1.41-.42,3.17-.54,5.51-.4,1.49-1.24,2.22-2.55,2.17-3.89,0-.16-.02-.32-.05-.47-.18-1.04-.78-1.91-1.8-2.6l-.05-.04c-1.39-.91-3.53-1.5-6.36-1.77h-.03c-3.41-.31-7.22-.08-9.82.18-.87.09-1.66.18-2.37.27Z" style="fill:#fff;"/><path d="m163.95,141.19h0s.04,0,.04,0h-.04Zm1.07.01h-.34c-.2,0-.4,0-.61-.01h.02c.21.01.42.02.62.02h.32,0Zm-1.17-.03h-.08s0,.01,0,.01c-.24,0-.47-.02-.69-.03-.26-.01-.51-.03-.75-.06-.52-.05-1.01-.12-1.46-.21h0c-.43-.08-.85-.19-1.27-.32h-.04s-.01-.01-.01-.01h-.03c-1.34-.45-2.25-1.13-2.7-2.03-.04-.09-.08-.17-.12-.26-.02-.04-.04-.09-.05-.14-.06-.16-.1-.32-.13-.49-.12-.62.09-1.24.6-1.89.36-.45.87-.91,1.53-1.37.77-.52,1.58-.98,2.42-1.38,1.4-.67,2.84-1.25,4.31-1.75h.03c-.16.22-.3.47-.44.71-.05.08-.09.17-.13.25-.04.07-.07.13-.1.2s-.06.12-.08.17c-.13.28-.24.57-.34.86h0c-.03.08-.05.16-.08.24s-.05.16-.07.24c-.02.06-.03.12-.05.18,0,.01,0,.02,0,.03,0,.02-.01.04-.02.06-.01.05-.03.11-.04.16,0,0,0,.01,0,.02,0,0,0,.01,0,.02-.01.04-.02.08-.03.13s-.02.11-.03.16-.03.13-.04.2c-.03.19-.06.38-.08.57,0,.06-.01.13-.02.19,0,.08-.01.17-.02.25-.02.38-.02.76,0,1.14,0,.15.02.3.04.46,0,.03,0,.06,0,.08.02.11.03.22.05.32,0,.01,0,.02,0,.03,0,.05.01.1.02.16.02.11.04.23.06.34,0,.01,0,.02,0,.03.01.06.03.13.04.19.06.24.12.48.19.7.02.06.04.12.06.18s.05.14.07.21.05.14.08.21c.06.14.11.28.17.42.03.06.05.12.08.18s.06.11.08.17c.08.16.16.31.25.46h0c.05.08.1.18.16.27l.06.09h-.07l-.46.02h.02c.11,0,.22,0,.32,0h.13s0,0,0,0h.51v-.02l-.15-.27s-.04-.07-.07-.11c-.33-.55-.6-1.14-.81-1.75-.15-.45-.27-.91-.35-1.38-.03-.17-.05-.32-.06-.49-.1-.87-.08-1.74.08-2.6.25-1.45.85-2.81,1.74-3.98l.28-.37.08-.12h-.04s-.55.2-.55.2l-.09.03h-.01s-.03.01-.03.01c-.9.3-1.75.61-2.54.92-.83.33-1.59.66-2.29,1-1.95.94-3.33,1.9-4.09,2.86-.58.73-.81,1.47-.68,2.19.03.14.06.28.11.42.03.1.06.19.1.28.02.04.03.08.05.12.4.91,1.19,1.63,2.35,2.13h.02s.03.02.03.02c.25-.04.49-.08.73-.1h0l.04.36c.12-.01.22-.01.33-.03.3-.02.6-.03.9-.01.53.1,1.06.18,1.59.22.22.02.45.04.69.05s.46.02.7.03h.06s.05-.02.05-.02h.04m1.1.03h0s-.34-.01-.34-.01c-.2,0-.4,0-.61-.01h.02c.21.01.42.02.62.02h.32Zm-1.08-.02h.04s-.04,0-.04,0h0Zm-.1.38h.22s.17,0,.17,0c-.15,0-.3,0-.44-.02-.04,0-.08,0-.11,0h-.03m1.37-.36h-.34c-.2,0-.4,0-.61-.01h-.14s.03,0,.03,0h0s.14,0,.14,0c.21,0,.42.01.62.01h.32-.01Z" style="fill:#fff;"/><path d="m182.1,138.7l.06-.33c.14-.69.21-1.39.19-2.09-.01-.43-.05-.86-.13-1.28-.03-.17-.06-.32-.09-.47-.51-2.28-1.89-4.27-3.83-5.56l-.51-.35h.62c1.74-.04,3.49.04,5.22.22,2.15.25,3.77.69,4.82,1.33.82.49,1.29,1.1,1.41,1.82h0c.04.25.05.5.04.74-.06,1.24-.86,2.41-2.36,3.47l-.04.03c-.85.6-1.95,1.17-3.24,1.71l-.18.06c-.36.14-.72.28-1.1.41-.18.06-.36.13-.55.19l-.33.1Zm-3.1-9.73c1.05.8,1.93,1.81,2.56,2.97.44.78.76,1.63.95,2.5.04.17.06.33.1.5.07.44.11.88.13,1.33.01.62-.03,1.24-.13,1.86l.23-.08c.37-.13.74-.27,1.09-.41l.18-.06c1.29-.53,2.37-1.1,3.21-1.69l.04-.03c1.37-.99,2.1-2.05,2.15-3.15.01-.22,0-.44-.04-.65-.1-.6-.51-1.12-1.23-1.55-1-.6-2.56-1.03-4.67-1.28-1.52-.17-3.05-.25-4.57-.24Z" style="fill:#fff;"/><path d="m165.02,141.2h-.34c-.2,0-.4,0-.61-.01h.02c.21.01.42.02.62.02h.32,0Zm.69.35l-.15-.27s-.04-.07-.07-.11c-.33-.55-.6-1.14-.81-1.75-.15-.45-.27-.91-.35-1.38-.03-.17-.05-.32-.06-.49l-.04-.31h0l-.04.02-.22.14s-.09.06-.14.09h0c-.33.23-.64.48-.92.76-.48.48-.71.95-.69,1.41v.07c0,.11.02.22.05.32,0,.03.02.07.03.1h0c.08.23.21.45.37.63.11.13.24.25.38.35,0,0,.01,0,.02.01h.02c.23.03.46.04.7.04h.01-.03s-.02-.02-.02-.02c0,0-.02,0-.02-.01l-.05-.04h-.01s-.08-.04-.11-.07c-.27-.15-.51-.35-.7-.6-.11-.14-.19-.3-.23-.48,0-.03-.01-.07-.02-.11s-.01-.1-.02-.15c-.04-.36.17-.76.58-1.18.23-.23.47-.44.73-.62h0s0,.02,0,.04c0,.01,0,.02,0,.03h0s0,.06,0,.06c0,0,0,0,0,.01,0,.02,0,.03,0,.05.02.11.04.23.06.34,0,.01,0,.02,0,.03.01.06.03.13.04.19.06.24.12.48.19.7.02.06.04.12.06.18s.05.14.07.21.05.14.08.21c.06.14.11.28.17.42.03.06.05.12.08.18s.06.11.08.17c.08.16.16.31.25.46h0c.05.08.1.18.16.27l.06.09h-.07l-.46.02h.02c.11,0,.22,0,.32,0h.65s.02-.02.02-.02Zm-.68-.34h0s-.34-.01-.34-.01c-.2,0-.4,0-.61-.01h.02c.21.01.42.02.62.02h.32Zm0-.01h-.34c-.2,0-.4,0-.61-.01h-.12s.15.01.15.01c.21,0,.42.01.62.01h.32,0Z" style="fill:#fff;"/><path d="m182.1,138.7l.06-.33c.14-.69.21-1.39.19-2.09-.01-.43-.05-.86-.13-1.28-.03-.17-.06-.32-.09-.47l-.06-.31.31.08c.41.1.82.23,1.2.41.69.32,1.1.73,1.22,1.21.01.06.03.13.04.21.09.63-.14,1.24-.7,1.83l-.03.03h-.04c-.36.15-.72.29-1.1.42-.18.06-.36.13-.55.19l-.32.12Zm.48-3.96l.04.19c.07.44.11.89.13,1.33.01.62-.03,1.24-.13,1.86l.23-.08c.36-.13.71-.25,1.05-.4.45-.5.64-1,.58-1.49h0c-.01-.05-.01-.1-.03-.17-.09-.36-.44-.68-1.02-.95-.28-.12-.56-.22-.85-.3Z" style="fill:#fff;"/><path d="m190.09,142.29c-.58-.24-1.27-.6-2-.97l-.42-.22.18-.33.42.22c.73.37,1.41.73,1.97.96l-.15.35Z" style="fill:#fff;"/><path d="m184.29,137.89l-.24-.29c.95-.77,2.04-1.36,3.21-1.72.04-.01.08-.02.12-.04l.09.37s-.06.01-.09.03c-1.12.35-2.17.91-3.08,1.65Z" style="fill:#fff;"/><path d="m183.05,138.34l-.31-.23c.65-.85,1.22-1.51,1.76-2.1,1.64-1.78,3.26-2.88,5.09-3.47h.04c1.56-.51,3.4-.9,5.6-1.17,1.86-.23,3.76-.37,5.58-.5h.19c1.86-.14,3.6-.27,5.27-.49l.05.38c-1.68.22-3.44.35-5.3.47h-.19c-1.82.14-3.71.28-5.56.51-2.18.27-4,.64-5.54,1.14h-.04c-1.76.58-3.32,1.65-4.92,3.39-.51.56-1.06,1.23-1.72,2.06Z" style="fill:#fff;"/><path d="m182.7,136.38l-.32-.21c.35-.54.65-1,.95-1.41,1.54-2.14,3.06-3.59,4.83-4.56h.03s.04-.04.06-.05c1.35-.74,2.97-1.4,4.95-2.03h.01c1.68-.53,3.36-.95,5.37-1.45l.12-.03c1.65-.41,3.22-.79,4.71-1.24l.12.36c-1.49.45-3.06.85-4.72,1.26l-.12.03c-2.01.5-3.69.92-5.37,1.45h-.01c-1.95.62-3.55,1.27-4.89,2-.03.01-.04.03-.05.03h-.03c-1.71.96-3.21,2.37-4.71,4.48-.28.4-.59.86-.94,1.39Z" style="fill:#fff;"/><path d="m181.56,132.11l-.33-.19c.57-1.02,1.25-1.97,2.04-2.83.06-.06.13-.14.19-.21.83-.86,1.9-1.69,3.23-2.54l.04-.03c1.17-.74,2.42-1.41,3.71-2.09l.19-.1c1.04-.55,2.03-1.06,2.94-1.59l.19.33c-.92.54-1.91,1.05-2.95,1.6l-.19.1c-1.29.68-2.55,1.35-3.72,2.09l-.04.03c-1.31.82-2.33,1.63-3.14,2.46l-.19.19c-.75.86-1.4,1.78-1.97,2.77Z" style="fill:#fff;"/><path d="m176.62,127.86l-.36-.14c.14-.35.31-.69.51-1.13.35-.71.73-1.41,1.09-2.06l.13-.22c.32-.59.67-1.19.96-1.78l.35.17c-.29.59-.64,1.21-.96,1.8l-.13.22c-.36.65-.74,1.35-1.09,2.05-.2.42-.37.76-.5,1.1Z" style="fill:#fff;"/><path d="m167.26,129.45c-.25-.29-.54-.58-.85-.89-.53-.53-1.08-1.01-1.69-1.56l-.17-.14c-.54-.49-1.05-.93-1.54-1.41l.27-.27c.47.46.99.92,1.52,1.4l.17.14c.62.55,1.17,1.05,1.71,1.58.31.31.59.6.86.9l-.28.26Z" style="fill:#fff;"/><path d="m187.48,136.2c-.86.6-1.95,1.18-3.26,1.72l-.18.06c-.36.14-.72.28-1.1.41-.14.05-.28.1-.42.15-.04.02-.08.03-.13.04l-.32.1.06-.33s.01-.06.02-.08c-.39.13-.82.26-1.28.4-.82.24-1.71.47-2.68.71-.96.23-1.99.45-3.04.64-.47.09-.9.17-1.27.23-.36.05-.79.13-1.28.21-1.1.18-2.09.32-3.03.42-1,.12-1.95.21-2.85.25-.41.02-.83.04-1.23.05h-.04s.04.06.06.09l.18.28h.03c.24,0,.48-.02.71-.03l.36-.02c.9-.05,1.86-.14,2.86-.25.94-.1,1.92-.24,3.04-.42.21-.03.4-.06.59-.08l.32-.05.12-.02.25-.04c.37-.06.81-.14,1.28-.23,1.06-.19,2.09-.41,3.07-.64.43-.1.85-.21,1.25-.31h.02c.5-.14.97-.27,1.43-.41.5-.14.96-.29,1.4-.44l.11-.04c.15-.05.29-.1.44-.15.38-.13.74-.27,1.1-.41l.18-.06c1.31-.54,2.4-1.12,3.26-1.72,1.28-.36,2.88-.49,4.92-.4h.02c-2.06-.1-3.67.03-4.96.39Zm-23.63,4.97h-.08s0,.01,0,.01c-.24,0-.47-.02-.69-.03-.26-.01-.51-.03-.75-.06-.52-.05-1.01-.12-1.46-.21h0c-.43-.08-.85-.19-1.27-.32h-.04s-.04-.01-.04-.01c-.24.03-.48.06-.73.1h0c-1.32.22-2.77.66-4.49,1.39l-.42.18h-.03s.03.02.03.02l.42.16c2.12.79,5.12,1.18,8.92,1.13h.07c1.11-.01,2.3-.06,3.53-.15h.22c.08-.03.17-.03.25-.04h.1c.51-.05,1.02-.09,1.5-.14.29-.03.58-.06.85-.09l.55-.06c.24-.03.49-.06.72-.09h.06c.77-.1,1.51-.21,2.23-.32.38-.05.7-.1.97-.15s.6-.1.92-.18c.76-.14,1.5-.29,2.24-.46.25-.05.51-.1.78-.17l.53-.13c.24-.06.49-.12.74-.18.46-.1.93-.23,1.42-.36l.29-.08c.12-.03.22-.06.33-.09h.04c1.16-.34,2.29-.68,3.34-1.03.02,0,.03-.01.05-.02h.01c3.6-1.22,6.31-2.56,8.07-4l.35-.29.03-.02-.49-.03c-2.38-.15-4.17-.03-5.59.38h-.04s-.04.04-.04.04c-.83.59-1.91,1.17-3.21,1.69l-.18.06c-.35.14-.72.28-1.09.41l-.17.06h0c-.12.04-.24.08-.36.13l-.1.03c-.39.13-.82.26-1.28.4-.82.24-1.71.47-2.68.71-.96.23-1.99.45-3.04.64-.47.09-.9.17-1.27.23-.36.05-.79.13-1.28.21-1.1.18-2.09.32-3.03.42-1,.12-1.95.21-2.85.25-.41.02-.83.04-1.23.05h-.16c-.11.01-.21.01-.31.02h-.34c-.2,0-.4,0-.61-.01h-.15s.03,0,.03,0h0s.14,0,.14,0c.21,0,.42.01.62.01h.32,0s0-.01,0-.01c.05.09.1.18.16.27l.06.09h.11c.11,0,.22,0,.33,0h.03c.24,0,.48-.02.71-.03l.36-.02c.9-.05,1.86-.14,2.86-.25.94-.1,1.92-.24,3.04-.42.21-.03.4-.06.59-.08l.32-.05.12-.02.25-.04c.37-.06.81-.14,1.28-.23,1.06-.19,2.09-.41,3.07-.64.43-.1.85-.21,1.25-.31h.02c.5-.14.97-.27,1.43-.41.5-.14.96-.29,1.4-.44l.11-.04c.15-.05.29-.1.44-.15.38-.13.74-.27,1.1-.41l.18-.06c1.31-.54,2.4-1.12,3.26-1.72,1.28-.36,2.88-.49,4.92-.4h.03c-1.72,1.3-4.24,2.5-7.53,3.62h-.01l-.51.17c-.91.3-1.87.59-2.86.86h-.04c-.12.04-.22.08-.33.1l-.36.09c-.46.13-.92.24-1.36.35-.25.06-.5.12-.74.18l-.53.13c-.27.05-.53.12-.78.17-.74.15-1.49.31-2.23.45-.36.06-.68.12-.96.17s-.59.1-.96.15c-.7.1-1.46.22-2.22.31h-.06c-.23.05-.47.08-.72.1l-.55.06c-.27.04-.55.06-.83.09-.49.04-.99.09-1.49.13h-.09c-.09.03-.17.03-.25.04h-.22c-1.11.09-2.19.14-3.2.16h-.39s-.09,0-.09,0c-3.42.03-6.17-.27-8.19-.93h-.02s-.01,0-.01,0c1.77-.71,3.23-1.11,4.6-1.27h-.01c-.24-.08-.47-.16-.69-.25.25-.04.49-.08.73-.1h0l.04.36c.12-.01.22-.01.33-.03.3-.02.6-.03.9-.01.53.1,1.06.18,1.59.22.22.02.45.04.69.05s.46.02.7.03h.06s.05-.02.05-.02h.04" style="fill:#fff;"/><path d="m164,135.06c-.86-.75-1.79-1.39-2.8-1.92l-.31-.15c-1.08-.53-2.33-.94-3.83-1.28-1.31-.31-2.68-.51-4.08-.73l-.23-.04c-1.17-.18-2.27-.35-3.33-.55l.08-.37c1.06.21,2.17.37,3.32.55l.23.04c1.41.22,2.78.42,4.1.73,1.54.35,2.81.78,3.91,1.31l.31.15c1.03.54,2,1.21,2.87,1.97l-.24.29Z" style="fill:#fff;"/><path d="m164.36,139.62c-.51-.4-.99-.76-1.45-1.08-2.09-1.46-3.95-2.33-5.86-2.72l-.13-.03c-1.46-.28-3.17-.38-5.23-.31h-.01c-1.86.06-3.8.25-5.5.42h-.04c-1.77.18-3.44.35-4.99.41v-.38c1.53-.06,3.19-.23,4.95-.41h.04c1.71-.17,3.64-.36,5.51-.42h.01c2.09-.08,3.83.03,5.32.32l.13.03c1.96.4,3.87,1.28,6,2.78.46.33.95.68,1.46,1.09l-.22.29Z" style="fill:#fff;"/><path d="m164.82,141.21h-.12c-.2,0-.41,0-.62-.01h-.02c-.44-.29-.84-.53-1.22-.74-.17-.09-.34-.19-.5-.27l-.04-.02h0c-1.98-1.05-3.73-1.57-5.51-1.64-.08,0-.17,0-.25,0h-.16c-1.51,0-3.25.22-5.31.65-.06.01-.13.03-.19.04-.05.01-.1.02-.16.03-1.73.38-3.48.86-5.05,1.29l-.21.06-.19.05h0c-1.82.51-3.54.99-5.14,1.32l-.08-.37c1.58-.33,3.29-.8,5.09-1.31h.03s.19-.06.19-.06l.18-.05c1.57-.44,3.34-.92,5.08-1.31l.17-.04.17-.04c2.04-.44,3.77-.66,5.27-.67h.38c1.82.04,3.61.53,5.59,1.55.1.05.2.1.3.16.03.02.06.03.08.05.65.35,1.36.78,2.2,1.33h.02Z" style="fill:#fff;"/><path d="m163.89,141.18h-.05s-.04.02-.04.02h-.01c-.24,0-.47-.02-.7-.03s-.47-.03-.69-.05l-.08-.02s-.07-.02-.1-.02c-.42-.09-.84-.15-1.27-.18h0s-.06,0-.09,0h-.05c-.3-.01-.6,0-.9.01-.12.01-.22.01-.33.03l-.04-.36v-.03c.11-.01.23-.02.35-.03.94-.07,1.89.03,2.8.27.29.07.58.16.87.26.04.01.08.03.11.04h.03l.04.03.11.04h.03s.02.02.03.02h0Z" style="fill:#fff;"/><path d="m146.71,146.01l-.14-.35c1.1-.46,2.26-1.03,3.47-1.63l.09-.04c1.36-.67,2.76-1.36,4.17-1.95l.14.35c-1.4.59-2.8,1.27-4.14,1.94l-.09.05c-1.23.6-2.38,1.17-3.5,1.63Z" style="fill:#fff;"/><path d="m174.6,144.34c-.18.03-.37.06-.58.09-.38.06-.82.13-1.3.21h-.12c-.19.04-.38.06-.59.09s-.42.06-.65.09h-.04c-.35.05-.72.09-1.09.14h-.04l-.47.05c-2.87.34-5.76.54-8.66.59h-.45s.31-.32.31-.32c.68-.72,1.42-1.48,2.17-2.12l.05-.05h.06c1.27-.01,2.64-.08,4.07-.19h.1c.51-.05,1.02-.1,1.49-.14.29-.03.59-.06.87-.09l.51-.06c.24-.03.47-.05.69-.09h.08c.77-.1,1.51-.22,2.22-.32.37-.05.69-.1.96-.15.28-.05.6-.1.96-.17.74-.14,1.49-.29,2.23-.45.25-.05.51-.12.78-.17l.58-.14c.23-.05.46-.1.69-.17.44-.1.89-.22,1.35-.35h0l.36-.09c1.31-.36,2.57-.73,3.73-1.13h.08s.05,0,.05,0c.95.38,1.91.87,2.81,1.33l.41.21-.44.14c-2.77.91-5.59,1.67-8.44,2.3l-.77.17c-.28.06-.55.12-.81.17l-.24.05c-.14.03-.27.05-.41.08s-.29.06-.44.09l-.24.05c-.47.09-.91.17-1.3.24-.18.06-.36.1-.55.12Zm-4.44.25h.05c.36-.04.72-.09,1.06-.14h.04c.22-.03.44-.06.64-.09s.41-.05.59-.08h.1c.47-.09.9-.15,1.28-.21.19-.04.38-.07.58-.09.18-.03.37-.06.56-.1.38-.06.82-.15,1.3-.24l.24-.05c.14-.03.28-.05.44-.09.13-.03.27-.05.4-.08l.24-.05c.25-.05.53-.12.81-.17l.76-.17c2.86-.64,5.54-1.36,7.96-2.14-.74-.38-1.52-.76-2.3-1.06-1.15.38-2.4.77-3.69,1.11l-.29.08c-.49.13-.96.25-1.42.36-.23.05-.46.12-.69.17l-.59.14c-.27.06-.53.12-.78.17-.74.17-1.5.32-2.24.46-.36.06-.68.13-.96.17-.27.05-.59.1-.97.15-.72.11-1.46.22-2.23.31h-.08c-.23.04-.46.06-.71.1l-.51.06c-.28.03-.58.06-.88.09-.49.05-.99.09-1.5.13h-.1c-1.41.12-2.76.18-4.01.21-.6.53-1.21,1.13-1.77,1.72,2.53-.05,5.27-.25,8.16-.59l.54-.08h0Z" style="fill:#fff;"/><path d="m159.3,147.51l-.25-.28c.46-.41,1-.99,1.56-1.59l.32-.35.28.27-.32.33c-.58.62-1.11,1.19-1.59,1.62Z" style="fill:#fff;"/><rect x="183.51" y="137.59" width=".38" height="2.81" transform="translate(-21.95 242.78) rotate(-63.89)" style="fill:#fff;"/><path d="m165.2,141.56h-.01c-.13.14-.99.97-1.58,1.57,0,0-.01.01-.02.02l-.21.21-.28-.19.03-.03.03-.03s1.26-1.35,1.56-1.52h0l.46-.02h.02Z" style="fill:#fff;"/><path d="m165.35,141.56h-.18l-.46.02h-.48c-.15,0-.3,0-.44-.02-.04,0-.08,0-.11,0h-.31s-.07,0-.07,0c-.02,0-.04,0-.06,0h-.1c-.83-.04-1.66-.15-2.48-.31-.15-.03-.29-.06-.44-.1-.06-.01-.12-.03-.18-.04-.17-.05-.33-.09-.49-.14h-.04s-.01,0-.01,0c-.24-.08-.47-.16-.69-.25.25-.04.49-.08.73-.1h0l.04.36c.12-.01.22-.01.33-.03.3-.02.6-.03.9-.01.53.1,1.06.18,1.59.22.22.02.45.04.69.05s.46.02.7.03h.06s.05-.02.05-.02h.04s0,.02,0,.02h.03s0,0,0,0h.14c.21,0,.42.01.62.01h.32,0s0-.01,0-.01c.05.08.1.18.16.27l.06.09.11-.03Z" style="fill:#fff;"/><path d="m182.65,137.84c-.01.09-.03.18-.04.27-.02.12-.04.23-.07.35l-.02.08v.02s0,0,0,0l-.1.03c-.5.17-.99.32-1.4.44-.45.13-.93.26-1.44.4h-.02c-.39.11-.81.21-1.24.31-1.1.27-2.12.47-3.06.64-.4.08-.8.15-1.28.23l-.26.05-.12.02-.32.05c-.18.03-.38.06-.59.08-1.09.18-2.08.31-3.04.42-.99.11-1.95.2-2.87.25l-.34.02c-.23.01-.47.02-.71.03h-.46l-.06-.09c-.05-.09-.11-.18-.16-.27h0c-.09-.16-.17-.31-.25-.46-.03-.06-.06-.12-.08-.17s-.05-.12-.08-.18c-.06-.14-.12-.28-.17-.42-.03-.07-.05-.14-.08-.21s-.05-.15-.08-.23c-.02-.05-.04-.11-.05-.16-.07-.22-.13-.45-.19-.7-.01-.06-.03-.12-.04-.19,0-.01,0-.02,0-.03-.01-.06-.03-.13-.04-.19-.01-.05-.02-.11-.03-.16l-.03-.17-.05-.34v-.07c-.11-.88-.08-1.77.08-2.65.23-1.29.72-2.52,1.46-3.61.12-.18.24-.35.37-.51h0c.45-.57.95-1.1,1.51-1.56,1.04-.85,2.26-1.47,3.56-1.82.2-.05.4-.1.6-.14l.47-.08c3.31-.48,6.63.82,8.73,3.43.05.07.11.13.16.2s.1.13.14.19.11.15.16.23c.16.23.31.48.45.72.43.78.75,1.62.95,2.49.03.08.05.16.07.23.03.1.05.21.07.31,0,0,0,.01,0,.02.02.11.04.22.05.34.01.08.02.17.03.25s.02.17.02.25.01.16.02.25,0,.15.01.23v.02c.02.52-.01,1.03-.08,1.54Z" style="fill:#fff;"/></g><circle cx="161.72" cy="134.81" r="27" style="fill:none; stroke:#000; stroke-miterlimit:10;"/></g></svg>