<?xml version="1.0" encoding="UTF-8"?><svg xmlns="http://www.w3.org/2000/svg" viewBox="0 0 200 200"><g id="a"><circle cx="100" cy="100" r="99" style="fill:#2775ca;"/><path d="m81.44,168.84c0,2.32-1.86,3.64-4.02,2.94-30.01-9.59-51.67-37.59-51.67-70.77s21.66-61.18,51.67-70.77c2.24-.7,4.02.62,4.02,2.94v5.8c0,1.55-1.16,3.33-2.63,3.87-23.74,8.74-40.68,31.56-40.68,58.16s16.94,49.42,40.68,58.09c1.47.54,2.63,2.32,2.63,3.87v5.88Z" style="fill:#fff;"/><path d="m106.19,147.41c0,1.7-1.39,3.09-3.09,3.09h-6.19c-1.7,0-3.09-1.39-3.09-3.09v-9.75c-13.54-1.86-20.11-9.36-21.89-19.72-.31-1.78,1.08-3.33,2.86-3.33h7.04c1.47,0,2.71,1.08,3.02,2.47,1.31,6.11,4.87,10.83,15.7,10.83,7.97,0,13.69-4.49,13.69-11.14s-3.33-9.2-15.08-11.14c-17.33-2.32-25.52-7.58-25.52-21.11,0-10.44,7.97-18.64,20.19-20.34v-9.59c0-1.7,1.39-3.09,3.09-3.09h6.19c1.7,0,3.09,1.39,3.09,3.09v9.82c9.98,1.78,16.32,7.42,18.41,16.86.39,1.78-1.01,3.4-2.86,3.4h-6.5c-1.39,0-2.55-.93-2.94-2.24-1.78-5.96-6.03-8.59-13.46-8.59-8.2,0-12.45,3.94-12.45,9.51,0,5.88,2.4,8.82,15,10.6,17.02,2.32,25.83,7.19,25.83,21.66,0,10.98-8.2,19.88-20.96,21.89v9.9h-.08Z" style="fill:#fff;"/><path d="m122.58,171.78c-2.24.7-4.02-.62-4.02-2.94v-5.8c0-1.7,1.01-3.33,2.63-3.87,23.67-8.66,40.68-31.48,40.68-58.09s-16.94-49.42-40.68-58.09c-1.47-.54-2.63-2.32-2.63-3.87v-5.8c0-2.32,1.86-3.64,4.02-2.94,30.01,9.44,51.67,37.51,51.67,70.61s-21.66,61.18-51.67,70.77Z" style="fill:#fff;"/><rect x="117.51" y="143.55" width="33.98" height="30.91" style="fill:#fff;"/><path d="m162.01,161.64c0,15.19-12.31,27.5-27.5,27.5s-27.5-12.31-27.5-27.5,12.31-27.5,27.5-27.5,27.5,12.31,27.5,27.5Zm-35.29,10.94h-5.34c-1.12,0-1.68,0-2.01-.22-.36-.24-.59-.63-.61-1.06-.02-.4.26-.88.81-1.86l13.18-23.23c.56-.99.84-1.48,1.2-1.66.39-.2.84-.2,1.23,0,.36.18.64.68,1.2,1.66l2.71,4.73v.02c.62,1.06.93,1.59,1.06,2.16.15.61.15,1.26,0,1.88-.14.57-.44,1.11-1.05,2.18l-6.92,12.24-.02.03c-.61,1.07-.92,1.61-1.35,2.02-.47.45-1.03.77-1.64.95-.56.16-1.19.16-2.45.16Zm13.48,0h7.65c1.13,0,1.7,0,2.03-.22.36-.24.59-.64.61-1.07.02-.39-.25-.85-.78-1.77-.02-.03-.04-.06-.06-.1l-3.83-6.55-.04-.07c-.54-.91-.81-1.37-1.16-1.55-.38-.2-.84-.2-1.22,0-.35.18-.64.66-1.2,1.63l-3.82,6.55v.02c-.57.96-.85,1.45-.83,1.84.03.43.25.83.61,1.07.33.22.9.22,2.03.22Z" style="fill:#e84142; fill-rule:evenodd;"/></g><g id="b"><circle cx="161.73" cy="134.82" r="27"/><path d="m164.14,131.55l12.64-12.64-4.79-4.79-10.24,10.24-10.24-10.24-4.79,4.79,12.63,12.64c.66.66,1.53.99,2.4.99s1.73-.33,2.4-.99Zm18.29,13.5l-10.24-10.24,10.24-10.24-4.79-4.79-12.63,12.64c-1.32,1.32-1.32,3.47,0,4.79l12.63,12.64,4.79-4.79h0Zm-20.7.23l10.24,10.24,4.79-4.79-12.63-12.64c-1.32-1.32-3.47-1.32-4.79,0l-12.63,12.64,4.79,4.79,10.24-10.24h0Zm-3.26-8.05c.64-.64.99-1.5.99-2.4s-.36-1.76-.99-2.4l-12.63-12.64-4.79,4.79,10.24,10.24-10.24,10.24,4.79,4.79,12.63-12.64h0Z" style="fill:#fff;"/></g></svg>