<?xml version="1.0" encoding="UTF-8"?><svg xmlns="http://www.w3.org/2000/svg" xmlns:xlink="http://www.w3.org/1999/xlink" viewBox="0 0 200 200"><defs><clipPath id="b"><path d="m100,1h0c54.67,0,99,44.33,99,99h0c0,54.67-44.33,99-99,99h0C45.33,199,1,154.67,1,100h0C1,45.33,45.33,1,100,1Z" style="fill:none;"/></clipPath><radialGradient id="c" cx="3930.45" cy="-6910.65" fx="3930.45" fy="-6910.65" r="1.35" gradientTransform="translate(-570539.31 -324441.17) rotate(90) scale(82.58)" gradientUnits="userSpaceOnUse"><stop offset=".17" stop-color="#073183"/><stop offset="1" stop-color="#0054f9"/></radialGradient><linearGradient id="d" x1="108.56" y1="-13614.55" x2="334.33" y2="-13377.59" gradientTransform="translate(-120.94 13593.94)" gradientUnits="userSpaceOnUse"><stop offset=".21" stop-color="#89d0ff"/><stop offset=".4" stop-color="#ebbf9a"/><stop offset=".6" stop-color="#eb8280"/><stop offset=".84" stop-color="#a281ff"/></linearGradient><linearGradient id="e" x1="117.42" y1="-13604.36" x2="325.47" y2="-13385.12" gradientTransform="translate(-120.94 13593.94)" gradientUnits="userSpaceOnUse"><stop offset=".21" stop-color="#89d0ff"/><stop offset=".4" stop-color="#ebbf9a"/><stop offset=".6" stop-color="#eb80da"/><stop offset=".84" stop-color="#a281ff"/></linearGradient><linearGradient id="f" x1="126.29" y1="-13595.55" x2="316.68" y2="-13393.95" xlink:href="#d"/><linearGradient id="g" x1="135.15" y1="-13586.72" x2="307.84" y2="-13402.8" gradientTransform="translate(-120.94 13593.94)" gradientUnits="userSpaceOnUse"><stop offset=".21" stop-color="#89d0ff"/><stop offset=".4" stop-color="#ebbf9a"/><stop offset=".6" stop-color="#eb80e7"/><stop offset=".84" stop-color="#a281ff"/></linearGradient><linearGradient id="h" x1="143.99" y1="-13577.89" x2="299.01" y2="-13411.69" gradientTransform="translate(-120.94 13593.94)" gradientUnits="userSpaceOnUse"><stop offset=".21" stop-color="#89d0ff"/><stop offset=".4" stop-color="#ebbf9a"/><stop offset=".6" stop-color="#eb80d3"/><stop offset=".84" stop-color="#a281ff"/></linearGradient><linearGradient id="i" x1="152.87" y1="-13569.04" x2="290.15" y2="-13420.56" gradientTransform="translate(-120.94 13593.94)" gradientUnits="userSpaceOnUse"><stop offset=".21" stop-color="#89d0ff"/><stop offset=".4" stop-color="#ebbf9a"/><stop offset=".6" stop-color="#a280eb"/><stop offset=".84" stop-color="#a281ff"/></linearGradient></defs><g id="a"><g style="clip-path:url(#b);"><path d="m100,1h0c54.67,0,99,44.33,99,99h0c0,54.67-44.33,99-99,99h0C45.33,199,1,154.67,1,100h0C1,45.33,45.33,1,100,1Z" style="fill:url(#c);"/><path d="m167.33,69.1c-.42,2.42-.9,3.6-1.47,4.96h0c-.61,1.48-1.31,3.15-1.94,6.47-.25,1.33-.38,2.3-.48,3.16v.05l-.02.05c-.18,1.38-.29,2.3-.85,3.95-.45,1.35-1.21,3.6-3.04,6.02-1.47,1.96-3.94,5.24-7.24,5.63-.29.02-.89.05-1.13-.08-9.35-4.77-17.38-8.31-20.16-9.1-3.24-.92-2.82-7.97-2.45-14.19.17-2.78.32-5.41.19-7.66-.45-7.85-1.84-16.45-8.69-20.64-4.09-2.5-9.35-3.24-14.39-3.25.93-.44,1.97-1.05,3.11-1.71l.04-.02c2.96-1.71,6.64-3.85,10.3-4.22,1.19-.12,2.37-.26,3.53-.39,7.37-.83,13.73-1.55,20.45.75,3.04,1.04,9.29,4.53,10.9,7.76,1.14,2.28,3.05,4.06,6.87,7.62,1.99,1.85,3.3,2.93,4.26,3.72l.05.04c1.35,1.11,1.61,1.34,2.01,2.16,1.24,2.52.79,5.21.16,8.92h0Z" style="fill:#fff;"/><path d="m133.12,101.32c.54.18.74.84.43,1.31-.97,1.5-2.08,3.52-3.4,5.97-.64,1.2-1.25,2.33-1.76,3.21-1.81,3.11-1.96,5.73-2.07,7.83-.13,2.2-.23,3.21-1.55,4.09-1.08.73-2.19.97-9.89,2.14-1.34.21-1.94.47-2.46.7l-.26.11c-.53.22-1.06-.24-1.04-.82.06-1.07.09-2.4.09-4.03v-.33c.04-1.51-.02-2.74-.08-3.72-.1-1.96-.11-2.79.41-3.65.64-1.03,1.15-1.35,1.97-1.87,1.15-.72,2.73-1.72,5.07-4.93,1.24-1.7,1.52-2.62,1.69-3.42.07-.33.1-.45,1.06-1.18,1.01-.77,4.09-3.1,8.03-2.44,1.04.18,2.36.56,3.76,1.04h0Z" style="fill:#fff;"/><path d="m102.67,136.88c-.17.22-.36.32-.65.33-.8.03-1.37-.17-1.75-.61-.79-.96-.69-2.91-.5-4.04l3.26-.87c.26,1.72.38,4.24-.36,5.19Z" style="fill:#fff;"/><path d="m102.94,125.14c-.05.47-.11,1.01-.11,1.57,0,.21,0,.42.01.62,0,.53.03,1.38-.05,1.76-1.02.37-1.89.37-3.03.35-.02-.33,0-.82.02-1.16,0-.26.02-.51.02-.76v-.8c0-.63-.01-1.65.14-1.95.31-.04.62-.11.96-.19.67-.15,1.55-.33,2.11-.24-.01.22-.04.54-.08.8h0Z" style="fill:#fff;"/><path d="m96.92,135.88c-.16,1.67-.67,3.73-2.24,4.05-.7.15-1.04-.07-1.26-.27-1.06-.98-1.22-3.94-1.08-6.05.7.01,1.63-.15,2.72-.36.67-.13,1.33-.28,1.86-.4.06.79.1,1.9,0,3.04Z" style="fill:#fff;"/><path d="m96.18,129.89l-3.53,1.24c.18-1.37.42-3.3.5-4.58.06-.9.31-1.18.38-1.24.02-.02.07-.06.2-.06h.06l.07.02,2.23-.12c.09,1.05.09,3.35.08,4.75h0Z" style="fill:#fff;"/><path d="m90.47,128.79c-.2.53-.43,2.04-.58,3.1l-4.42-.14c.25-1.37.59-2.76.97-3.88.39-1.1.8-1.93,1.18-2.16.44-.27,1.42-.33,2.02.19.97.83,1.24,1.78.83,2.89Z" style="fill:#fff;"/><path d="m88.82,142.33c-.34.47-.72.71-1.19.76-.48.05-.85-.05-1.16-.33-1.39-1.28-1.28-5.48-1.22-7.5,1.83-.42,3.81-.78,4.75-.83.14,1.69.18,6.05-1.18,7.91Z" style="fill:#fff;"/><path d="m83.04,131.63c-.21.58-.42,1.12-.58,1.6-.52.16-2.09.02-3.69-.33l1.1-6.96c1.81-.48,3.92-.64,4.43-.1.67.71-.68,4.27-1.26,5.79h0Z" style="fill:#fff;"/><path d="m81.04,143.39c-.86,1.06-2.15,1.55-3.94,1.53-1.24-.02-1.69-.49-1.91-.84-1-1.58-.02-5.3.96-7.68l5.99.36c.06.42.11.93.14,1.48.07,1.69-.15,3.8-1.23,5.15h0Z" style="fill:#fff;"/><path d="m130.56,92.87c-5.39-1.53-4.93-9.42-4.48-17.04.16-2.7.31-5.25.19-7.34-.41-7.14-1.62-14.91-7.35-18.42-6.17-3.78-16.27-2.91-22.5-2.12h-.03c-2.28.7-4.42,1.15-6.08,1.06-3.68-.19-6.54-1.74-9.06-3.1-1.96-1.06-3.68-1.99-5.29-1.99h-.26c-4.83.31-7.05,1.5-9.07,3.29-.51.45-1.13,1.75-3.15,7.59-1.02,2.95-1.21,4.56-1.4,6.13-.17,1.43-.34,2.91-1.1,5.11-.53,1.52-.92,2.82-1.3,4.09-1,3.35-1.79,5.99-4.16,9.13-.28.37-.63.92-1.02,1.54-.54.85-1.2,1.9-2.08,3.12-.62.86-2.04,4.07-1.96,5.05.11,1.56.63,2.53,1.2,3.66.58,1.12,1.23,2.38,1.35,4.12l.02.28c.21,2.76-.18,4.15-5.44,8.84-3.36,3.01-5.75,5.9-7.36,8.03-.14.19.04.46.28.45.05,0,.11-.01.16-.01.1,0,.2-.01.3-.01s.2,0,.3,0c.1,0,.2.01.3.03,1.27.15,2.51.68,3.4,1.61.16.16.4.2.6.12.85-.35,1.8-.3,2.69-.21,1.07.1,2.15.41,2.88,1.07.28.25.67.39,1.04.31.84-.17,1.71-.14,2.52.15.6.22,1.12.56,1.54.99.4.4,1.07.48,1.56.2.2-.11.41-.21.64-.29,1.14-.39,2.4-.17,3.51.23.55.2,1.12.37,1.61.7.81.54,1.34,1.31,1.69,2.17.27.66,1.18.89,1.76.47.7-.5,1.28-.57,1.85-.31.24.11.43.24.57.41.42.48,1.08.96,1.7.81,1.72-.41,3.81-.14,5.34.68.56.3,1.12.75,1.53,1.43h0l.05-.3c.02-.14.12-.25.25-.29l.37-.11c.88-.28,5.33-1.56,7.07.26.07.07.2.08.28,0,.23-.26.43-.4.55-.47,1.13-.68,3.06-.73,4.36.38.26.22.68.14.88-.14.12-.17.26-.32.41-.45.45-.39,1.03-.58,1.66-.54l2.45-.13c.61-.04,2.53-.16,3.13-.29l.14-.03c.26-.04.56-.1.88-.17,1.19-.26,2.54-.55,3.64-.04,1.06.49.93,1.7.8,2.77-.05.43-.1.89-.1,1.32,0,.2.01.4.02.61.02.92.04,1.77-.15,2.42h0l.11.51c.11.49.65.78,1.08.51.83-.51,1.68-1.16,1.95-1.54.03-.04.05-.07.06-.11.04-.1.1-.32.18-.75.15-.91.32-2.76.34-6.51v-.41c.03-1.39-.02-2.51-.08-3.5-.1-2.04-.18-3.64.83-5.27.98-1.58,1.94-2.19,2.86-2.77,1.07-.67,2.27-1.43,4.3-4.21,1-1.37,1.12-1.92,1.21-2.37.22-1.03.56-1.66,2.1-2.82,1.25-.94,5.05-3.83,10.19-2.96,1.68.29,4.41,1.18,7.1,2.25h0c.1.03.2.06.29.11l.13.06c2.33.93,4.59,1.96,6.09,2.8.43.24.97.1,1.28-.28.46-.56.96-.91,1.51-1.23.21-.13.38-.23.54-.37.51-.43.5-1.33-.09-1.63-7.16-3.68-13.88-5.74-16.12-6.37h0Zm-51.41,1.66c-1.67,7.31-12.98,15.33-18.12,15.33h-.1c-.08,0-.17-.01-.27-.03-.1-.02-.2-.04-.31-.07l-.17-.05c-.93-.29-2.22-1.01-3.2-1.97-.67-.66-1.2-1.44-1.37-2.28l-.09-.44c-.28-1.24-.63-2.79.47-5.33.15-.34.29-.66.41-.95.04-.1.08-.19.12-.29.11-.28.22-.53.31-.76.16-.39.28-.71.39-1l.11-.31c.31-.88.35-1.21.4-1.55.04-.27.08-.59.19-1.06.32-1.37.49-2.53.64-3.56.26-1.86.49-3.47,1.5-4.94.17-.25.36-.48.57-.68.07-.07.15-.14.22-.2.08-.07.16-.13.23-.18.24-.17.51-.32.79-.45.1-.04.19-.08.29-.12.2-.07.41-.14.63-.19.92-.22,2.01-.26,3.26-.1,1.37.11,2.63.37,3.75.68.94.26,1.77.56,2.48.84.07.03.15.05.21.08.14.05.27.11.4.17.19.08.37.16.54.23.22.1.42.19.6.27l.17.08c.79.36,1.47.76,2.05,1.17.29.21.55.42.79.64.08.07.16.15.23.22.08.07.15.15.22.22,2.17,2.29,2.07,4.93,1.69,6.57v.02Zm5.24-27.68l-.22,1.32c-.51,2.99-1.67,7.08-5.97,8.13-4.13,1.01-5.11,1.22-8.06,1.36-.07,0-.14,0-.2,0-2.15,0-6.28-1.35-7.01-4.72-.47-2.17.49-3.74,2.06-6.34.26-.43.55-.89.85-1.41,2.08-3.51,2.9-6.04,3.56-8.08.64-1.99,1.18-3.63,2.55-5,.32-.32.68-.61,1.09-.9.27-.18.55-.34.84-.5.39-.19.8-.36,1.23-.5.96-.31,1.99-.46,3.02-.46,2.01,0,4.01.58,5.43,1.72.64.52,1.56,1.54,2.08,4.58.27,1.56-.19,4.43-1.27,10.79h0Zm30.65,8.49c-1.48,2.54-2.29,3.93-3.56,4.99-2.54,2.08-5.49,2.61-7.93,2.61-1.75,0-3.24-.27-4.11-.43-2.52-.46-7.2-1.31-8.76-5.01-.31-.73-.31-1.19-.31-1.78s0-1.56-.27-3.89l-.02-.16c-.13-1.05-.26-2.25.04-3.77l.04-.18c.88-4.49,1.12-5.17,1.32-5.56.46-.88,1.54-1.23,2.42-.78.85.44,1.21,1.48.81,2.35-.09.26-.34,1.21-1.02,4.68l-.04.18c-.19.98-.11,1.72,0,2.66l.02.16c.29,2.53.29,3.67.29,4.29v.3l.02.09c.26.62.82,1.11,1.51,1.49.59.33,1.23-.25,1.1-.92-.75-3.89-.67-8.36.81-11.15.49-.95,1.41-2.5,2.28-3.94h0s.02-.02.02-.02l.26-.44.21-.36c.39-.64.75-1.22,1.03-1.68l.11-.19.08-.13.17-.28.07-.11.03-.04.08-.13.1-.16h0s.02-.04.02-.04h0c.22-.32.43-.63.64-.91.47-.65-.08-1.48-.81-1.15-1.26.57-2.1,1.21-2.29,1.36-.78.62-1.91.49-2.52-.29s-.49-1.91.29-2.53c.93-.73,5.83-4.3,11.7-2.63,4.23,1.2,6.45,4.43,7.28,5.65.67.98,2.74,3.98,2.67,8.16-.05,3.19-1.38,5.49-3.8,9.66h.02Z" style="fill:#fff;"/><path d="m76.91,53.46c-.3.73-.66,1.63-1.05,2.61-.9,2.27-1.93,4.84-2.42,5.77-.85,1.61-1.51,2.63-2.04,3.44-.6.94-1.08,1.68-1.45,2.72-.64,1.81-.75,3.84-.34,6.05-1.13-.13-2.96-.9-3.17-1.88-.16-.73.3-1.52,1.63-3.71.27-.44.55-.91.86-1.44,2.29-3.85,3.21-6.72,3.89-8.81.73-2.28,1.08-3.24,2.25-4.03.52-.36,1.16-.59,1.82-.72h0Z" style="fill:#fff;"/><path d="m74.68,134.22c-1.25,2.55-2.8,4.89-3.76,6.06-.8-2.16-2.19-7.12-1.82-11.11.01-.11.02-.23.04-.34.15-1.23.47-2.36,1.06-3.27.39-.59,1.45-.96,2.66-.96.89,0,1.86.2,2.7.64h0c.45.24,1.06.72,1.12,2.13.09,1.9-.81,4.45-1.99,6.85h0Z" style="fill:#fff;"/><path d="m142.96,105.7c.1.08.16.19.1.31-.37.75-.82,1.27-1.34,1.89-.64.76-1.37,1.62-2.04,2.95-.96,1.9-1.27,3.63-1.43,8.06-.19,5.21.01,8.13.16,10.27.15,2.06.23,3.3-.14,5.31-.74,4.05-2.48,6.74-4.67,10.13-2.75,4.25-5.59,8.64-10.3,10.04-.44.14-.45.14-1.68.14-1.07,0-2.84,0-6.21.13-6.15.22-9.23.33-11.87.84-2.77.54-4.21,1.13-5.61,1.69-1.26.51-2.46,1-4.75,1.47-1.37.28-3.4.58-10.35.58-7.22.02-11.58.02-17.34-.64-7.9-.9-11.86-1.35-14.5-2.76-6.21-3.31-8.83-9.27-13.17-19.14l-.02-.05c-.05-.13.09-.24.21-.17.2.13.42.23.65.31.19.07.39.12.59.15.4.07.81.07,1.23,0,.07-.02.14-.03.2-.06l.04-.02c.07-.04.17,0,.2.07.28.76.71,1.44,1.45,1.83.74.39,1.57.42,2.4.41.84-.02,1.7-.06,2.54-.16.45-.05.9.17,1.07.58.77,1.87,1.72,3.23,3.16,3.42.08.01.18.02.31.02.28,0,.69-.07,1.25-.4.69-.41,1.74-.15,2.26.46.31.36.65.64.95.88,1.48,1.52,5.07,2.25,8.09,2.25,1.65,0,3.12-.21,3.99-.64,1.24-.6,1.24-1.53,1.18-1.9-.1-.67-.2-1.33-.28-2-.01-.08.11-.11.14-.04.18.39.4.89.99.98.06,0,.14.02.21.02.84,0,2.15.27,2.38,1.08.11.41.28.8.5,1.15.51.8,1.53,1.75,3.57,1.79h.16c2.34,0,4.14-.77,5.36-2.28.08-.1.16-.2.23-.3.44-.61,1.74-.64,2.29-.13.63.58,1.41.88,2.29.88.14,0,.28,0,.43-.02,1.05-.11,1.95-.67,2.63-1.61.44-.62.77-1.38,1-2.2.07-.24.4-.31.59-.15.45.41,1.17.85,2.2.85.25,0,.53-.03.81-.09,2.03-.41,3.04-2.09,3.52-3.99.02-.06.11-.08.15-.03.52.63,1.46,1.35,3.12,1.35h.26c.88-.04,1.61-.42,2.15-1.11.63-.81.89-2.01.95-3.22.03-.45.31-.84.72-1.02,1.72-.75,3.75-2.27,4.35-3.31v-.02c.2-.33.49-.59.86-.67,1.28-.25,1.85-.49,2.37-.72.44-.19.79-.34,1.77-.49,7.81-1.19,9.34-1.45,11.03-2.58,2.53-1.69,2.66-4.01,2.78-6.25.11-1.9.23-4.05,1.7-6.58.54-.92,1.16-2.07,1.81-3.29,1.13-2.08,2.68-4.99,3.83-6.58.26-.36.73-.47,1.15-.3,2.65,1.13,4.89,2.25,5.37,2.64h-.02Z" style="fill:#fff;"/><path d="m67.11,128.92c-.31,2.7-.5,6.31-.06,11.01.13,1.32.3,2.7.51,4.1-.37.2-1.47.48-3.44.45-2.82-.06-5.58-.77-6.4-1.66l-.13-.11c-.69-.55-1.14-.92-1.2-1.9-.02-.33.12-.66.43-1.13.17-.26.39-.56.67-.94.47-.64,1.06-1.43,1.67-2.45,1.77-2.99,2.44-3.91,3.29-5.08.07-.09.14-.19.21-.29.5-.69,1.09-1.51,1.97-2.86.66-1,1.21-1.79,1.66-2.4.76-1.03,1.25-1.58,1.56-1.89-.05.46-.15,1.12-.25,1.72-.15.93-.34,2.06-.49,3.43h0Z" style="fill:#fff;"/><path d="m65.81,86.95l-.05.07c-.37.51-.79,1.08-1.29,2.2-1.35,2.99-1.37,4.69-1.39,6.05-.02.71-.02,1.28-.21,1.95-.14.44-.35.94-.6,1.52-.79,1.82-1.83,4.2-1.37,7.41-.64-.31-1.63-1.02-1.76-1.39-.03-.18-.07-.35-.11-.52-.22-1-.37-1.65.27-3.12,1.67-3.86,1.88-4.77,2.01-5.83.03-.23.05-.41.12-.7.35-1.52.54-2.82.69-3.87.22-1.59.38-2.64.91-3.43.19-.29.75-.44,1.54-.44.31,0,.67.02,1.05.08h.09l.12.02h-.01Z" style="fill:#fff;"/><path d="m63.61,125.01c-.09-.93-.25-1.85-.59-2.73-.02-.04-.13-.27-.15-.31-.06-.11-.13-.21-.2-.33h0v-.02l-.11-.12c-.05-.05-.11-.11-.17-.16l-.03-.03s-.07-.05-.11-.08l-.21-.11-.12-.05h0l-.03-.02h-.02s-.02-.01-.02-.01h0s-.05-.03-.05-.03c-.54-.2-1.08-.41-1.66-.5h-.03c-.06,0-.2-.02-.2-.02h-.42l-.02.02h0c-.13.04-.26.07-.39.11-.05.03-.11.05-.17.09-.05.03-.09.06-.14.08h-.02s-.01.02-.01.02l-.19.18-.12.14-.02.02h0v.02h-.02l-.04.07c-.21.34-.43.67-.66,1-.52.79-1.05,1.58-1.59,2.37-.49.71-.98,1.42-1.47,2.13l-.81,1.19-.14.2c.32.06.64.13.96.18.72.13,1.44.26,2.18.36,1.51.2,3.05.3,4.58.24.07,0,.15,0,.21.01.37-.53.8-1.15,1.35-1.99.31-.47.6-.9.88-1.3-.13-.19-.2-.42-.23-.66h0Z" style="fill:#fff;"/><path d="m58.23,131.25c-.13,1.17-1.43,4.18-3.47,7.06-1.7,2.4-2.74,2.98-2.94,3-.82-.11-1.63-2.15-2.28-4.16-.26-.82-.49-1.63-.69-2.32-.44-1.54-.52-3.59-.44-4.88,1.72.95,4.73,1.21,8.97,1.22h.01c.28.03.56.06.83.08h.01Z" style="fill:#fff;"/><path d="m55.22,121.67h0l-.06.09c-.73,1.07-1.46,2.14-2.19,3.2-.38.55-.76,1.1-1.13,1.65-.2.3-.48.63-.72.98-.6-.14-1.2-.28-1.8-.45-.49-.14-.97-.29-1.44-.48-.09-.03-.19-.07-.27-.11-.08-.16-.19-.3-.32-.41v-.02c.18-.35.35-.7.53-1.05.33-.64.65-1.28,1.02-1.9.65-1.12,1.43-2.26,2.52-2.98.05-.04.11-.08.17-.11.42-.27.85-.45,1.37-.52.06,0,.43,0,.6.01h.07l.07.03c.13.04.26.07.39.11l.13.06c.11.07.22.13.33.21-.17-.13.23.29.23.26.32.45.42.82.51,1.43h0Z" style="fill:#fff;"/><path d="m49.45,118.62c-1.35,1.11-2.33,2.58-3.14,4.12-.46.85-.87,1.72-1.3,2.58-.04.09-.09.17-.14.26-.41-.09-.81-.2-1.21-.33-.42-.14-.84-.29-1.25-.48-.19-.09-.37-.18-.56-.28.4-.77.89-1.5,1.34-2.21.65-1.01,1.35-2,2.11-2.93.29-.35.59-.74.99-.97.41-.24.91-.19,1.38-.16.5.03,1.03.04,1.51.23.1.04.2.1.28.16Z" style="fill:#fff;"/><path d="m47.31,136.7c-.07.06-.13.12-.18.19l-.13.03c-.32.03-.65.06-.98.08-.63.04-1.26.07-1.9.05-.35-.02-.67-.07-.82-.29-.23-.35-.3-.97-.39-1.44-.41-2.3-.47-4.69-.18-7.02,1.2.43,2.44.77,3.7.97-.27,2.1.19,5.18.46,6.12.13.44.26.88.39,1.32h0Z" style="fill:#fff;"/><path d="m43.44,117.86c-1.06,1.31-2.03,2.7-2.9,4.14-.35.59-.75,1.19-1.04,1.82-.42-.12-.8-.29-1.2-.54-.31-.19-.61-.4-.9-.63-.07-.06-.28-.22-.4-.32l-.09-.06c.1-.28.28-.58.38-.79.22-.49.47-.97.73-1.43.5-.88,1.05-1.73,1.67-2.52.23-.29.45-.66.81-.77.33-.09.77-.05,1.03,0,.79.15,1.4.51,1.92,1.1h0Z" style="fill:#fff;"/><path d="m35.24,123.55c.02-.07.1-.08.15-.02.28.39.66.72,1.07,1.04.18.14.36.28.55.41.03.02.04.06.04.09-.43,1.78-.72,3.66-.73,5.52,0,.1-.16.13-.18.03-.53-2.22-1.22-5.77-.89-7.07h0Z" style="fill:#fff;"/><path d="m40.46,127.5c-.21,1.59-.32,3.18-.25,4.78.03.88.13,1.75.24,2.62v.02h0c-.19-.04-.39-.05-.59-.02.04-.01-.06,0-.11,0h-.1c-.22-.06-.24-.09-.42-.2-.23-.15-.47-.42-.63-.69-.43-.74-.52-1.64-.56-2.48-.06-1.65.08-3.29.39-4.9.26.11.49.2.87.37.38.17.77.33,1.15.5h.01Z" style="fill:#fff;"/><g style="opacity:.8;"><path d="m82.48,210.64c-7.25,0-14.13-.46-19.9-.91l-1.59-.13-1.59-.22c-.69-.1-1.64-.2-2.55-.3-5.55-.6-15.88-1.73-27.27-7.08l-1.77-.83-1.65-.93c-21.91-12.28-30.1-30.76-34.52-40.69-.28-.63-.62-1.4-.94-2.11-2.23-4.56-3.64-8.67-4.83-12.44l-.27-.84-.22-.82c-3.18-11.3-3.99-21.06-2.53-30.71,1.46-9.69,5.05-18.5,11.29-27.73l3.23-5.28c.66-1.07,1.12-2.24,1.37-3.47,2.46-12.21,8.06-20.87,10.81-25.01.76-5,2.01-9.92,3.73-14.68l.26-.72.28-.7c.04-.13.1-.3.21-.61,1.23-3.72,4.13-12.42,11.54-21.56l2.78-3.37,2.83-2.56c7.28-6.62,15.97-11.52,25.4-14.34,5.27-1.57,10.7-2.53,16.18-2.86l.53-.04.8-.04c.95-.04,1.9-.07,2.82-.07,3.42,0,6.84.28,10.21.86,2.11.35,4.27.11,6.25-.71,5.85-2.44,11.99-4.09,18.28-4.91.53-.07.98-.13,1.34-.18.99-.13,2.57-.31,4.47-.49,3.32-.32,8.41-.69,13.92-.69,10.78,0,20.04,1.4,28.35,4.27l.7.24.69.26c18.32,6.92,27.65,16.6,34.35,25.13l.32.41.92.82c6.06,4.74,11.21,10.54,15.21,17.11l1.25,2.06,1.06,2.16c8.96,18.29,6.11,35.18,5.04,41.53l-.06.34c-.77,4.68-2,9.27-3.67,13.72-.61,4.28-1.62,8.5-3.01,12.6-2.38,7.28-5.89,14.15-10.4,20.34-2.6,3.67-5.53,7.1-8.76,10.23-1.14,1.1-1.88,2.56-2.11,4.13-.14.97-.3,1.93-.48,2.88-2.63,14.09-8.79,23.9-11.31,27.8l-7.61,10.92c-9.16,11.41-20.02,18.94-33.18,22.98l-3.19,1-3.44.6c-3.93.69-7.93,1.04-11.92,1.03-.55,0-1.1,0-1.72-.02h-.18l-.68.04-.73.03h-.02c-1.52.05-3.03.3-4.49.74-8.49,2.6-18.1,3.82-29.85,3.82h.01Z" style="fill:none; stroke:url(#d); stroke-miterlimit:10; stroke-width:.26px;"/><path d="m82.48,203.14c-6.95,0-13.61-.44-19.21-.89l-1.33-.1-1.33-.18c-.83-.11-1.84-.22-2.81-.33-5.39-.59-14.41-1.57-24.47-6.28l-1.48-.69-1.38-.77C11.14,183.04,3.99,166.94-.29,157.32c-.31-.69-.68-1.53-1.03-2.29-1.99-4.09-3.3-7.86-4.4-11.33l-.22-.7-.19-.68c-2.83-10.05-3.56-18.63-2.3-27,1.26-8.37,4.44-16.1,9.98-24.26l4.14-6.76c.73-1.2,1.23-2.52,1.48-3.91,2.06-11.49,7.49-19.64,9.96-23.35l.31-.47.11-.19c.05-.11.1-.22.15-.34.15-.49.3-.96.44-1.41.65-4.72,1.79-9.35,3.42-13.82l.22-.6.23-.6c.07-.19.15-.4.35-1.03,1.17-3.54,3.62-10.89,10.01-18.78l2.32-2.81,2.36-2.13c6.32-5.74,13.84-9.99,22.02-12.43,4.64-1.38,9.43-2.22,14.27-2.51l.44-.04.66-.03c.81-.04,1.62-.06,2.4-.06,3.47,0,6.93-1.01,10.33-.31,2.62.54,5.35.25,7.79-.83,4.57-2.02,10.73-2.82,17.79-3.7.5-.07.94-.13,1.28-.17.93-.12,2.41-.29,4.2-.46,3.12-.3,7.92-.66,13.08-.66,9.77,0,18.1,1.23,25.46,3.78l.59.2.57.22c16.24,6.14,24.27,14.35,30.52,22.31.35.44.7.9.84,1.05l.15.13,1.18,1.06.16.16c5.4,4.14,9.99,9.24,13.52,15.06l1.04,1.71.89,1.8c7.71,15.74,5.29,30.05,4.26,36.16l-.06.32c-.73,4.44-1.93,8.8-3.57,12.98-.52,4.08-1.44,8.09-2.77,11.98-2.11,6.45-5.21,12.52-9.2,18-2.7,3.84-5.83,7.37-9.31,10.51-1.62,1.45-2.64,3.45-2.87,5.62-.17,1.59-.4,3.14-.68,4.66-2.32,12.44-7.73,21.04-10.21,24.89l-6.16,8.96c-8.19,10.52-17.89,17.4-29.64,21.02l-2.65.83-2.88.5c-3.43.6-6.91.91-10.4.9-.51,0-1.03,0-1.58-.02h-.48s-.11,0-.34.02l-.61.04-.61.02-1.22.05c-1.62.06-3.22.33-4.76.83-7.83,2.5-16.87,3.68-28.04,3.68h0v.02Z" style="fill:none; stroke:url(#e); stroke-miterlimit:10; stroke-width:.26px;"/><path d="m82.48,194.28c-6.64,0-13.09-.43-18.53-.85l-1.06-.08-1.06-.15c-.96-.14-2.04-.25-3.08-.36-5.15-.56-12.94-1.41-21.66-5.5l-1.18-.56-1.1-.62c-16.76-9.39-22.92-23.26-27-32.44-.35-.79-.74-1.67-1.1-2.49-1.77-3.6-2.95-7.03-3.96-10.21l-.18-.56-.16-.55C-.06,131.12-.72,123.72.35,116.64c1.08-7.18,3.9-13.87,8.87-21.06l.59-.85.64-.82c.4-.52.79-1.02,1.17-1.52l2.49-4.57c.82-1.5,1.37-3.12,1.63-4.8,1.58-10.25,6.52-17.66,8.8-21.07v-.02c.14-.19.31-.44.4-.58l.48-.78c.19-.42.44-.97.66-1.55.22-.69.48-1.55.77-2.43.54-4.37,1.57-8.66,3.08-12.79l.17-.48.19-.48c.16-.41.28-.76.51-1.45,1.09-3.28,3.11-9.36,8.49-16l1.86-2.25,1.88-1.7c5.35-4.86,11.72-8.46,18.64-10.53,4.02-1.19,8.16-1.92,12.35-2.16l.35-.03.54-.03c.66-.03,1.33-.05,1.99-.05,3.6,0,7.18.45,10.67,1.35,3.02.76,6.2.43,8.99-.95,4.47-2.17,10.43-4.47,17.43-5.33.48-.07.89-.12,1.21-.16.87-.11,2.26-.27,3.93-.44,2.93-.28,7.43-.61,12.24-.61,8.77,0,16.15,1.08,22.57,3.29l.47.16.46.17c14.91,5.64,21.59,13.02,26.68,19.5,1.12,1.43,1.29,1.65,2.06,2.33l.95.84.37.38c2.45,1.9,7.47,5.81,11.86,13.05l.83,1.37.7,1.44c6.46,13.18,4.45,25.08,3.48,30.79l-.05.32c-.69,4.19-1.86,8.3-3.48,12.22l-.04.36c-.43,3.76-1.26,7.46-2.47,11.04-1.83,5.61-4.53,10.89-8,15.66-2.91,4.16-6.4,7.89-10.37,11.05-.94.75-1.72,1.69-2.27,2.77-.55,1.07-.86,2.25-.92,3.45-.11,2.37-.38,4.72-.81,7.04-2.01,10.79-6.71,18.26-9.12,21.99l-4.77,7.06c-7.2,9.61-15.73,15.83-26.04,18.99l-2.12.66-2.29.4c-2.93.52-5.91.78-8.89.77-.46,0-.93,0-1.44-.02h-.63c-.09,0-.35,0-.89.03l-.48.03-.47.02-2.46.09c-1.72.06-3.43.36-5.06.91-7.16,2.41-15.62,3.55-26.26,3.55h0v.02Z" style="fill:none; stroke:url(#f); stroke-miterlimit:10; stroke-width:.25px;"/><path d="m82.47,185.44c-6.34,0-12.58-.42-17.84-.83l-.79-.06-.79-.11c-1.09-.15-2.23-.28-3.34-.4-4.85-.53-11.47-1.25-18.86-4.72l-.89-.42-.82-.46c-14.2-7.97-19.42-19.72-23.23-28.3-.4-.89-.81-1.82-1.21-2.71-1.62-3.26-2.66-6.39-3.51-9.07l-.13-.42-.11-.41c-4.15-14.75-2.59-25.1,5.56-36.91l.44-.64.48-.61c.54-.69,1.05-1.36,1.55-1.99.75-.98,1.51-1.99,2.34-3.02.52-.65.93-1.36,1.23-2.13l.94-2.39c.4-1.02.65-2.08.74-3.17.81-9.46,5.41-16.36,7.7-19.78l.02-.02c.17-.25.42-.63.5-.76l.53-.85.16-.22c.28-.57.84-1.78,1.33-3.05.27-.86.68-2.2,1.09-3.41,0-.05,0-.1.02-.15.44-3.97,1.35-7.86,2.72-11.61l.13-.36.14-.36c.25-.63.42-1.16.66-1.89.97-2.92,2.6-7.82,6.97-13.2l1.4-1.69,1.4-1.27c10.31-9.35,21.84-10.16,25.69-10.42l.27-.02.41-.02c.53-.03,1.05-.04,1.56-.04,4.57.02,9.1.94,13.32,2.73.75.31,1.55.45,2.36.41.81-.04,1.59-.26,2.31-.64h.02c3.92-2.27,11.1-6.39,20.25-7.49.44-.07.85-.12,1.15-.16.81-.1,2.09-.25,3.67-.41,2.74-.26,6.94-.57,11.4-.57,7.77,0,14.21.92,19.67,2.81l.35.12.34.13c12.78,4.83,18.29,10.89,22.84,16.68,1.22,1.55,1.77,2.27,3.14,3.48l.71.64.57.59.44.35c2.17,1.68,6.2,4.8,9.77,10.68l.63,1.03.53,1.08c5.2,10.62,3.57,20.25,2.7,25.43l-.05.31c-.61,3.76-1.69,7.44-3.19,10.94l-.13.3-.06.3c-.07.35-.11.64-.16,1l-.05.41c-.35,3.17-1.05,6.3-2.08,9.32-1.55,4.77-3.84,9.26-6.79,13.32-2.92,4.15-6.2,7.52-9.87,10.2-1.62,1.18-2.93,2.71-3.85,4.49s-1.41,3.74-1.44,5.74c-.03,2.49-.28,4.98-.73,7.42-1.69,9.13-5.59,15.32-8.02,19.09l-3.47,5.2c-6.21,8.68-13.54,14.22-22.36,16.92l-.47.15c-.75.23-1.51.42-2.29.55l-.56.1c-2.43.43-4.9.65-7.37.64-.42,0-.84,0-1.3-.01h-.77c-.17,0-.63,0-1.45.05l-.36.02-.35.02c-1.18.05-2.66.09-3.97.15-1.8.07-3.57.42-5.27,1.03-6.35,2.27-14.12,3.35-24.19,3.35h-.02Z" style="fill:none; stroke:url(#g); stroke-miterlimit:10; stroke-width:.23px;"/><path d="m82.48,176.58c-6.04,0-12.06-.41-17.16-.8l-.53-.04-.53-.07c-1.22-.17-2.43-.3-3.61-.43-4.45-.48-9.99-1.09-16.05-3.93l-.59-.28-.55-.31c-11.63-6.52-15.98-16.31-19.47-24.18-.43-.97-.89-1.97-1.33-2.94-1.37-2.73-2.3-5.53-3.06-7.93l-.09-.28-.08-.27c-3.42-12.17-2.29-19.89,4.33-29.48l.29-.43.32-.41c.58-.74,1.1-1.43,1.61-2.09,1.73-2.27,3.39-4.45,5.87-7.1.55-.58.87-1.33.92-2.13l.19-2.87-.07-.94.03-.97c.26-7.85,4.2-13.76,6.32-16.93.24-.36.5-.75.65-.98l.35-.57.33-.44c.4-.65,1.43-2.84,2.21-4.94.27-.89.79-2.57,1.25-3.91.14-.43.15-.53.26-1.45.36-3.31,1.12-6.57,2.27-9.7l.09-.24.09-.24c.33-.84.56-1.52.82-2.31.83-2.51,2.09-6.29,5.44-10.42l.93-1.13.92-.84c7.22-6.55,15.08-7.79,20.39-8.15l.18-.02h.28c.39-.02.77-.03,1.15-.03,4.53,0,9.96,2.17,12.8,3.49.68.31,1.42.49,2.17.52.75.03,1.5-.09,2.2-.36,1.77-.64,3.5-1.4,5.17-2.28,3.62-2.1,9.63-5.58,17.1-6.45.41-.06.78-.11,1.09-.15.75-.09,1.93-.22,3.4-.38,2.54-.24,6.44-.53,10.56-.53,6.77,0,12.26.76,16.78,2.32l.23.08.22.09c10.68,4.03,14.92,8.67,19.01,13.87,1.33,1.68,2.27,2.88,4.22,4.62l.47.42.44.44c.4.4.83.76,1.28,1.08,1.83,1.42,4.9,3.79,7.63,8.28l.42.69.35.72c3.94,8.06,2.68,15.57,1.92,20.06l-.05.31c-.51,3.1-1.39,6.12-2.63,9.01v.02c-.34.75-.58,1.54-.7,2.35-.1.57-.17,1.02-.23,1.53l-.05.41c-.29,2.59-.85,5.14-1.69,7.61-1.26,3.93-3.15,7.64-5.6,10.97-3.61,5.14-7.77,8.76-12.8,11.06-1.22.56-2.26,1.44-3.01,2.55-.75,1.11-1.18,2.41-1.23,3.75-.03.55-.03,1-.02,1.25.25,3.87.53,8.25-.33,12.77-1.38,7.47-4.55,12.49-6.92,16.18,0,0-10.91,15.19-20.84,18.22l-1.07.33-1.15.2c-1.93.34-3.89.51-5.86.51-.37,0-.75,0-1.16-.01h-.91c-.39,0-1.03,0-2.01.07l-.24.02h-.24c-3.8.14-7.39.27-8.39.46-.54.08-1.05.23-1.55.45-5.62,2.46-12.99,3.62-23.16,3.62h-.02Z" style="fill:none; stroke:url(#h); stroke-miterlimit:10; stroke-width:.21px;"/><path d="m82.47,167.74c-5.74,0-11.55-.39-16.48-.78l-.27-.02-.27-.04c-1.35-.19-2.63-.33-3.87-.46-4.19-.45-8.52-.93-13.25-3.14l-.3-.14-.28-.15c-9.07-5.09-12.44-12.69-15.71-20.05-.46-1.04-.94-2.13-1.44-3.2-1.1-2.19-1.89-4.53-2.59-6.75l-.05-.14-.04-.14c-2.73-9.69-2.03-14.63,3.1-22.05l.15-.22.16-.2c.6-.77,1.15-1.48,1.67-2.18,2.46-3.23,4.6-6.03,9.37-10.44l.02-.02c.35-.33.59-.76.71-1.23s.08-.96-.08-1.42l-.86-2.45c-.17-.77-.29-1.56-.36-2.35v-.03l-.05-.66.02-.48c.18-5.33,2.98-9.53,4.83-12.31.29-.44.57-.85.78-1.19l.18-.28.2-.27c.98-1.33,2.58-5,3.42-7.28.22-.7.79-2.58,1.26-3.95.33-1.03.55-2.09.65-3.16.28-2.66.89-5.28,1.82-7.79l.05-.13.05-.12c.41-1.05.7-1.91.97-2.75.74-2.23,1.58-4.76,3.91-7.63l.47-.57.46-.41c5.13-4.66,10.75-5.6,15.09-5.89h.23c.24,0,.48-.02.73-.02,4.22,0,7.46,1.73,9.61,2.88l.5.27.07.04c.59.32,1.1.6,1.58.83,1.33.67,2.87.83,4.31.44,2.94-.79,7.52-2.53,10.61-4.23l.06-.04c3.25-1.88,8.13-4.72,13.85-5.34.36-.06.7-.1,1.03-.14.66-.08,1.77-.22,3.12-.34,2.36-.22,5.95-.5,9.72-.5,5.77,0,10.31.6,13.89,1.83l.11.04.12.05c8.57,3.24,11.69,6.62,15.17,11.06,1.42,1.8,2.76,3.51,5.29,5.77l.23.22.22.22c.69.69,1.43,1.33,2.21,1.91,1.52,1.18,3.61,2.79,5.48,5.88l.21.34.18.36c2.69,5.5,1.8,10.81,1.14,14.69l-.05.31c-.39,2.45-1.09,4.84-2.08,7.11-.58,1.31-.99,2.68-1.22,4.1-.16.82-.24,1.46-.32,2.05l-.05.42c-.21,2.01-.65,3.98-1.29,5.89-.98,3.1-2.46,6.01-4.39,8.63-3.25,4.67-6.86,7.54-11.65,9.07-2.29.72-4.27,2.22-5.59,4.24l-.38.58-.42.48c-1.21,1.39-.88,6.75-.66,9.96.22,3.52.46,7.15-.2,10.57-1.08,5.85-3.58,9.8-5.83,13.28,0,0-8.33,12.02-15.85,14.3l-.55.17-.57.1c-1.43.26-2.89.38-4.34.38h-2.07c-.51,0-1.33,0-2.57.09h-.24c-5.04.18-8.09.29-9.76.62-1.13.2-2.24.53-3.29.98-4.5,2-10.79,2.93-19.76,2.93h.02Z" style="fill:none; stroke:url(#i); stroke-miterlimit:10; stroke-width:.21px;"/></g></g></g><g id="j"><circle cx="161.73" cy="134.82" r="27"/><path d="m164.14,131.55l12.64-12.64-4.79-4.79-10.24,10.24-10.24-10.24-4.79,4.79,12.63,12.64c.66.66,1.53.99,2.4.99s1.73-.33,2.4-.99Zm18.29,13.5l-10.24-10.24,10.24-10.24-4.79-4.79-12.63,12.64c-1.32,1.32-1.32,3.47,0,4.79l12.63,12.64,4.79-4.79h0Zm-20.7.23l10.24,10.24,4.79-4.79-12.63-12.64c-1.32-1.32-3.47-1.32-4.79,0l-12.63,12.64,4.79,4.79,10.24-10.24h0Zm-3.26-8.05c.64-.64.99-1.5.99-2.4s-.36-1.76-.99-2.4l-12.63-12.64-4.79,4.79,10.24,10.24-10.24,10.24,4.79,4.79,12.63-12.64h0Z" style="fill:#fff;"/></g></svg>