<svg xmlns="http://www.w3.org/2000/svg" viewBox="0 0 200 200">
  <defs>
    <linearGradient id="a" x1="2542.4" x2="2542.2" y1="6989.6" y2="6989.4" gradientTransform="matrix(776 0 0 -776 -1972732.8 5423971.1)" gradientUnits="userSpaceOnUse">
      <stop offset="0" stop-color="#b6509e"/>
      <stop offset="1" stop-color="#2ebac6"/>
    </linearGradient>
  </defs>
  <circle cx="100" cy="100" r="99" fill="url(#a)"/>
  <path fill="#fff" d="m143.3 139.6-33.4-81.3c-2-4.2-4.7-6.2-8.3-6.2h-3.2c-3.6 0-6.2 2-8.3 6.2L75.5 93.7h-11c-3 0-5.7 2.7-6.2 6.3 0 3.1 2.6 5.7 6.3 6.3h5.7l-14 33.3c0 .5-.6 1.6-.6 2 0 2.2.5 3.2 1.6 4.8s2.6 1.5 4.7 1.5c1 0 2.6-.5 3.6-1s1.6-1.6 2.6-3.1l15.1-38h10.4c3.2 0 5.8-2.7 6.3-6.3 0-3.2-2.6-5.8-6.3-6.3H88L99.5 64l31.8 79.2a14 14 0 0 0 2.6 3.2 7.3 7.3 0 0 0 8.3-.6c1.6-1.1 1.6-2.6 1.6-4.6 0 0 0-1-.6-1.6Z"/>
  <circle cx="161.7" cy="134.8" r="27"/>
  <path fill="#fff" d="m164.1 131.6 12.7-12.7-4.8-4.8-10.3 10.3-10.2-10.3-4.8 4.8 12.6 12.7a3.4 3.4 0 0 0 4.8 0Zm18.3 13.5-10.2-10.3 10.2-10.2-4.8-4.8-12.6 12.6a3.4 3.4 0 0 0 0 4.8l12.6 12.7 4.8-4.8Zm-20.7.2 10.3 10.2 4.8-4.8-12.7-12.6a3.4 3.4 0 0 0-4.8 0l-12.6 12.6 4.8 4.8 10.2-10.2Zm-3.2-8a3.4 3.4 0 0 0 0-4.9l-12.7-12.6-4.8 4.8 10.3 10.2-10.2 10.3 4.7 4.8 12.7-12.7Z"/>
</svg>
