<?xml version="1.0" encoding="UTF-8"?><svg xmlns="http://www.w3.org/2000/svg" xmlns:xlink="http://www.w3.org/1999/xlink" viewBox="0 0 200 200"><defs><linearGradient id="c" x1="2542.41" y1="6989.6" x2="2542.22" y2="6989.45" gradientTransform="translate(-1972732.75 5423971.11) scale(776 -776)" gradientUnits="userSpaceOnUse"><stop offset="0" stop-color="#b6509e"/><stop offset="1" stop-color="#2ebac6"/></linearGradient></defs><g id="a"><g id="b"><circle cx="100" cy="100" r="99" style="fill:url(#c);"/><path d="m143.25,139.6l-33.35-81.28c-2.08-4.17-4.69-6.25-8.34-6.25h-3.13c-3.65,0-6.25,2.08-8.34,6.25l-14.59,35.43h-10.94c-3.13,0-5.73,2.61-6.25,6.25h0c0,3.13,2.61,5.73,6.25,6.25h5.73l-14.07,33.35c0,.52-.52,1.56-.52,2.08,0,2.08.52,3.13,1.56,4.69s2.61,1.56,4.69,1.56c1.04,0,2.61-.52,3.65-1.04s1.56-1.56,2.61-3.13l15.11-38.04h10.42c3.13,0,5.73-2.61,6.25-6.25h0c0-3.13-2.61-5.73-6.25-6.25h-5.73l11.46-29.18,31.78,79.2c.52,1.04,1.56,2.08,2.61,3.13,1.04.52,2.08,1.04,3.65,1.04,2.08,0,3.13-.52,4.69-1.56s1.56-2.61,1.56-4.69c0,0,0-1.04-.52-1.56h0Z" style="fill:#fff;"/></g></g><g id="d"><circle cx="161.73" cy="134.82" r="27"/><path d="m164.14,131.55l12.64-12.64-4.79-4.79-10.24,10.24-10.24-10.24-4.79,4.79,12.63,12.64c.66.66,1.53.99,2.4.99s1.73-.33,2.4-.99Zm18.29,13.5l-10.24-10.24,10.24-10.24-4.79-4.79-12.63,12.64c-1.32,1.32-1.32,3.47,0,4.79l12.63,12.64,4.79-4.79h0Zm-20.7.23l10.24,10.24,4.79-4.79-12.63-12.64c-1.32-1.32-3.47-1.32-4.79,0l-12.63,12.64,4.79,4.79,10.24-10.24h0Zm-3.26-8.05c.64-.64.99-1.5.99-2.4s-.36-1.76-.99-2.4l-12.63-12.64-4.79,4.79,10.24,10.24-10.24,10.24,4.79,4.79,12.63-12.64h0Z" style="fill:#fff;"/></g></svg>