<?xml version="1.0" encoding="UTF-8"?><svg xmlns="http://www.w3.org/2000/svg" viewBox="0 0 200 200"><g id="a"><path id="b" d="m100,1c54.67,0,99,44.33,99,99s-44.33,99-99,99S1,154.67,1,100,45.33,1,100,1h0Z" style="fill:#0055d5; fill-rule:evenodd;"/><path id="c" d="m54.86,66.5s-10.65-8.51-11.38,12.52c-.73,16.29-.71,47.94,6.83,62.89,3.19,5.62,7.45,3.9,15.37-1.7,6.89-5.09,31.82-28.06,42.37-38.14s31.96-38.99,36.41-19.35c1.76,8.26,3.94,15.27,2.28,33.58-.52,5.64-2.93,9.92-13.94,2.28-8.32-5.35-16.22-11.09-16.22-11.09,0,0-1.53-2.73-5.13,1.7-2.83,3.54-4.26,4.41.28,7.11,4.55,2.69,27.58,18.57,36.41,21.05,7.28,2.12,11.44,2.08,11.66-12.23-.04-11.36-.69-43.9-4.83-57.76-3.13-8.63-7.72-12.55-17.64-2.85-9.92,9.7-41.2,40.04-58.31,53.78-11.34,8.51-16.19,16.19-20.47,2-3.01-10.75-6.91-44.21,5.4-37.84,7.7,3.68,11.54,3.66,8.53,5.98-3.01,2.3-11.66,10.24-11.66,10.24,0,0-2.67,2.16-1.43,6.83,1.25,3.27,1.25,4.89,7.96-1.43s11.66-11.09,11.66-11.09c0,0,1.07-1.68,4.26,1.43s3.7,3.98,3.7,3.98c0,0,.85,2.32,4.26-1.7,3.42-4.02,5.62-6.48-.85-10.24-6.46-3.8-35.52-19.94-35.52-19.94h0Z" style="fill:#fff; fill-rule:evenodd;"/></g><g id="d"><circle cx="161.73" cy="134.82" r="27"/><path d="m164.14,131.55l12.64-12.64-4.79-4.79-10.24,10.24-10.24-10.24-4.79,4.79,12.63,12.64c.66.66,1.53.99,2.4.99s1.73-.33,2.4-.99Zm18.29,13.5l-10.24-10.24,10.24-10.24-4.79-4.79-12.63,12.64c-1.32,1.32-1.32,3.47,0,4.79l12.63,12.64,4.79-4.79h0Zm-20.7.23l10.24,10.24,4.79-4.79-12.63-12.64c-1.32-1.32-3.47-1.32-4.79,0l-12.63,12.64,4.79,4.79,10.24-10.24h0Zm-3.26-8.05c.64-.64.99-1.5.99-2.4s-.36-1.76-.99-2.4l-12.63-12.64-4.79,4.79,10.24,10.24-10.24,10.24,4.79,4.79,12.63-12.64h0Z" style="fill:#fff;"/></g></svg>