<svg xmlns="http://www.w3.org/2000/svg" xmlns:xlink="http://www.w3.org/1999/xlink" viewBox="0 0 200 200">
  <defs>
    <linearGradient id="a" x1="108.6" x2="334.3" y1="-13614.5" y2="-13377.6" gradientTransform="translate(-121 13594)" gradientUnits="userSpaceOnUse">
      <stop offset=".2" stop-color="#89d0ff"/>
      <stop offset=".4" stop-color="#ebbf9a"/>
      <stop offset=".6" stop-color="#eb8280"/>
      <stop offset=".8" stop-color="#a281ff"/>
    </linearGradient>
    <linearGradient id="d" x1="117.4" x2="325.5" y1="-13604.4" y2="-13385.1" gradientTransform="translate(-121 13594)" gradientUnits="userSpaceOnUse">
      <stop offset=".2" stop-color="#89d0ff"/>
      <stop offset=".4" stop-color="#ebbf9a"/>
      <stop offset=".6" stop-color="#eb80da"/>
      <stop offset=".8" stop-color="#a281ff"/>
    </linearGradient>
    <linearGradient xlink:href="#a" id="e" x1="126.3" x2="316.7" y1="-13595.5" y2="-13394"/>
    <linearGradient id="f" x1="135.2" x2="307.8" y1="-13586.7" y2="-13402.8" gradientTransform="translate(-121 13594)" gradientUnits="userSpaceOnUse">
      <stop offset=".2" stop-color="#89d0ff"/>
      <stop offset=".4" stop-color="#ebbf9a"/>
      <stop offset=".6" stop-color="#eb80e7"/>
      <stop offset=".8" stop-color="#a281ff"/>
    </linearGradient>
    <linearGradient id="g" x1="144" x2="299" y1="-13577.9" y2="-13411.7" gradientTransform="translate(-121 13594)" gradientUnits="userSpaceOnUse">
      <stop offset=".2" stop-color="#89d0ff"/>
      <stop offset=".4" stop-color="#ebbf9a"/>
      <stop offset=".6" stop-color="#eb80d3"/>
      <stop offset=".8" stop-color="#a281ff"/>
    </linearGradient>
    <linearGradient id="h" x1="152.9" x2="290.1" y1="-13569" y2="-13420.6" gradientTransform="translate(-121 13594)" gradientUnits="userSpaceOnUse">
      <stop offset=".2" stop-color="#89d0ff"/>
      <stop offset=".4" stop-color="#ebbf9a"/>
      <stop offset=".6" stop-color="#a280eb"/>
      <stop offset=".8" stop-color="#a281ff"/>
    </linearGradient>
    <radialGradient id="c" cx="3930.4" cy="-6910.6" r="1.4" fx="3930.4" fy="-6910.6" gradientTransform="rotate(90 -123670 -449768.7) scale(83)" gradientUnits="userSpaceOnUse">
      <stop offset=".2" stop-color="#073183"/>
      <stop offset="1" stop-color="#0054f9"/>
    </radialGradient>
    <clipPath id="b">
      <path fill="none" d="M100 1a99 99 0 0 1 0 198 99 99 0 0 1 0-198Z"/>
    </clipPath>
  </defs>
  <g clip-path="url(#b)">
    <path fill="url(#c)" d="M100 1a99 99 0 0 1 0 198 99 99 0 0 1 0-198Z"/>
    <path fill="#fff" d="M167.3 69.1c-.4 2.4-.9 3.6-1.4 5-.6 1.4-1.3 3.1-2 6.4l-.5 3.2c-.2 1.5-.3 2.4-.8 4-.5 1.4-1.2 3.6-3 6-1.5 2-4 5.3-7.3 5.7h-1.1a154 154 0 0 0-20.2-9.2c-3.2-1-2.8-8-2.4-14.2.1-2.8.3-5.4.1-7.6-.4-7.9-1.8-16.5-8.6-20.7a28 28 0 0 0-14.4-3.2c.9-.5 2-1 3-1.7h.1c3-1.8 6.7-4 10.3-4.3l3.5-.4c7.4-.8 13.8-1.5 20.5.8 3 1 9.3 4.5 10.9 7.7 1.1 2.3 3 4.1 6.9 7.7L165 58c1.4 1.1 1.7 1.4 2 2.2 1.3 2.5.9 5.2.2 8.9Zm-34.2 32.2c.6.2.8.9.5 1.3a93.7 93.7 0 0 0-5.2 9.2c-1.8 3.1-2 5.7-2 7.8-.2 2.2-.3 3.2-1.6 4.1-1.1.8-2.2 1-10 2.2-1.3.2-1.9.4-2.4.7h-.2c-.6.3-1.1-.2-1-.7v-8.1c-.2-2-.2-2.8.3-3.7.7-1 1.2-1.3 2-1.8 1.2-.8 2.7-1.8 5-5a8.2 8.2 0 0 0 1.8-3.4c0-.3 0-.4 1-1.2 1-.7 4.1-3 8-2.4 1.1.2 2.4.5 3.8 1Zm-30.4 35.6a1 1 0 0 1-.7.3c-.8 0-1.4-.2-1.7-.6-.8-1-.7-3-.5-4l3.2-1c.3 1.8.4 4.3-.3 5.3Zm.3-11.8-.2 1.6v2.4a6 6 0 0 1-3 .3v-2.7l.1-2 1-.1 2.1-.3v.8Zm-6 10.8c-.2 1.6-.7 3.7-2.3 4-.7.2-1 0-1.3-.2-1-1-1.2-4-1-6 .6 0 1.6-.2 2.7-.5.6 0 1.3-.2 1.8-.4v3Zm-.8-6-3.5 1.2.5-4.5c0-1 .3-1.2.3-1.3h.4l2.2-.2v4.8Zm-5.7-1.1-.6 3h-4.4c.2-1.4.6-2.8 1-4 .3-1 .7-1.9 1.1-2a2 2 0 0 1 2 .1c1 .8 1.3 1.8.9 2.9Zm-1.7 13.5c-.3.5-.7.7-1.2.8-.4 0-.8 0-1.1-.3-1.4-1.3-1.3-5.5-1.3-7.5a36 36 0 0 1 4.8-.9c.1 1.7.2 6-1.2 8ZM83 131.6l-.5 1.6c-.6.2-2.1 0-3.7-.3l1-7c1.9-.4 4-.6 4.5 0 .7.6-.7 4.2-1.3 5.7Zm-2 11.8c-.8 1-2.1 1.5-3.9 1.5-1.2 0-1.7-.5-2-.8-1-1.6 0-5.3 1-7.7l6 .4.2 1.4c0 1.7-.2 3.8-1.2 5.2Z"/>
    <path fill="#fff" d="M130.6 92.9c-5.4-1.6-5-9.5-4.5-17 .1-2.8.3-5.3.2-7.4-.4-7.1-1.7-15-7.4-18.4-6.2-3.8-16.3-3-22.5-2.1-2.3.7-4.4 1.1-6 1-3.8-.2-6.6-1.7-9.2-3-2-1.1-3.6-2-5.2-2h-.3c-4.8.2-7 1.4-9 3.2-.6.5-1.2 1.8-3.2 7.6-1 3-1.2 4.6-1.4 6.1-.2 1.5-.4 3-1.1 5.1l-1.3 4.1c-1 3.4-1.8 6-4.2 9.2l-1 1.5-2 3.1c-.7.9-2.1 4-2 5 0 1.6.6 2.6 1.2 3.7a10 10 0 0 1 1.3 4.2v.2c.2 2.8-.1 4.2-5.4 8.9a55 55 0 0 0-7.4 8c-.1.2 0 .5.3.5h1.1c1.2.1 2.5.6 3.4 1.6.1.1.4.2.6 0 .8-.3 1.8-.2 2.7-.1a5 5 0 0 1 2.8 1c.3.3.7.4 1 .4 1-.2 1.8-.2 2.6.1a4 4 0 0 1 1.5 1c.4.4 1.1.5 1.6.2l.6-.3c1.2-.4 2.4-.2 3.5.2l1.7.7c.8.6 1.3 1.4 1.6 2.2.3.7 1.2.9 1.8.5.7-.5 1.3-.6 1.9-.3.2 0 .4.2.5.4.4.5 1.1 1 1.7.8a8 8 0 0 1 5.4.7 4 4 0 0 1 1.5 1.4v-.3l.3-.3.4-.1c.8-.3 5.3-1.6 7 .3h.3l.6-.5a4 4 0 0 1 4.3.4c.3.2.7.1 1-.2l.3-.4c.5-.4 1-.6 1.7-.6h2.4c.6-.1 2.6-.2 3.2-.4h.1l.9-.2c1.2-.2 2.5-.5 3.6 0 1 .5 1 1.7.8 2.8v1.9c0 .9 0 1.8-.2 2.4l.1.5c.1.5.6.8 1 .5a8.2 8.2 0 0 0 2-1.6l.3-.8c.1-.9.3-2.7.3-6.5V118c-.2-2-.3-3.6.8-5.3 1-1.5 1.9-2.2 2.8-2.7 1-.7 2.3-1.5 4.3-4.3 1-1.3 1.1-1.9 1.2-2.3.2-1 .6-1.7 2.1-2.8 1.3-1 5-3.9 10.2-3 1.7.3 4.4 1.2 7.1 2.3h.3l.1.1c2.4 1 4.6 2 6.1 2.8.5.3 1 .1 1.3-.3l1.5-1.2.6-.4c.5-.4.5-1.3-.1-1.6a91.7 91.7 0 0 0-16.2-6.4Zm-51.4 1.6c-1.7 7.3-13 15.4-18.2 15.4h-.3l-.4-.1h-.1c-1-.4-2.2-1.1-3.2-2a4.6 4.6 0 0 1-1.4-2.3v-.5c-.4-1.2-.7-2.8.4-5.3l.4-1 .1-.2.3-.8.4-1 .1-.3.4-1.6.2-1 .7-3.6c.2-1.9.4-3.5 1.5-5a4.2 4.2 0 0 1 1.8-1.4l.3-.2.6-.2a20 20 0 0 1 9.5 1.4l.2.1.4.2.5.2.6.3.2.1a12.6 12.6 0 0 1 3 2l.3.2a7 7 0 0 1 1.7 6.6ZM84.4 67l-.2 1.3c-.5 3-1.7 7-6 8.1-4.1 1-5.1 1.2-8 1.4h-.3c-2.1 0-6.2-1.4-7-4.8-.4-2.1.5-3.7 2-6.3l1-1.4c2-3.5 2.8-6 3.5-8 .6-2 1.2-3.7 2.5-5a8.3 8.3 0 0 1 3.2-2c1-.3 2-.5 3-.5 2 0 4 .6 5.5 1.8.6.5 1.5 1.5 2 4.5.3 1.6-.1 4.5-1.2 10.8Zm30.6 8.4c-1.4 2.6-2.3 4-3.5 5a12.3 12.3 0 0 1-8 2.6c-1.7 0-3.2-.2-4-.4-2.6-.5-7.3-1.3-8.8-5-.3-.7-.3-1.2-.3-1.8s0-1.5-.3-3.9v-.1c-.2-1-.3-2.3 0-3.8v-.2a27 27 0 0 1 1.4-5.5c.4-1 1.5-1.3 2.4-.8.8.4 1.2 1.5.8 2.3l-1 4.7v.2a8 8 0 0 0 0 2.6v.2c.3 2.5.3 3.7.3 4.3v.3c.2.7.8 1.2 1.5 1.6.6.3 1.2-.3 1-1-.7-3.8-.6-8.3.9-11a82 82 0 0 1 2.3-4l.3-.5.2-.4 1-1.6.1-.2v-.2l.3-.2v-.1l.1-.2.1-.2.7-1c.5-.6 0-1.4-.8-1a7.6 7.6 0 0 0-2.3 1.3c-.8.6-2 .5-2.5-.3s-.5-2 .3-2.5c.9-.8 5.8-4.3 11.7-2.7 4.2 1.2 6.4 4.5 7.2 5.7.7 1 2.8 4 2.7 8.1 0 3.2-1.4 5.5-3.8 9.7Z"/>
    <path fill="#fff" d="M77 53.5a267.6 267.6 0 0 0-3.6 8.3c-.8 1.7-1.5 2.7-2 3.5L69.9 68a12 12 0 0 0-.3 6c-1.1 0-3-.9-3.2-1.8-.1-.8.3-1.6 1.7-3.7l.8-1.5c2.3-3.8 3.2-6.7 4-8.8.6-2.3 1-3.2 2.2-4 .5-.4 1.1-.6 1.8-.7Zm-2.3 80.7a34.6 34.6 0 0 1-3.8 6 29 29 0 0 1-1.8-11v-.4c.2-1.2.5-2.3 1.1-3.2.4-.6 1.5-1 2.7-1a6 6 0 0 1 2.7.6c.4.3 1 .8 1 2.2a13 13 0 0 1-2 6.8Z"/>
    <path fill="#fff" d="M143 105.7v.3c-.3.8-.8 1.3-1.3 1.9-.6.8-1.3 1.6-2 3-1 1.9-1.3 3.6-1.4 8-.2 5.2 0 8.1.1 10.3.2 2 .2 3.3-.1 5.3-.8 4-2.5 6.7-4.7 10.1-2.7 4.3-5.6 8.7-10.3 10-.4.2-.4.2-1.7.2l-6.2.1c-6.1.2-9.2.4-11.9.9-2.7.5-4.2 1.1-5.6 1.7-1.2.5-2.4 1-4.7 1.4a136.5 136.5 0 0 1-27.7 0c-8-1-11.9-1.4-14.5-2.8-6.2-3.3-8.8-9.3-13.2-19.1 0-.2 0-.3.2-.2l.7.3.6.1h1.4c0-.1.2 0 .2 0a3 3 0 0 0 1.5 1.8c.7.4 1.5.5 2.4.4l2.5-.1c.5 0 1 .2 1 .6.9 1.8 1.8 3.2 3.2 3.4h.4c.2 0 .6 0 1.2-.4.7-.4 1.7-.1 2.3.5l1 .8c1.4 1.6 5 2.3 8 2.3 1.7 0 3.1-.2 4-.6 1.2-.6 1.2-1.6 1.2-2l-.3-2h.1c.2.4.4.9 1 1h.2c.9 0 2.2.3 2.4 1l.5 1.2c.5.8 1.5 1.8 3.6 1.8h.1c2.4 0 4.2-.7 5.4-2.2l.2-.3c.5-.7 1.8-.7 2.3-.2.7.6 1.4.9 2.3.9h.4c1-.1 2-.7 2.7-1.6.4-.6.7-1.4 1-2.2 0-.3.4-.3.6-.2a3 3 0 0 0 2.2.9l.8-.1c2-.4 3-2.1 3.5-4h.1c.6.6 1.5 1.3 3.2 1.3h.2c.9 0 1.6-.4 2.2-1.1.6-.8.9-2 1-3.2 0-.5.2-.9.6-1a11 11 0 0 0 4.4-3.4c.2-.3.5-.6.9-.6 1.2-.3 1.8-.5 2.3-.8a6 6 0 0 1 1.8-.5c7.8-1.1 9.3-1.4 11-2.5 2.6-1.7 2.7-4 2.8-6.3.1-1.9.2-4 1.7-6.6l1.8-3.3c1.1-2 2.7-5 3.8-6.5a1 1 0 0 1 1.2-.3c2.6 1.1 4.9 2.2 5.4 2.6Z"/>
    <path fill="#fff" d="M67.1 129a52.3 52.3 0 0 0 .5 15c-.4.2-1.5.5-3.5.5-2.8 0-5.6-.8-6.4-1.7h-.1c-.7-.6-1.1-1-1.2-2 0-.3.1-.7.4-1.1l.7-1 1.7-2.4c1.7-3 2.4-4 3.3-5a63.7 63.7 0 0 0 3.8-5.6l1.6-2-.3 1.8-.5 3.4Zm-1.3-42c-.4.5-.8 1.1-1.3 2.2-1.4 3-1.4 4.7-1.4 6 0 .8 0 1.3-.2 2l-.6 1.5c-.8 1.9-1.9 4.2-1.4 7.4a7 7 0 0 1-1.8-1.3v-.6c-.3-1-.4-1.6.2-3a20 20 0 0 0 2-6l.1-.6c.4-1.5.6-2.8.7-3.9.2-1.6.4-2.6 1-3.4.1-.3.7-.5 1.5-.5l1 .1h.2Zm-2.2 38c0-1-.2-1.8-.6-2.7l-.1-.3-.2-.4-.1-.1-.2-.2h-.2l-.2-.2h-.2c-.5-.3-1-.5-1.7-.6h-.6l-.4.1-.2.1h-.1v.1l-.3.2v.1h-.1v.1l-.7 1-1.6 2.4-1.5 2.1-.8 1.2-.1.2 1 .2a49.5 49.5 0 0 0 7 .6 76 76 0 0 0 2.1-3.3l-.2-.6Zm-5.4 6.3a20.6 20.6 0 0 1-6.4 10c-.8-.1-1.6-2.1-2.3-4.2l-.7-2.3c-.4-1.5-.5-3.6-.4-4.8a21 21 0 0 0 9 1.2h.8Zm-3-9.6a887.4 887.4 0 0 1-3.4 5l-.7.9-1.8-.5a14.3 14.3 0 0 1-1.7-.5c0-.2-.2-.3-.3-.5l.5-1 1-2a8.7 8.7 0 0 1 2.7-3c.5-.3.9-.5 1.4-.5h.7l.4.1h.2l.3.3.2.2c.3.5.4.9.5 1.5Zm-5.7-3.1a13 13 0 0 0-3.2 4.1l-1.3 2.6-.1.3a12.7 12.7 0 0 1-3-1.1l1.3-2.2 2.1-3 1-1c.4-.2.9-.1 1.4 0 .5 0 1 0 1.5.2l.3.1Zm-2.2 18.1-.2.2H47a29.9 29.9 0 0 1-2.9.2c-.3 0-.6-.1-.8-.3l-.4-1.5c-.4-2.3-.5-4.7-.2-7 1.2.4 2.5.8 3.7 1-.2 2 .2 5.1.5 6l.4 1.4Zm-3.9-18.8a37 37 0 0 0-2.9 4.1l-1 1.8-1.2-.5-.9-.7-.4-.3c0-.3.2-.6.3-.8a17.5 17.5 0 0 1 2.4-4c.2-.3.4-.6.8-.7h1c.8.1 1.4.5 2 1Zm-8.2 5.6h.2l1 1a11.2 11.2 0 0 0 .6.6c-.4 1.8-.7 3.6-.7 5.5 0 0-.1.1-.2 0-.5-2.2-1.2-5.7-.9-7Zm5.3 4a27.3 27.3 0 0 0 0 7.4h-.8c-.3 0-.3 0-.5-.2l-.6-.7c-.4-.7-.5-1.6-.6-2.5 0-1.6.1-3.3.4-4.9l.9.4 1.1.5Z"/>
    <g fill="none" stroke-miterlimit="10" opacity=".8">
      <path stroke="url(#a)" stroke-width=".3" d="M82.5 210.6a237 237 0 0 1-20-.9l-1.5-.1-1.6-.2-2.5-.3a82.4 82.4 0 0 1-27.3-7.1l-1.8-.8-1.6-1a79.1 79.1 0 0 1-34.6-40.7l-.9-2a86.6 86.6 0 0 1-4.8-12.5l-.3-.8-.2-.9A65.7 65.7 0 0 1-5.8 85l3.2-5.3c.6-1 1-2.2 1.3-3.5A70 70 0 0 1 9.6 51.1c.7-5 2-9.9 3.7-14.6l.2-.8.3-.7.2-.6A65.7 65.7 0 0 1 25.6 13l2.7-3.4L31.2 7a65.8 65.8 0 0 1 41.6-17.2H74a67.6 67.6 0 0 1 13 .7c2.1.4 4.3.2 6.3-.7a71.5 71.5 0 0 1 24-5.5c3.4-.4 8.5-.7 14-.7 10.8 0 20 1.4 28.3 4.2l.7.3.7.2a74 74 0 0 1 34.4 25.2l.3.4 1 .8a64 64 0 0 1 15.1 17.1l1.3 2 1 2.2a66 66 0 0 1 5 41.6v.3a71 71 0 0 1-3.7 13.7 73.2 73.2 0 0 1-22.2 43.2 7.2 7.2 0 0 0-2 4.1l-.5 2.9a76.6 76.6 0 0 1-11.3 27.8l-7.6 11a67 67 0 0 1-33.2 22.9l-3.2 1-3.5.6c-3.9.7-7.9 1-11.9 1h-3.3c-1.5.1-3 .4-4.5.8a101 101 0 0 1-29.8 3.8Z"/>
      <path stroke="url(#d)" stroke-width=".3" d="M82.5 203.1c-7 0-13.6-.4-19.2-.9h-1.4l-1.3-.2-2.8-.4c-5.4-.6-14.4-1.5-24.5-6.2l-1.4-.7-1.4-.8C11 183 4 166.9-.3 157.3l-1-2.3c-2-4-3.3-7.8-4.4-11.3l-.2-.7-.2-.7a62.8 62.8 0 0 1-2.3-27 57.5 57.5 0 0 1 10-24.2l4-6.8c.8-1.2 1.3-2.5 1.6-4 2-11.4 7.5-19.6 10-23.3l.2-.4.2-.2.1-.4.4-1.4a67 67 0 0 1 3.5-13.8l.2-.6.2-.6.4-1a56.6 56.6 0 0 1 10-18.8l2.3-2.8 2.4-2.1a57 57 0 0 1 36.2-15h1.1l2.4-.1c3.5 0 7-1 10.4-.3 2.6.5 5.3.2 7.8-.9a67.6 67.6 0 0 1 19-3.8 132.3 132.3 0 0 1 17.3-1.1 77 77 0 0 1 25.5 3.7l.6.2.5.3a64.9 64.9 0 0 1 30.6 22.3l.8 1 .1.1 1.2 1.1.2.2c5.4 4.1 10 9.2 13.5 15l1 1.7 1 1.8c7.6 15.8 5.2 30 4.2 36.2v.3a64 64 0 0 1-3.6 13 64.8 64.8 0 0 1-21.3 40.5 8.8 8.8 0 0 0-2.9 5.6l-.7 4.7a68 68 0 0 1-10.2 24.9l-6.1 9a58.7 58.7 0 0 1-29.7 21l-2.6.8-3 .5a58 58 0 0 1-10.3.9h-4.9c-1.6.1-3.2.4-4.7 1a91.5 91.5 0 0 1-28 3.6Z"/>
      <path stroke="url(#e)" stroke-width=".3" d="M82.5 194.3c-6.7 0-13.1-.5-18.5-.9h-1.1l-1-.2-3.2-.4a62.8 62.8 0 0 1-21.6-5.5l-1.2-.5-1-.6a61.8 61.8 0 0 1-27-32.5l-1.2-2.5c-1.8-3.6-3-7-4-10.2l-.1-.5-.2-.6a54.3 54.3 0 0 1-2-23.3c1-7.1 3.9-13.8 8.8-21l.6-.9.6-.8 1.2-1.5 2.5-4.6c.8-1.5 1.4-3.1 1.6-4.8a51.5 51.5 0 0 1 8.8-21l.4-.6.5-.8.7-1.6.7-2.4A58 58 0 0 1 30 43.8l.2-.5.2-.5.5-1.4c1-3.3 3.1-9.4 8.5-16l1.9-2.3 1.8-1.7A48.3 48.3 0 0 1 74 8.8h.4l.5-.1A44 44 0 0 1 87.6 10c3 .8 6.2.4 9-1A55.6 55.6 0 0 1 114 3.7l1.2-.1a173.3 173.3 0 0 1 16.2-1.1c8.7 0 16.1 1 22.5 3.3l.5.2.5.1a56 56 0 0 1 26.6 19.5c1.2 1.5 1.3 1.7 2.1 2.4l1 .8.3.4c2.5 1.9 7.5 5.8 11.9 13l.8 1.4.7 1.4a47.9 47.9 0 0 1 3.5 30.8v.3c-.7 4.2-2 8.3-3.5 12.3v.3a56.3 56.3 0 0 1-20.8 37.8 8.5 8.5 0 0 0-3.3 6.2 59.6 59.6 0 0 1-10 29l-4.7 7a50.4 50.4 0 0 1-26 19l-2.2.7-2.3.4c-2.9.6-5.9.8-8.8.8h-3.9l-2.5.2c-1.7 0-3.4.3-5 .9a81.9 81.9 0 0 1-26.3 3.5Z"/>
      <path stroke="url(#f)" stroke-width=".2" d="M82.5 185.4a238 238 0 0 1-17.9-.8h-.8l-.8-.2-3.3-.4a55 55 0 0 1-18.9-4.7l-.8-.4-.9-.5A53.9 53.9 0 0 1 16 150.1l-1.2-2.7a61.8 61.8 0 0 1-3.5-9l-.1-.5-.2-.4a39.2 39.2 0 0 1 5.6-36.9l.4-.6.5-.6 1.6-2 2.3-3c.5-.7 1-1.4 1.2-2.2l1-2.4c.4-1 .6-2 .7-3.1A41 41 0 0 1 32 66.9l.5-.8.6-.8.1-.3 1.4-3 1-3.4v-.2c.5-4 1.4-7.8 2.8-11.6l.1-.3.2-.4.6-1.9c1-3 2.6-7.8 7-13.2l1.4-1.7L49 28a41.2 41.2 0 0 1 25.7-10.4h2.2c4.6 0 9.1.9 13.3 2.7A5.5 5.5 0 0 0 95 20c4-2.3 11.1-6.4 20.3-7.5l1.1-.2a171.5 171.5 0 0 1 15.1-1 60 60 0 0 1 19.7 2.8l.3.2h.4a47.2 47.2 0 0 1 22.8 16.8c1.2 1.5 1.8 2.2 3.1 3.4l.8.7.5.6.5.3c2.1 1.7 6.2 4.8 9.7 10.7l.7 1 .5 1.1a39.5 39.5 0 0 1 2.7 25.4v.3c-.7 3.8-1.7 7.5-3.2 11l-.2.3v.3l-.2 1v.4a47.8 47.8 0 0 1-18.7 32.8 12.8 12.8 0 0 0-5.4 10.3 50.9 50.9 0 0 1-8.8 26.5l-3.4 5.2a42.4 42.4 0 0 1-22.4 16.9l-.4.1c-.8.3-1.5.5-2.3.6l-.6.1a36 36 0 0 1-7.3.6h-3.6l-.3.1h-.4l-4 .2a16 16 0 0 0-5.2 1 71.8 71.8 0 0 1-24.2 3.4Z"/>
      <path stroke="url(#g)" stroke-width=".2" d="M82.5 176.6c-6 0-12-.4-17.2-.8h-.5l-.5-.1-3.6-.5c-4.5-.4-10-1-16.1-3.9l-.6-.3-.5-.3A45.6 45.6 0 0 1 24 146.5l-1.3-2.9a53.5 53.5 0 0 1-3.1-8v-.2l-.2-.3c-3.4-12.2-2.3-19.9 4.4-29.5l.3-.4.3-.4 1.6-2c1.7-2.4 3.4-4.5 5.9-7.2a4 4 0 0 0 .9-2.1l.2-2.9-.1-1v-.9a32.1 32.1 0 0 1 7-18l.3-.5.4-.4a38.2 38.2 0 0 0 3.4-8.9c.2-.4.2-.5.3-1.4a41 41 0 0 1 2.3-9.7v-.3l.1-.2.9-2.3c.8-2.5 2-6.3 5.4-10.4l1-1.2.9-.8a32 32 0 0 1 20.3-8.2H77c4.5 0 10 2.2 12.8 3.5a5.8 5.8 0 0 0 4.3.1 41 41 0 0 0 5.2-2.2 44.1 44.1 0 0 1 21.6-7c2.5-.3 6.4-.5 10.5-.5 6.8 0 12.3.7 16.8 2.3h.3l.2.1c10.7 4 14.9 8.7 19 14a34 34 0 0 0 4.2 4.5l.5.5.4.4c.4.4.8.8 1.3 1 1.8 1.5 4.9 3.9 7.6 8.4l.4.6.4.8c4 8 2.7 15.5 2 20l-.1.3a39 39 0 0 1-2.7 9c-.3.8-.6 1.6-.7 2.4l-.2 1.5v.5a38.2 38.2 0 0 1-7.3 18.6 31.5 31.5 0 0 1-12.8 11 7.3 7.3 0 0 0-4.3 6.3v1.2c.2 4 .5 8.3-.3 12.8a42.8 42.8 0 0 1-7 16.2s-10.9 15.2-20.8 18.2l-1 .3-1.2.2c-2 .4-3.9.6-5.9.6h-4.5c-3.8.2-7.4.3-8.4.5a58 58 0 0 1-24.7 4Z"/>
      <path stroke="url(#h)" stroke-width=".2" d="M82.5 167.7c-5.8 0-11.6-.3-16.5-.7h-.3l-.3-.1-3.8-.5c-4.2-.4-8.5-.9-13.3-3.1l-.3-.1-.2-.2c-9.1-5-12.5-12.7-15.8-20l-1.4-3.2A45.4 45.4 0 0 1 28 133v-.3c-2.8-9.7-2.1-14.6 3-22l.2-.2.1-.2L33 108c2.5-3.2 4.6-6 9.4-10.5.3-.3.6-.7.7-1.2v-1.4l-1-2.5-.3-2.3V89c.2-5.3 3-9.5 4.8-12.3l.8-1.2.2-.3.2-.2c1-1.4 2.5-5 3.4-7.3l1.2-4c.4-1 .6-2 .7-3.1a34 34 0 0 1 1.8-7.8v-.2h.1l1-2.8c.7-2.3 1.6-4.8 3.9-7.7l.5-.5.4-.4a23.6 23.6 0 0 1 15.1-6h1c4.2 0 7.4 1.8 9.6 3l.5.2 1.6.9a6 6 0 0 0 4.3.4 55 55 0 0 0 10.7-4.2c3.3-2 8.1-4.8 13.9-5.4l1-.1 3.1-.4c2.4-.2 6-.5 9.7-.5 5.8 0 10.3.6 14 1.9h.2a29.8 29.8 0 0 1 15.1 11.1 43 43 0 0 0 5.3 5.8l.2.2.3.2a20 20 0 0 0 2.2 2c1.5 1.1 3.6 2.7 5.5 5.8l.2.3.1.4a23 23 0 0 1 1.2 14.7v.3c-.5 2.5-1.2 4.8-2.1 7.1-.6 1.3-1 2.7-1.3 4.1l-.3 2v.5a29.6 29.6 0 0 1-5.7 14.5 21.8 21.8 0 0 1-11.7 9c-2.3.8-4.2 2.3-5.6 4.3l-.3.6-.5.5c-1.2 1.4-.8 6.7-.6 10 .2 3.5.4 7-.2 10.5-1.1 5.9-3.6 9.8-5.8 13.3 0 0-8.4 12-15.9 14.3l-.5.2h-.6c-1.4.3-3 .4-4.4.4h-2l-2.6.1h-.2c-5 .2-8.1.3-9.8.6a15 15 0 0 0-3.3 1c-4.5 2-10.8 3-19.7 3Z"/>
    </g>
  </g>
  <circle cx="161.7" cy="134.8" r="27"/>
  <path fill="#fff" d="m164.1 131.6 12.7-12.7-4.8-4.8-10.3 10.3-10.2-10.3-4.8 4.8 12.6 12.7a3.4 3.4 0 0 0 4.8 0Zm18.3 13.5-10.2-10.3 10.2-10.2-4.8-4.8-12.6 12.6a3.4 3.4 0 0 0 0 4.8l12.6 12.7 4.8-4.8Zm-20.7.2 10.3 10.2 4.8-4.8-12.7-12.6a3.4 3.4 0 0 0-4.8 0l-12.6 12.6 4.8 4.8 10.2-10.2Zm-3.2-8a3.4 3.4 0 0 0 0-4.9l-12.7-12.6-4.8 4.8 10.3 10.2-10.2 10.3 4.7 4.8 12.7-12.7Z"/>
</svg>
