<svg xmlns="http://www.w3.org/2000/svg" viewBox="0 0 200 200">
  <g fill-rule="evenodd">
    <path fill="#0055d5" d="M100 1a99 99 0 1 1 0 198 99 99 0 0 1 0-198Z"/>
    <path fill="#fff" d="M54.9 66.5S44.2 58 43.5 79c-.8 16.3-.7 48 6.8 63 3.2 5.5 7.5 3.8 15.4-1.8 6.9-5 31.8-28 42.3-38.1s32-39 36.5-19.4c1.7 8.3 3.9 15.3 2.2 33.6-.5 5.6-2.9 10-13.9 2.3-8.3-5.4-16.2-11.1-16.2-11.1s-1.6-2.7-5.2 1.7c-2.8 3.5-4.2 4.4.3 7.1 4.6 2.7 27.6 18.6 36.4 21 7.3 2.2 11.5 2.1 11.7-12.2 0-11.3-.7-43.9-4.8-57.7-3.2-8.7-7.8-12.6-17.7-2.9-9.9 9.7-41.2 40-58.3 53.8-11.3 8.5-16.2 16.2-20.5 2-3-10.8-6.9-44.2 5.4-37.9 7.7 3.7 11.6 3.7 8.6 6S60.8 98.7 60.8 98.7s-2.7 2.1-1.4 6.8c1.2 3.3 1.2 4.9 8-1.4S79 93 79 93s1-1.7 4.3 1.4 3.7 4 3.7 4 .8 2.3 4.2-1.7c3.4-4 5.6-6.5-.8-10.3-6.5-3.8-35.5-19.9-35.5-19.9Z"/>
  </g>
  <circle cx="161.7" cy="134.8" r="27"/>
  <path fill="#fff" d="m164.1 131.6 12.7-12.7-4.8-4.8-10.3 10.3-10.2-10.3-4.8 4.8 12.6 12.7a3.4 3.4 0 0 0 4.8 0Zm18.3 13.5-10.2-10.3 10.2-10.2-4.8-4.8-12.6 12.6a3.4 3.4 0 0 0 0 4.8l12.6 12.7 4.8-4.8Zm-20.7.2 10.3 10.2 4.8-4.8-12.7-12.6a3.4 3.4 0 0 0-4.8 0l-12.6 12.6 4.8 4.8 10.2-10.2Zm-3.2-8a3.4 3.4 0 0 0 0-4.9l-12.7-12.6-4.8 4.8 10.3 10.2-10.2 10.3 4.7 4.8 12.7-12.7Z"/>
</svg>
