<?xml version="1.0" encoding="UTF-8"?><svg xmlns="http://www.w3.org/2000/svg" viewBox="0 0 200 200"><g id="a"><circle cx="100" cy="100" r="99" style="fill:#f0b90b;"/><path d="m150.52,83.48c.14,0,.41,0,.4,0,5.64,5.63,11.15,11.13,16.72,16.69,0-.07.03.02,0,.06-.07.1-.15.19-.25.26-.04.03-.13,0-.19,0-.06,0-.13,0-.18.04-.06.03-.1.09-.14.14-.09.09-.19.19-.28.28s-.19.19-.28.28c-21.59,21.55-43.19,43.1-64.78,64.65-.09.09-.19.19-.28.28-.09.09-.19.19-.28.28-.05.05-.09.09-.14.14-.05.05-.1.09-.14.14-.03.05-.06.11-.07.17-.01.06.02.14,0,.2-.05.11-.13.21-.26.39-1.2-.71-2.01-1.83-2.99-2.76-.96-.91-1.88-1.86-2.81-2.79-.98-.98-1.96-1.96-2.94-2.94l-2.8-2.8c-.98-.98-1.99-1.93-2.94-2.95-.86-.92-2.01-1.64-2.44-2.79,22.47-22.42,44.76-44.67,67.1-66.97Z" style="fill:#fff;"/><path d="m74.75,141.79c-5.37-5.36-10.91-10.88-16.31-16.28,22.36-22.32,44.85-44.76,67.24-67.11,5.37,5.36,10.91,10.89,16.31,16.28-22.33,22.28-44.78,44.69-67.24,67.11Z" style="fill:#fff;"/><path d="m100.23,33c5.4,5.39,10.9,10.88,16.62,16.59,0-.16,0,.1,0,.3-13.97,13.95-27.94,27.88-42,41.91-1.08-.63-1.89-1.76-2.88-2.68-.96-.9-1.87-1.86-2.81-2.79-.98-.98-1.96-1.96-2.94-2.94-.93-.93-1.87-1.86-2.8-2.8-.98-.98-2.02-1.91-2.93-2.95-.82-.95-2.16-1.52-2.35-2.63,14.19-14.16,28.19-28.13,42.09-42Z" style="fill:#fff;"/><path d="m49.32,83.57c5.55,5.54,11.08,11.06,16.62,16.59.34.45-.08.79-.46,1.16-2.06,2.05-4.11,4.1-6.17,6.15-3.08,3.08-6.17,6.15-9.26,9.24h-.66c-5.55-5.54-11.06-11.04-16.57-16.54.76-1.16,14.17-14.65,16.5-16.6Z" style="fill:#fff;"/></g><g id="b"><circle cx="161.73" cy="134.82" r="27"/><path d="m164.14,131.55l12.64-12.64-4.79-4.79-10.24,10.24-10.24-10.24-4.79,4.79,12.63,12.64c.66.66,1.53.99,2.4.99s1.73-.33,2.4-.99Zm18.29,13.5l-10.24-10.24,10.24-10.24-4.79-4.79-12.63,12.64c-1.32,1.32-1.32,3.47,0,4.79l12.63,12.64,4.79-4.79h0Zm-20.7.23l10.24,10.24,4.79-4.79-12.63-12.64c-1.32-1.32-3.47-1.32-4.79,0l-12.63,12.64,4.79,4.79,10.24-10.24h0Zm-3.26-8.05c.64-.64.99-1.5.99-2.4s-.36-1.76-.99-2.4l-12.63-12.64-4.79,4.79,10.24,10.24-10.24,10.24,4.79,4.79,12.63-12.64h0Z" style="fill:#fff;"/></g></svg>