<svg xmlns="http://www.w3.org/2000/svg" viewBox="0 0 200 200">
  <circle cx="100" cy="100" r="99" fill="#f0b90b"/>
  <path fill="#fff" d="M150.5 83.5h.4l16.7 16.7c0-.1 0 0 0 0l-.2.3h-.4l-.1.2-.3.3-.3.2-64.8 64.7-.2.3-.3.2-.2.2-.1.1v.4l-.3.4c-1.2-.7-2-1.9-3-2.8l-2.8-2.8-3-3-2.8-2.7-3-3c-.8-.9-2-1.6-2.3-2.8l67-67Zm-75.7 58.3-16.4-16.3 67.3-67.1L142 74.7l-67.3 67ZM100.2 33 117 49.6v.3L75 91.8c-1.1-.6-2-1.8-3-2.7l-2.7-2.8-3-3c-1-.8-1.8-1.8-2.8-2.7l-3-3c-.7-1-2-1.5-2.3-2.6l42.1-42ZM49.3 83.6 66 100.2c.4.4 0 .7-.4 1.1l-6.2 6.2-9.2 9.2h-.7l-16.6-16.5C33.6 99 47 85.5 49.3 83.6Z"/>
  <circle cx="161.7" cy="134.8" r="27"/>
  <path fill="#fff" d="m164.1 131.6 12.7-12.7-4.8-4.8-10.3 10.3-10.2-10.3-4.8 4.8 12.6 12.7a3.4 3.4 0 0 0 4.8 0Zm18.3 13.5-10.2-10.3 10.2-10.2-4.8-4.8-12.6 12.6a3.4 3.4 0 0 0 0 4.8l12.6 12.7 4.8-4.8Zm-20.7.2 10.3 10.2 4.8-4.8-12.7-12.6a3.4 3.4 0 0 0-4.8 0l-12.6 12.6 4.8 4.8 10.2-10.2Zm-3.2-8a3.4 3.4 0 0 0 0-4.9l-12.7-12.6-4.8 4.8 10.3 10.2-10.2 10.3 4.7 4.8 12.7-12.7Z"/>
</svg>
