<?xml version="1.0" encoding="UTF-8"?><svg xmlns="http://www.w3.org/2000/svg" viewBox="0 0 200 200"><g id="a"><g id="b"><path d="m100,1c54.68,0,99,44.33,99,99s-44.32,99-99,99S1,154.68,1,100,45.33,1,100,1Z" style="fill:#f5ac37;"/><path d="m103.65,106.99h37.62c.8,0,1.18,0,1.24-1.05.31-3.82.31-7.68,0-11.5,0-.75-.37-1.05-1.18-1.05h-74.87c-.93,0-1.18.31-1.18,1.18v11.02c0,.95.49,1.42,1.48,1.42h36.88Zm34.66-26.48c.11-.28.11-.59,0-.86-.63-1.37-1.37-2.67-2.24-3.9-1.3-2.09-2.83-4.02-4.58-5.76-.82-1.05-1.78-1.99-2.84-2.78-5.36-4.56-11.72-7.78-18.57-9.41-3.45-.78-6.98-1.15-10.52-1.12h-33.23c-.93,0-1.05.37-1.05,1.18v21.96c0,.93,0,1.18,1.18,1.18h71.4s.62-.13.75-.5c0,0-.3,0-.3,0Zm0,39.35c-1.05-.11-2.11-.11-3.16,0h-68.62c-.93,0-1.24,0-1.24,1.24v21.47c0,.99,0,1.24,1.24,1.24h31.68c1.52.11,3.03.01,4.51-.31,4.6-.33,9.12-1.33,13.43-2.97,1.57-.54,3.08-1.25,4.51-2.11h.43c7.42-3.86,13.46-9.93,17.26-17.38,0,0,.43-.94-.05-1.18,0,0,0-.01,0-.01Zm-85.45,35.08v-34.21c0-.81,0-.93-.99-.93h-13.43c-.75,0-1.05,0-1.05-.99v-11.75h14.36c.8,0,1.12,0,1.12-1.05v-11.63c0-.75,0-.93-.99-.93h-13.43c-.75,0-1.05,0-1.05-.99v-10.89c0-.68,0-.86.99-.86h13.3c.93,0,1.18,0,1.18-1.18v-33.35c0-.99,0-1.24,1.24-1.24h46.4c3.37.14,6.71.51,10.03,1.12,6.82,1.26,13.38,3.7,19.37,7.17,3.98,2.34,7.63,5.16,10.89,8.41,2.45,2.54,4.66,5.3,6.62,8.23,1.95,2.97,3.56,6.15,4.84,9.47.16.86.98,1.45,1.85,1.3h11.08c.95,0,1.44.46,1.48,1.37v10.15c0,.99-.37,1.24-1.37,1.24h-8.54c-.86,0-1.12,0-1.05,1.12.34,3.77.34,7.55,0,11.32,0,1.05,0,1.18,1.18,1.18h9.77c.43.56,0,1.12,0,1.67.06.72.06,1.44,0,2.16v7.49c0,1.05-.31,1.37-1.24,1.37h-11.69c-.81-.16-1.61.36-1.8,1.18-2.78,7.24-7.24,13.73-13,18.94-2.11,1.89-4.31,3.67-6.62,5.32-2.48,1.43-4.89,2.91-7.42,4.09-4.67,2.11-9.57,3.65-14.61,4.64-4.78.85-9.62,1.25-14.48,1.18h-42.95v-.06l.02-.02h0Z" style="fill:#fefefd;"/></g></g><g id="c"><circle cx="161.73" cy="134.82" r="27"/><path d="m164.14,131.55l12.64-12.64-4.79-4.79-10.24,10.24-10.24-10.24-4.79,4.79,12.63,12.64c.66.66,1.53.99,2.4.99s1.73-.33,2.4-.99Zm18.29,13.5l-10.24-10.24,10.24-10.24-4.79-4.79-12.63,12.64c-1.32,1.32-1.32,3.47,0,4.79l12.63,12.64,4.79-4.79h0Zm-20.7.23l10.24,10.24,4.79-4.79-12.63-12.64c-1.32-1.32-3.47-1.32-4.79,0l-12.63,12.64,4.79,4.79,10.24-10.24h0Zm-3.26-8.05c.64-.64.99-1.5.99-2.4s-.36-1.76-.99-2.4l-12.63-12.64-4.79,4.79,10.24,10.24-10.24,10.24,4.79,4.79,12.63-12.64h0Z" style="fill:#fff;"/></g></svg>