<svg xmlns="http://www.w3.org/2000/svg" viewBox="0 0 200 200">
  <path fill="#f5ac37" d="M100 1a99 99 0 1 1 0 198 99 99 0 0 1 0-198Z"/>
  <path fill="#fefefd" d="M103.7 107h37.6c.8 0 1.1 0 1.2-1 .3-3.9.3-7.7 0-11.6 0-.7-.4-1-1.2-1H66.5c-1 0-1.2.3-1.2 1.2v11c0 1 .5 1.4 1.5 1.4h36.8Zm34.6-26.5v-.9a31.8 31.8 0 0 0-6.8-9.7 44.6 44.6 0 0 0-32-13.3H66.4c-.9 0-1 .4-1 1.3v22c0 .8 0 1.1 1.2 1.1H138s.6-.1.7-.5h-.3Zm0 39.4c-1-.2-2.1-.2-3.2 0H66.6c-.9 0-1.2 0-1.2 1.2v21.5c0 1 0 1.2 1.2 1.2h31.7a47.3 47.3 0 0 0 22.5-5.4h.4c7.4-3.8 13.5-10 17.3-17.4 0 0 .4-.9-.1-1.1Zm-85.4 35v-34.2c0-.8 0-.9-1-.9H38.4c-.7 0-1 0-1-1v-11.7h14.4c.8 0 1 0 1-1V94.3c0-.8 0-1-1-1H38.5c-.7 0-1 0-1-1V81.7c0-.7 0-.9 1-.9h13.3c1 0 1.2 0 1.2-1.2V46.2c0-1 0-1.3 1.2-1.3h46.4a60.7 60.7 0 0 1 29.4 8.3A54.6 54.6 0 0 1 147.4 70c2 3 3.6 6.1 4.9 9.4.1.9 1 1.5 1.8 1.3h11c1 0 1.5.5 1.6 1.4v10.2c0 1-.4 1.2-1.4 1.2h-8.5c-.9 0-1.2 0-1 1.1a63 63 0 0 1 0 11.3c0 1 0 1.2 1 1.2h9.9c.4.6 0 1.1 0 1.7v9.5c0 1-.3 1.4-1.3 1.4h-11.7c-.8-.1-1.6.4-1.8 1.2a49.5 49.5 0 0 1-19.6 24.3c-2.5 1.4-4.9 2.9-7.4 4a66.6 66.6 0 0 1-29.1 5.9h-43v-.1Z"/>
  <circle cx="161.7" cy="134.8" r="27"/>
  <path fill="#fff" d="m164.1 131.6 12.7-12.7-4.8-4.8-10.3 10.3-10.2-10.3-4.8 4.8 12.6 12.7a3.4 3.4 0 0 0 4.8 0Zm18.3 13.5-10.2-10.3 10.2-10.2-4.8-4.8-12.6 12.6a3.4 3.4 0 0 0 0 4.8l12.6 12.7 4.8-4.8Zm-20.7.2 10.3 10.2 4.8-4.8-12.7-12.6a3.4 3.4 0 0 0-4.8 0l-12.6 12.6 4.8 4.8 10.2-10.2Zm-3.2-8a3.4 3.4 0 0 0 0-4.9l-12.7-12.6-4.8 4.8 10.3 10.2-10.2 10.3 4.7 4.8 12.7-12.7Z"/>
</svg>
