<?xml version="1.0" encoding="UTF-8"?><svg xmlns="http://www.w3.org/2000/svg" viewBox="0 0 200 200"><g id="a"><ellipse cx="100" cy="21.77" rx="37.97" ry="20.76" style="fill:#e5017a;"/><ellipse cx="100" cy="178.23" rx="37.97" ry="20.76" style="fill:#e5017a;"/><ellipse cx="27.96" cy="60.89" rx="36.31" ry="21.73" transform="translate(-38.29 50.88) rotate(-56.75)" style="fill:#e5017a;"/><ellipse cx="172.05" cy="139.12" rx="36.31" ry="21.71" transform="translate(-38.63 206.72) rotate(-56.75)" style="fill:#e5017a;"/><ellipse cx="27.97" cy="139.12" rx="21.73" ry="36.31" transform="translate(-71.7 38.11) rotate(-33.25)" style="fill:#e5017a;"/><ellipse cx="172.05" cy="60.89" rx="21.71" ry="36.31" transform="translate(-5.22 104.3) rotate(-33.25)" style="fill:#e5017a;"/></g><g id="b"><circle cx="161.73" cy="134.82" r="27"/><path d="m164.14,131.55l12.64-12.64-4.79-4.79-10.24,10.24-10.24-10.24-4.79,4.79,12.63,12.64c.66.66,1.53.99,2.4.99s1.73-.33,2.4-.99Zm18.29,13.5l-10.24-10.24,10.24-10.24-4.79-4.79-12.63,12.64c-1.32,1.32-1.32,3.47,0,4.79l12.63,12.64,4.79-4.79h0Zm-20.7.23l10.24,10.24,4.79-4.79-12.63-12.64c-1.32-1.32-3.47-1.32-4.79,0l-12.63,12.64,4.79,4.79,10.24-10.24h0Zm-3.26-8.05c.64-.64.99-1.5.99-2.4s-.36-1.76-.99-2.4l-12.63-12.64-4.79,4.79,10.24,10.24-10.24,10.24,4.79,4.79,12.63-12.64h0Z" style="fill:#fff;"/></g></svg>