<svg xmlns="http://www.w3.org/2000/svg" viewBox="0 0 200 200">
  <circle cx="100" cy="100" r="99" stroke="#000" stroke-miterlimit="11.3" stroke-width=".1"/>
  <path fill="#fff" d="M46.1 45.7 38.4 54l8.4 8.1 9 8.6.5.4-1 1.6a53.4 53.4 0 0 0 .3 56.2l-9.4 9.9-9.3 9.7c0 .1 14.2 13.9 15.6 15l.5.5 8-8.4 9.2-9.7 1.2-1.1 1 .7a54.3 54.3 0 0 0 34.4 7.8c7.6-1 15-3.5 21.2-7.2l1.6-1 1.7 1.7a2021 2021 0 0 0 17.8 17c.2 0 15.4-16 15.4-16.2 0 0-10.5-10.1-17-16.1l-2-2 1-1.7a53.5 53.5 0 0 0 0-54.8l-.6-1.1 9-9.4c4.9-5.1 8.9-9.4 8.8-9.5-.1-.3-15.8-15.1-16-15.1l-8.7 9-8.7 8.9-1-.5a55.6 55.6 0 0 0-21.1-7.8 52.8 52.8 0 0 0-34.8 7.1l-1.3.8-1.5-1.3-7.6-7.4-7.8-7.4-1.6-1.5-7.5 8Zm58.4 22.7A32.2 32.2 0 0 1 127 81.6a32.1 32.1 0 1 1-22.5-13.2Z"/>
  <circle cx="161.7" cy="134.8" r="27" fill="#fff" stroke="#000" stroke-miterlimit="10" stroke-width="2"/>
  <path d="m164.1 131.6 12.7-12.7-4.8-4.8-10.3 10.3-10.2-10.3-4.8 4.8 12.6 12.7a3.4 3.4 0 0 0 4.8 0Zm18.3 13.5-10.2-10.3 10.2-10.2-4.8-4.8-12.6 12.6a3.4 3.4 0 0 0 0 4.8l12.6 12.7 4.8-4.8Zm-20.7.2 10.3 10.2 4.8-4.8-12.7-12.6a3.4 3.4 0 0 0-4.8 0l-12.6 12.6 4.8 4.8 10.2-10.2Zm-3.2-8a3.4 3.4 0 0 0 0-4.9l-12.7-12.6-4.8 4.8 10.3 10.2-10.2 10.3 4.7 4.8 12.7-12.7Z"/>
</svg>
