<?xml version="1.0" encoding="UTF-8"?><svg xmlns="http://www.w3.org/2000/svg" viewBox="0 0 200 200"><g id="a"><circle cx="100" cy="100" r="99" style="stroke:#000; stroke-miterlimit:11.34; stroke-width:.1px;"/><path id="b" d="m46.1,45.73c-4.17,4.38-7.62,8.07-7.65,8.14-.04.1,3.72,3.79,8.35,8.18,4.63,4.42,8.66,8.28,8.94,8.52l.52.48-.94,1.56c-8.24,13.64-9.95,30.05-4.77,45.15.97,2.85,2.64,6.5,4.07,8.9.7,1.18,1.01,1.95.94,2.09s-4.28,4.59-9.36,9.92c-5.08,5.29-9.22,9.71-9.29,9.77-.04.1,14.19,13.84,15.55,14.96l.52.45,8.03-8.38c4.42-4.63,8.56-8.97,9.18-9.63l1.18-1.18,1.12.7c5.67,3.62,12.31,6.12,19.65,7.45,3.69.66,10.71.83,14.65.35,7.58-.87,15.09-3.41,21.25-7.13l1.6-.97,1.7,1.67c3.72,3.62,17.64,16.84,17.77,16.91.14.07,15.41-15.9,15.38-16.11-.04-.1-10.5-10.16-16.91-16.17l-2.12-2.02.97-1.6c8.18-13.6,9.88-30.09,4.59-45.29-.77-2.22-3.1-7.24-4.45-9.53l-.66-1.15,8.94-9.36c4.9-5.11,8.9-9.39,8.87-9.5-.14-.35-15.79-15.13-16-15.13-.14,0-4.07,4-8.76,8.94-4.69,4.9-8.59,8.94-8.7,8.97-.07.04-.52-.17-.94-.48-1.18-.8-4.17-2.43-5.85-3.2-5.08-2.33-9.81-3.76-15.3-4.56-2.85-.42-11.41-.48-14.05-.1-6.33.91-11.52,2.47-16.8,5.11-1.53.73-3.3,1.7-4,2.12l-1.25.77-1.43-1.39c-.77-.77-4.24-4.03-7.69-7.34-3.44-3.27-6.96-6.61-7.79-7.45l-1.53-1.5-7.55,8.07h.02Zm58.4,22.68c5.53.66,10.47,2.54,15.03,5.74,2.33,1.64,5.81,5.11,7.45,7.45,9.29,13.15,7.51,31.03-4.17,41.99-9.98,9.32-24.42,11.41-36.56,5.22-8.76-4.49-14.96-12.7-16.94-22.54-.63-3.13-.63-8.97,0-12.07.59-3.06,1.39-5.25,2.89-8.32,5.98-12.04,18.96-19.06,32.32-17.46h0Z" style="fill:#fff;"/></g><g id="c"><circle cx="161.73" cy="134.82" r="27" style="fill:#fff; stroke:#000; stroke-miterlimit:10; stroke-width:2px;"/><path d="m164.14,131.55l12.64-12.64-4.79-4.79-10.24,10.24-10.24-10.24-4.79,4.79,12.63,12.64c.66.66,1.53.99,2.4.99s1.73-.33,2.4-.99Zm18.29,13.5l-10.24-10.24,10.24-10.24-4.79-4.79-12.63,12.64c-1.32,1.32-1.32,3.47,0,4.79l12.63,12.64,4.79-4.79h0Zm-20.7.23l10.24,10.24,4.79-4.79-12.63-12.64c-1.32-1.32-3.47-1.32-4.79,0l-12.63,12.64,4.79,4.79,10.24-10.24h0Zm-3.26-8.05c.64-.64.99-1.5.99-2.4s-.36-1.76-.99-2.4l-12.63-12.64-4.79,4.79,10.24,10.24-10.24,10.24,4.79,4.79,12.63-12.64h0Z"/></g></svg>