<?xml version="1.0" encoding="UTF-8"?><svg xmlns="http://www.w3.org/2000/svg" viewBox="0 0 200 200"><g id="a"><g id="b"><g id="c"><path d="m100,1l-18.16,10.45-49.5,28.61-18.16,10.45v99l18.16,10.45,49.95,28.61,18.16,10.45,18.16-10.45,49.05-28.61,18.16-10.45V50.5l-18.16-10.45-49.5-28.61L100,1Zm-49.5,127.61v-57.22l49.5-28.61,49.5,28.61v57.22l-49.5,28.61s-49.5-28.61-49.5-28.61Z" style="fill:#2a5ada;"/></g></g></g><g id="d"><circle cx="161.73" cy="134.82" r="27"/><path d="m164.14,131.55l12.64-12.64-4.79-4.79-10.24,10.24-10.24-10.24-4.79,4.79,12.63,12.64c.66.66,1.53.99,2.4.99s1.73-.33,2.4-.99Zm18.29,13.5l-10.24-10.24,10.24-10.24-4.79-4.79-12.63,12.64c-1.32,1.32-1.32,3.47,0,4.79l12.63,12.64,4.79-4.79h0Zm-20.7.23l10.24,10.24,4.79-4.79-12.63-12.64c-1.32-1.32-3.47-1.32-4.79,0l-12.63,12.64,4.79,4.79,10.24-10.24h0Zm-3.26-8.05c.64-.64.99-1.5.99-2.4s-.36-1.76-.99-2.4l-12.63-12.64-4.79,4.79,10.24,10.24-10.24,10.24,4.79,4.79,12.63-12.64h0Z" style="fill:#fff;"/></g></svg>