<svg xmlns="http://www.w3.org/2000/svg" viewBox="0 0 200 200">
  <path fill="#2a5ada" d="M100 1 81.8 11.4 32.3 40.1 14.2 50.5v99L32.3 160l50 28.6 18.2 10.4 18.1-10.4 49-28.6 18.2-10.5v-99l-18.1-10.4-49.5-28.7L100 1ZM50.5 128.6V71.4L100 42.8l49.5 28.6v57.2L100 157.2l-49.5-28.6Z"/>
  <circle cx="161.7" cy="134.8" r="27"/>
  <path fill="#fff" d="m164.1 131.6 12.7-12.7-4.8-4.8-10.3 10.3-10.2-10.3-4.8 4.8 12.6 12.7a3.4 3.4 0 0 0 4.8 0Zm18.3 13.5-10.2-10.3 10.2-10.2-4.8-4.8-12.6 12.6a3.4 3.4 0 0 0 0 4.8l12.6 12.7 4.8-4.8Zm-20.7.2 10.3 10.2 4.8-4.8-12.7-12.6a3.4 3.4 0 0 0-4.8 0l-12.6 12.6 4.8 4.8 10.2-10.2Zm-3.2-8a3.4 3.4 0 0 0 0-4.9l-12.7-12.6-4.8 4.8 10.3 10.2-10.2 10.3 4.7 4.8 12.7-12.7Z"/>
</svg>
