<?xml version="1.0" encoding="UTF-8"?><svg xmlns="http://www.w3.org/2000/svg" xmlns:xlink="http://www.w3.org/1999/xlink" viewBox="0 0 200 200"><defs><linearGradient id="d" x1="-68" y1="401.5" x2="-68" y2="203.5" gradientTransform="translate(168 402.5) scale(1 -1)" gradientUnits="userSpaceOnUse"><stop offset="0" stop-color="#4fa89b"/><stop offset="1" stop-color="#6acebb"/></linearGradient></defs><g id="a"><g id="b"><g id="c"><circle cx="100" cy="100" r="99" style="fill:url(#b);"/><path d="m51.27,129.7v-46.6l35.34,26.59v20h9.02v-21.88c0-1.65-.78-3.2-2.09-4.19l-42.85-32.26c-2.34-1.74-5.65-1.25-7.39,1.09-.67.9-1.04,2-1.04,3.12v54.12h9.02,0Zm97.73,0v-46.6l-35.34,26.59v20h-9.02v-21.88c0-1.65.78-3.2,2.09-4.19l42.85-32.25c2.34-1.74,5.65-1.25,7.39,1.09.67.9,1.03,1.99,1.04,3.11v54.12h-9.02,0Z" style="fill:#fff;"/></g></g></g><g id="e"><circle cx="161.73" cy="134.82" r="27"/><path d="m164.14,131.55l12.64-12.64-4.79-4.79-10.24,10.24-10.24-10.24-4.79,4.79,12.63,12.64c.66.66,1.53.99,2.4.99s1.73-.33,2.4-.99Zm18.29,13.5l-10.24-10.24,10.24-10.24-4.79-4.79-12.63,12.64c-1.32,1.32-1.32,3.47,0,4.79l12.63,12.64,4.79-4.79h0Zm-20.7.23l10.24,10.24,4.79-4.79-12.63-12.64c-1.32-1.32-3.47-1.32-4.79,0l-12.63,12.64,4.79,4.79,10.24-10.24h0Zm-3.26-8.05c.64-.64.99-1.5.99-2.4s-.36-1.76-.99-2.4l-12.63-12.64-4.79,4.79,10.24,10.24-10.24,10.24,4.79,4.79,12.63-12.64h0Z" style="fill:#fff;"/></g></svg>