<svg xmlns="http://www.w3.org/2000/svg" xmlns:xlink="http://www.w3.org/1999/xlink" viewBox="0 0 200 200">
  <defs>
    <linearGradient id="a" x1="-3136.8" x2="-2996.8" y1="-4048.9" y2="-4188.9" gradientTransform="scale(1 -1) rotate(-40.1 4028.7 -6452.6)" gradientUnits="userSpaceOnUse">
      <stop offset="0" stop-color="#7cd1f2"/>
      <stop offset="1" stop-color="#6dc39b"/>
    </linearGradient>
    <linearGradient xlink:href="#a" id="b" x1="-3047.6" x2="-2922.7" y1="-8776" y2="-8900.9" gradientTransform="scale(1 -1) rotate(-75.7 4175.9 -6453)"/>
  </defs>
  <circle cx="100" cy="100" r="99" fill="url(#a)"/>
  <circle cx="100" cy="100" r="88.3" fill="url(#b)"/>
  <path fill="#fff" d="m120.5 84.8 4.6-23.3a4.6 4.6 0 0 0-4.5-5.5H112l-4 20c-1.9-.7-4-1-6-1.2l2-10.6H90l-2.8 14a25.5 25.5 0 0 0-7.4 37.5l-4.6 23.1a4.6 4.6 0 0 0 4.5 5.5h8.5l4-20c1.9.7 4 1.1 6 1.3l-2 10.5h14l2.8-14a25.5 25.5 0 0 0 7.4-37.3ZM100 110c-1.7 0-3.3-.5-4.8-1.3a9.8 9.8 0 1 1 4.8 1.3Z"/>
  <circle cx="161.7" cy="134.8" r="27"/>
  <path fill="#fff" d="m164.1 131.6 12.7-12.7-4.8-4.8-10.3 10.3-10.2-10.3-4.8 4.8 12.6 12.7a3.4 3.4 0 0 0 4.8 0Zm18.3 13.5-10.2-10.3 10.2-10.2-4.8-4.8-12.6 12.6a3.4 3.4 0 0 0 0 4.8l12.6 12.7 4.8-4.8Zm-20.7.2 10.3 10.2 4.8-4.8-12.7-12.6a3.4 3.4 0 0 0-4.8 0l-12.6 12.6 4.8 4.8 10.2-10.2Zm-3.2-8a3.4 3.4 0 0 0 0-4.9l-12.7-12.6-4.8 4.8 10.3 10.2-10.2 10.3 4.7 4.8 12.7-12.7Z"/>
</svg>
