<?xml version="1.0" encoding="UTF-8"?><svg xmlns="http://www.w3.org/2000/svg" xmlns:xlink="http://www.w3.org/1999/xlink" viewBox="0 0 200 200"><defs><linearGradient id="b" x1="-3136.78" y1="-4048.91" x2="-2996.77" y2="-4188.92" gradientTransform="translate(5098.09 -1078.84) rotate(40.06) scale(1 -1)" gradientUnits="userSpaceOnUse"><stop offset="0" stop-color="#7cd1f2"/><stop offset="1" stop-color="#6dc39b"/></linearGradient><linearGradient id="c" x1="-3047.61" y1="-8776.01" x2="-2922.72" y2="-8900.89" gradientTransform="translate(9401.42 816.24) rotate(75.74) scale(1 -1)" xlink:href="#b"/></defs><g id="a"><circle cx="100" cy="100" r="99" style="fill:url(#b);"/><circle cx="100" cy="100" r="88.29" style="fill:url(#c);"/><path d="m120.45,84.84l4.63-23.37c.57-2.84-1.62-5.5-4.51-5.5h-8.45l-3.97,20.02c-1.94-.65-3.98-1.06-6.09-1.22l2.1-10.59h-14.05l-2.76,13.94c-7.6,4.41-12.71,12.63-12.71,22.04,0,5.83,1.97,11.21,5.27,15.5l-4.59,23.14c-.57,2.84,1.61,5.5,4.51,5.5h8.45l3.95-19.91c1.94.63,3.98,1.03,6.1,1.18l-2.09,10.52h14.05l2.78-13.99c7.49-4.43,12.52-12.6,12.52-21.93,0-5.76-1.91-11.06-5.13-15.33Zm-20.34,25.14c-1.74,0-3.36-.46-4.78-1.24-3-1.68-5.04-4.88-5.04-8.57,0-5.03,3.79-9.17,8.66-9.74.38-.04.76-.07,1.15-.07,1.8,0,3.48.49,4.93,1.34,2.92,1.7,4.88,4.85,4.88,8.47,0,4.97-3.7,9.07-8.49,9.71-.44.06-.87.1-1.32.1Z" style="fill:#fff;"/></g><g id="d"><circle cx="161.73" cy="134.82" r="27"/><path d="m164.14,131.55l12.64-12.64-4.79-4.79-10.24,10.24-10.24-10.24-4.79,4.79,12.63,12.64c.66.66,1.53.99,2.4.99s1.73-.33,2.4-.99Zm18.29,13.5l-10.24-10.24,10.24-10.24-4.79-4.79-12.63,12.64c-1.32,1.32-1.32,3.47,0,4.79l12.63,12.64,4.79-4.79h0Zm-20.7.23l10.24,10.24,4.79-4.79-12.63-12.64c-1.32-1.32-3.47-1.32-4.79,0l-12.63,12.64,4.79,4.79,10.24-10.24h0Zm-3.26-8.05c.64-.64.99-1.5.99-2.4s-.36-1.76-.99-2.4l-12.63-12.64-4.79,4.79,10.24,10.24-10.24,10.24,4.79,4.79,12.63-12.64h0Z" style="fill:#fff;"/></g></svg>