<?xml version="1.0" encoding="UTF-8"?><svg xmlns="http://www.w3.org/2000/svg" viewBox="0 0 200 200"><g id="a"><path d="m145.42,18.43c-5.1,5.1-9.76,10.61-13.91,16.5l-1.31-.43c-7.57-2.47-15.41-4-23.31-4.52-2.38-.18-11.26-.18-14.16,0-8.75.58-15.46,1.89-23.09,4.55l-.85.31c-4.3-5.86-9.09-11.35-14.37-16.38,25.32-12.96,54.94-14.52,81.45-4.3,2.83,1.07,5.62,2.32,8.33,3.66,0,0,1.22.61,1.22.61Z" style="fill:#f00500;"/><path d="m192.65,134.14c-3.85,10.95-9.61,21.11-17.08,29.96-4.06,4.76-8.55,9.12-13.36,13.09-11.29,9.09-24.46,15.59-38.53,19-15.56,3.75-31.79,3.75-47.34,0-14.09-3.42-27.24-9.92-38.53-19-4.82-3.97-9.31-8.33-13.36-13.09C2.94,138.68-3.59,103.78,7.36,72.34c2.07-5.83,4.67-11.44,7.78-16.78,1.43-2.44,3.2-5.18,4.06-6.32,2.93,12.6,6.53,23.67,7.87,27.67l-.33.67c-7.11,14.4-10.95,28.28-11.86,43.04l-.03.58c-.24,4.42-.12,6.53.61,9.31,2.29,8.69,9.34,18.27,20.38,27.67,18.09,15.38,42.62,26.48,61.2,27.76,19.37,1.31,47.95-10,66.99-26.54,2.99-2.66,5.79-5.46,8.42-8.45,1.89-2.19,4.69-5.98,4.48-5.98l.12-.12.12-.21.12-.15.12-.15.12-.15.09-.18.06-.12.12-.15.12-.15.12-.12.4-.7c.46-.7,2.29-3.97,2.53-4.52,1.74-3.93,2.83-7.44,3.36-10.95.24-1.68.4-4.76.28-5.49l-.06-.67c-.06-.61-.09-1.53-.15-2.44-.06-1.38-.18-3.29-.28-4.24-1.31-13.85-4.85-25.17-11.56-37.16l-.67-1.28-.12-.24c.95-2.83,4.82-14.7,7.9-28.28l.06.06.46.61c.79,1.07,2.9,4.24,3.85,5.76,4.3,7.02,7.65,14.55,10.04,22.42,5.52,18.95,5.06,39.14-1.41,57.81h.01Z" style="fill:#f00500;"/><path d="m153.05,97.68c-.09.49-1.53,1.95-2.96,3.02-4.21,3.08-11.74,5.95-19.4,7.32-4.36.79-8.72.92-10.04.28-.85-.43-.97-.76-.67-1.86.64-2.29,2.71-4.79,5.95-7.14,1.65-1.19,8.33-5.25,11.44-6.96,5.12-2.81,9.27-4.48,12.08-4.88.89-.12,1.95-.15,2.29,0,.55.21,1.16,1.83,1.41,3.78.12,1.04.06,5.62-.09,6.43h0Z"/><path d="m81.18,107.78c-.18.36-1.1.76-2.14.92-1.04.15-4.21.06-6.01-.15-6.47-.85-13.33-2.83-18.34-5.28-2.81-1.38-4.82-2.75-6.32-4.24l-.85-.89-.09-1.16c-.15-2.02-.12-5.19.12-6.32.15-.95.49-1.86.94-2.68.16-.2.61-.31,1.34-.31,1.34,0,2.47.21,4.3.79,3.75,1.16,9.34,3.97,16.14,8.06,5.62,3.36,7.72,5,9.34,7.26,1.1,1.41,1.83,3.39,1.56,4Z"/><path d="m124.38,150.25c0,.09-.36,1.55-.82,3.29-.46,1.74-.82,3.14-.82,3.2l-.98.03h-.98l-1.34,3.17c-.73,1.74-1.41,3.36-1.5,3.6l-.18.43-.64-1.04-.64-1.04v-8.45l-.24.06c-.52.12-4.21.61-5.83.76-6.68.67-13.39.52-20.04-.43-1.07-.15-1.98-.28-2.01-.24s0,1.99.06,4.39l.09,4.34-.52.79-.55.82c-.09.09-.4-.4-1.1-1.8-.76-1.46-1.31-3.02-1.71-4.64l-.21-.89-.95.06-.94.09-.24-1.13c-.12-.61-.28-1.56-.33-2.07l-.09-.97-.79-.7-1.01-.85-.21-.52v-.36l3.81.03,3.81.03.12.4.12.4,1.31.06c.73.03,3.05.09,5.13.15l3.81.09.97-1.52,1.01-1.53h1.28l-.03-3.17-.03-3.17-1.68-.73c-5.4-2.38-8.57-5.1-9.76-8.39-.24-.67-.24-.92-.31-3.97-.03-3.02-.03-3.29.18-3.97.43-1.53,1.62-2.71,3.14-3.11.52-.15,1.89-.15,9.09-.15l8.48.03.94.46c1.13.55,1.65.94,2.29,1.8.73.98.94,1.74.94,3.6,0,2.65-.18,4.94-.46,5.86-.4,1.25-1.01,2.44-1.77,3.51-1.53,1.95-4.3,3.91-6.84,4.79l-.73.28.03,3.2.03,3.2.67.06.67.06.92,1.38.88,1.37h4.09c2.26,0,4.24.03,4.42.06.31.06.36.03.67-.49l.36-.55h3.51c2.62-.12,3.42-.06,3.42.03l.02-.02Z"/><path d="m108.27,159c-.58.33-.97.49-1.07.43l-.98-.73-.82-.67-.85.92c-1.86,2.01-1.92,2.11-2.47,2.14-.85.09-1.04-.06-2.07-1.62-.55-.79-.98-1.46-.98-1.46l-.85-.09-.85-.09-.4.82-.4.82-.7-.21c-.55-.18-1.09-.4-1.62-.64l-.92-.46v-1.74l8.11.03,8.12.03.03.82c.03.98.06.95-1.28,1.71h0Z"/><path d="m184.53,121.79l-.06-.67c-7.32-.79-28.22-1.28-47.62,14.74,0,0-6.25-28.67-35.54-28.67s-40.15,28.67-40.15,28.67c-16.41-17.66-38.38-16.38-46.31-15.22l-.03.58c-.24,4.42-.12,6.53.61,9.31,2.29,8.69,9.34,18.27,20.38,27.67,18.09,15.38,42.62,26.48,61.2,27.76,19.37,1.31,47.95-10,66.99-26.54,2.99-2.66,5.79-5.46,8.42-8.45,1.89-2.19,4.69-5.98,4.48-5.98l.12-.12.12-.21.12-.15.12-.15.12-.15.09-.18.06-.12.12-.15.12-.15.12-.12.4-.7c.46-.7,2.29-3.97,2.53-4.52,1.74-3.93,2.83-7.44,3.36-10.95.18-1.68.33-4.76.21-5.49l.02-.02Zm-76.27,37.22c-.58.33-.97.49-1.07.43l-.98-.73-.82-.67-.85.92c-1.86,2.01-1.92,2.11-2.47,2.14-.85.09-1.04-.06-2.07-1.62-.55-.79-.98-1.46-.98-1.46l-.85-.09-.85-.09-.4.82-.4.82-.7-.21c-.55-.18-1.09-.4-1.62-.64l-.92-.46v-1.74l8.11.03,8.12.03.03.82c.03.98.06.95-1.28,1.71h0Zm15.25-5.49c-.46,1.74-.82,3.14-.82,3.2l-.98.03h-.98l-1.31,3.2c-.73,1.74-1.41,3.36-1.5,3.6l-.18.43-.64-1.04-.64-1.04v-8.45l-.24.06c-.52.12-4.21.61-5.83.76-6.68.67-13.39.52-20.04-.43-1.07-.15-1.98-.28-2.01-.24s0,1.99.06,4.39l.09,4.34-.52.79-.55.82c-.09.09-.4-.4-1.1-1.8-.76-1.46-1.31-3.02-1.71-4.64l-.21-.89-.95.06-.94.09-.24-1.13c-.12-.61-.28-1.56-.33-2.07l-.09-.97-.79-.7-1.01-.85-.21-.52v-.36l3.81.03,3.81.03.12.4.12.4,1.31.06c.73.03,3.05.09,5.13.15l3.81.09.97-1.52,1.01-1.53h1.28l-.03-3.17-.03-3.17-1.68-.73c-5.4-2.38-8.57-5.1-9.76-8.39-.24-.67-.24-.92-.31-3.97-.03-3.02-.03-3.29.18-3.97.43-1.53,1.62-2.71,3.14-3.11.52-.15,1.89-.15,9.09-.15l8.48.03.94.46c1.13.55,1.65.94,2.29,1.8.73.98.94,1.74.94,3.6,0,2.65-.18,4.94-.46,5.86-.4,1.25-1.01,2.44-1.77,3.51-1.53,1.95-4.3,3.91-6.84,4.79l-.73.28.03,3.2.03,3.2.67.06.67.06.92,1.38.88,1.37h4.09c2.26,0,4.24.03,4.42.06.31.06.36.03.67-.49l.36-.55h3.51c2.71,0,3.51.03,3.51.12-.09-.03-.49,1.46-.95,3.17l.03-.02Z" style="fill:#fff;"/><path d="m184.29,118.67c-.06-1.38-.18-3.29-.28-4.24-1.31-13.85-4.85-25.17-11.56-37.16l-.67-1.28-.12-.24c.95-2.83,4.82-14.7,7.9-28.28,4.18-18.43,6.84-39.96-1.28-46.43,0,0-14.03-1.04-32.83,17.39-5.1,5.1-9.76,10.61-13.91,16.5l-1.31-.43c-7.57-2.47-15.41-4-23.31-4.52-2.38-.18-11.26-.18-14.16,0-8.75.58-15.46,1.89-23.09,4.55l-.85.31c-4.3-5.86-9.09-11.35-14.37-16.38C34.9-.05,20.36,1.01,20.36,1.01c-8.6,6.68-5.67,29.19-1.22,48.23,2.93,12.6,6.53,23.67,7.87,27.67l-.33.67c-7.11,14.4-10.95,28.28-11.86,43.04,7.96-1.16,29.9-2.47,46.34,15.22,0,0,10.86-28.67,40.15-28.67s35.54,28.67,35.54,28.67c19.4-16.02,40.3-15.5,47.62-14.74-.03-.61-.09-1.53-.15-2.44h-.01ZM32.77,65.41s-11.41-28.53-8.48-44.82c.49-2.75,1.41-5.15,2.83-6.99,0,0,12.93,1.28,33.8,24.47,0,0-3.97,1.92-9.27,6.01l-.06.03c-5.76,4.42-13.15,11.44-18.82,21.29h0Zm48.42,42.37c-.18.36-1.1.76-2.14.92-1.04.15-4.21.06-6.01-.15-6.47-.85-13.33-2.83-18.34-5.28-2.81-1.38-4.82-2.75-6.32-4.24l-.85-.89-.09-1.16c-.15-2.02-.12-5.19.12-6.32.15-.95.49-1.86.94-2.68.16-.2.61-.31,1.34-.31,1.34,0,2.47.21,4.3.79,3.75,1.16,9.34,3.97,16.14,8.06,5.62,3.36,7.72,5,9.34,7.26,1.1,1.41,1.83,3.39,1.56,4Zm71.87-10.1c-.09.49-1.53,1.95-2.96,3.02-4.21,3.08-11.74,5.95-19.4,7.32-4.36.79-8.72.92-10.04.28-.85-.43-.97-.76-.67-1.86.64-2.29,2.71-4.79,5.95-7.14,1.65-1.19,8.33-5.25,11.44-6.96,5.12-2.81,9.27-4.48,12.08-4.88.89-.12,1.95-.15,2.29,0,.55.21,1.16,1.83,1.41,3.78.12,1.04.06,5.62-.09,6.43h0Zm-5.06-53.6l-.06-.03c-5.13-4.09-8.97-6.01-8.97-6.01,20.16-23.19,32.64-24.47,32.64-24.47,1.37,1.86,2.26,4.24,2.75,6.99,2.83,16.29-8.18,44.84-8.18,44.84-4.61-8.21-10.8-15.46-18.18-21.32Z" style="fill:#ffa409;"/><path d="m174.38,20.57c-2.38-.31-13.64-.36-26.39,23.52l-.06-.03c-5.13-4.09-8.97-6.01-8.97-6.01,20.16-23.19,32.64-24.47,32.64-24.47,1.4,1.86,2.29,4.24,2.78,6.99h0Z" style="fill:#ff9300;"/><path d="m166.2,65.41c-4.64-8.24-10.8-15.46-18.22-21.32,12.75-23.88,23.98-23.83,26.39-23.52,2.83,16.32-8.18,44.84-8.18,44.84h0Z" style="fill:#ff8300;"/><path d="m174.83,20.66l-.46-.09.46.09Z" style="fill:#ff8300;"/><path d="m60.93,38.05s-3.97,1.92-9.27,6.01l-.06.03c-13.2-23.92-24.83-23.82-27.33-23.52.49-2.75,1.41-5.15,2.83-6.99.03,0,12.96,1.28,33.83,24.47Z" style="fill:#ff9300;"/><path d="m51.62,44.09c-5.79,4.45-13.18,11.44-18.85,21.32,0,0-11.41-28.52-8.48-44.84,2.47-.31,14.13-.36,27.33,23.52h0Z" style="fill:#ff8300;"/><path d="m24.29,20.57l-.49.09.49-.09Z" style="fill:#ff8300;"/><path d="m135.33,81.24s-9.76.61-8.55-7.02c1.22-7.63,8.85-8.54,10.98-8.24s10.68,3.36,9.15,9.76-3.66,5.19-4.88,5.49c-1.22.31-6.71,0-6.71,0h0Z" style="fill:#fff;"/><path d="m63.34,81.24s-9.76.61-8.55-7.02c1.22-7.63,8.85-8.54,10.98-8.24s10.68,3.36,9.15,9.76c-1.53,6.4-3.66,5.19-4.88,5.49-1.22.31-6.71,0-6.71,0h0Z" style="fill:#fff;"/></g><g id="b"><circle cx="161.73" cy="134.82" r="27"/><path d="m164.14,131.55l12.64-12.64-4.79-4.79-10.24,10.24-10.24-10.24-4.79,4.79,12.63,12.64c.66.66,1.53.99,2.4.99s1.73-.33,2.4-.99Zm18.29,13.5l-10.24-10.24,10.24-10.24-4.79-4.79-12.63,12.64c-1.32,1.32-1.32,3.47,0,4.79l12.63,12.64,4.79-4.79h0Zm-20.7.23l10.24,10.24,4.79-4.79-12.63-12.64c-1.32-1.32-3.47-1.32-4.79,0l-12.63,12.64,4.79,4.79,10.24-10.24h0Zm-3.26-8.05c.64-.64.99-1.5.99-2.4s-.36-1.76-.99-2.4l-12.63-12.64-4.79,4.79,10.24,10.24-10.24,10.24,4.79,4.79,12.63-12.64h0Z" style="fill:#fff;"/></g></svg>