<svg xmlns="http://www.w3.org/2000/svg" viewBox="0 0 200 200">
  <path fill="#f00500" d="M145.4 18.4c-5 5.1-9.7 10.6-13.9 16.5l-1.3-.4A95.4 95.4 0 0 0 92.7 30c-8.7.6-15.4 1.9-23 4.5l-1 .3a116 116 0 0 0-14.3-16.3 99.9 99.9 0 0 1 89.8-.7l1.2.6Zm47.3 115.7a95.5 95.5 0 0 1-30.5 43 98.5 98.5 0 0 1-85.9 19 98.6 98.6 0 0 1-51.9-32 94.2 94.2 0 0 1-5.2-114.9A318 318 0 0 0 27.1 77l-.4.7c-7 14.4-11 28.3-11.8 43v.6a24 24 0 0 0 .6 9.3 59.8 59.8 0 0 0 20.3 27.7C54 173.6 78.5 184.7 97 185.9c19.4 1.3 48-10 67-26.5 3-2.7 5.8-5.5 8.5-8.4a46 46 0 0 0 4.4-6l.1-.1.2-.3v-.1l.2-.2.1-.1.1-.2v-.1l.2-.2.1-.1.1-.1.4-.7 2.6-4.6a42 42 0 0 0 3.6-16.4v-.7l-.2-2.4-.3-4.2a89.5 89.5 0 0 0-11.5-37.2l-.7-1.3-.1-.2c1-2.9 4.8-14.7 7.9-28.3l.5.7A96.6 96.6 0 0 1 194 76.4c5.5 18.9 5 39-1.4 57.8Z"/>
  <path d="M153 97.7c0 .5-1.5 2-3 3a51 51 0 0 1-19.3 7.3 24 24 0 0 1-10 .3c-.9-.4-1-.8-.7-1.9.6-2.2 2.7-4.7 6-7.1 1.6-1.2 8.3-5.2 11.4-7 5-2.8 9.2-4.4 12-4.8 1-.2 2-.2 2.3 0 .6.2 1.2 1.8 1.5 3.7l-.1 6.5Zm-71.8 10.1c-.2.3-1.1.7-2.2.9-1 .1-4.2 0-6-.1a62.8 62.8 0 0 1-18.3-5.3 23.4 23.4 0 0 1-6.3-4.3l-.9-.9V97c-.2-2-.2-5.2 0-6.3a8 8 0 0 1 1-2.7c.1-.2.6-.3 1.3-.3 1.4 0 2.5.2 4.3.8a84 84 0 0 1 16.2 8 28 28 0 0 1 9.3 7.3c1.1 1.4 1.8 3.4 1.6 4Zm43.2 42.5a69.4 69.4 0 0 1-1.7 6.4h-2l-1.3 3.2-1.5 3.6-.1.5-.7-1-.6-1.1v-8.5l-.3.1-5.8.8a83 83 0 0 1-20-.5l-2-.2v4.4l.1 4.3-.5.8-.6.8a20.8 20.8 0 0 1-2.8-6.4l-.2-.9h-1l-.9.1-.2-1-.3-2.2-.1-1-.8-.6-1-.9-.2-.5v-.4h3.8l3.8.1.1.4.1.4H89l5.2.2 3.8.1 1-1.5 1-1.5h1.2v-6.4l-1.7-.7c-5.4-2.4-8.6-5.1-9.8-8.4-.2-.7-.2-1-.3-4 0-3 0-3.3.2-4a4.4 4.4 0 0 1 3.1-3c.6-.2 2-.2 9.1-.2h8.5l1 .5c1 .5 1.6 1 2.2 1.8.8 1 1 1.7 1 3.6 0 2.6-.2 5-.5 5.8-.4 1.3-1 2.5-1.7 3.6-1.6 2-4.3 3.9-6.9 4.7l-.7.3v6.4h.7l.7.1.9 1.4.9 1.4h8.5c.3.1.4 0 .7-.4l.3-.6h7Z"/>
  <path d="M108.3 159c-.6.3-1 .5-1.1.4l-1-.7-.8-.7-.8 1c-2 2-2 2-2.5 2-.9.2-1 0-2-1.5l-1-1.5h-1l-.8-.2-.4.8-.4.9-.7-.2-1.6-.7-1-.4v-1.8h16.4v.9c0 1 .1 1-1.2 1.7Z"/>
  <path fill="#fff" d="M184.5 121.8v-.7a64.9 64.9 0 0 0-47.6 14.8s-6.3-28.7-35.6-28.7-40.1 28.7-40.1 28.7a52.7 52.7 0 0 0-46.4-15.3v.6c-.2 4.4-.1 6.6.6 9.3a59.8 59.8 0 0 0 20.4 27.7C54 173.6 78.4 184.7 97 186c19.4 1.3 48-10 67-26.6 3-2.6 5.8-5.4 8.4-8.4a46 46 0 0 0 4.5-6l.1-.1.1-.2.2-.2v-.1l.2-.2v-.2h.2v-.2l.2-.2.1-.1.4-.7 2.5-4.5c1.8-4 2.9-7.5 3.4-11 .2-1.7.3-4.7.2-5.5ZM108.3 159c-.6.3-1 .5-1.1.4l-1-.7-.8-.7-.9 1c-1.8 2-1.9 2-2.4 2.1-.9 0-1 0-2.1-1.6l-1-1.5h-.8l-.9-.2-.4.9-.4.8-.7-.2-1.6-.7-1-.4v-1.8h16.4v1c0 .9.1.9-1.2 1.6Zm15.2-5.5-.8 3.2h-2l-1.3 3.2-1.5 3.6-.2.5-.6-1-.6-1.1v-8.5l-.3.1-5.8.8a83 83 0 0 1-20-.5l-2-.2v8.7l-.4.8-.6.8a20.8 20.8 0 0 1-2.8-6.4l-.2-.9h-1l-.9.2-.2-1.2-.4-2v-1l-.8-.7-1-.9-.3-.5v-.3h7.7v.4l.2.4H89l5.1.2 3.9.1 1-1.5 1-1.5h1.2v-6.4l-1.7-.7c-5.4-2.4-8.6-5.1-9.8-8.4-.2-.7-.2-1-.3-4 0-3 0-3.3.2-4a4.4 4.4 0 0 1 3.1-3c.5-.2 2-.2 9.1-.2h8.5l1 .5c1 .6 1.6 1 2.2 1.8.8 1 1 1.7 1 3.6 0 2.6-.2 5-.5 5.9a13 13 0 0 1-1.8 3.5 16 16 0 0 1-6.8 4.8l-.7.2v6.4l.7.1h.7l.9 1.4.9 1.4h8.5c.3.1.3.1.6-.4l.4-.6h3.5l3.5.1-1 3.2h.1Z"/>
  <path fill="#ffa409" d="m184.3 118.7-.3-4.3a89.5 89.5 0 0 0-11.6-37.1l-.6-1.3-.1-.2c1-2.9 4.8-14.7 7.9-28.3 4.1-18.5 6.8-40-1.3-46.5 0 0-14-1-32.9 17.4-5 5.1-9.7 10.6-13.9 16.5l-1.3-.4A95.4 95.4 0 0 0 92.8 30c-8.8.6-15.5 1.9-23.1 4.5l-.9.3c-4.3-5.8-9-11.3-14.4-16.3C35-.1 20.4 1 20.4 1c-8.6 6.7-5.7 29.2-1.3 48.2a318 318 0 0 0 8 27.7l-.4.7c-7.1 14.4-11 28.3-11.9 43 8-1.1 30-2.4 46.4 15.2 0 0 10.8-28.6 40.1-28.6s35.6 28.6 35.6 28.6a65 65 0 0 1 47.6-14.7l-.2-2.4ZM32.8 65.4S21.4 37 24.3 20.6a16 16 0 0 1 2.8-7s13 1.3 33.8 24.5c0 0-4 1.9-9.2 6h-.1a73.3 73.3 0 0 0-18.8 21.3Zm48.4 42.4c-.2.3-1.1.7-2.1.9-1 .1-4.3 0-6-.1a62.8 62.8 0 0 1-18.4-5.3 23.4 23.4 0 0 1-6.3-4.3l-.9-.9V97c-.2-2-.2-5.2 0-6.3a8 8 0 0 1 1-2.7c.2-.2.6-.3 1.3-.3 1.4 0 2.5.2 4.3.8a84 84 0 0 1 16.2 8 28 28 0 0 1 9.3 7.3c1.1 1.4 1.9 3.4 1.6 4ZM153 97.7c-.1.5-1.6 2-3 3a51 51 0 0 1-19.4 7.3 24 24 0 0 1-10 .3c-.9-.4-1-.8-.7-1.9.6-2.2 2.7-4.7 6-7.1 1.6-1.2 8.3-5.2 11.4-7 5.1-2.8 9.2-4.4 12-4.8 1-.2 2-.2 2.4 0 .5.2 1.1 1.8 1.4 3.7l-.1 6.5ZM148 44c-5.2-4.1-9-6-9-6 20.1-23.2 32.6-24.5 32.6-24.5 1.4 1.8 2.3 4.2 2.8 7 2.8 16.3-8.2 44.8-8.2 44.8A72.7 72.7 0 0 0 148 44.1Z"/>
  <path fill="#ff9300" d="M174.4 20.6c-2.4-.3-13.7-.4-26.4 23.5-5.2-4.1-9-6-9-6 20.1-23.2 32.6-24.5 32.6-24.5 1.4 1.8 2.3 4.2 2.8 7Z"/>
  <path fill="#ff8300" d="M166.2 65.4A72.3 72.3 0 0 0 148 44.1c12.7-23.9 24-23.8 26.4-23.5 2.8 16.3-8.2 44.8-8.2 44.8Zm8.6-44.7-.4-.1h.4Z"/>
  <path fill="#ff9300" d="M61 38s-4 2-9.3 6h-.1C38.4 20.3 26.8 20.4 24.3 20.7a16 16 0 0 1 2.8-7s13 1.3 33.8 24.4Z"/>
  <path fill="#ff8300" d="M51.6 44a73.1 73.1 0 0 0-18.8 21.4S21.4 37 24.3 20.6c2.5-.3 14.1-.4 27.3 23.5ZM24.3 20.6h-.5.5Z"/>
  <path fill="#fff" d="M135.3 81.2s-9.7.6-8.5-7c1.2-7.6 8.8-8.5 11-8.2s10.6 3.3 9.1 9.7-3.6 5.2-4.9 5.5c-1.2.3-6.7 0-6.7 0Zm-72 0s-9.7.6-8.5-7c1.2-7.6 8.8-8.5 11-8.2s10.7 3.3 9.1 9.7c-1.5 6.4-3.6 5.2-4.9 5.5-1.2.3-6.7 0-6.7 0Z"/>
  <circle cx="161.7" cy="134.8" r="27"/>
  <path fill="#fff" d="m164.1 131.6 12.7-12.7-4.8-4.8-10.3 10.3-10.2-10.3-4.8 4.8 12.6 12.7a3.4 3.4 0 0 0 4.8 0Zm18.3 13.5-10.2-10.3 10.2-10.2-4.8-4.8-12.6 12.6a3.4 3.4 0 0 0 0 4.8l12.6 12.7 4.8-4.8Zm-20.7.2 10.3 10.2 4.8-4.8-12.7-12.6a3.4 3.4 0 0 0-4.8 0l-12.6 12.6 4.8 4.8 10.2-10.2Zm-3.2-8a3.4 3.4 0 0 0 0-4.9l-12.7-12.6-4.8 4.8 10.3 10.2-10.2 10.3 4.7 4.8 12.7-12.7Z"/>
</svg>
