<?xml version="1.0" encoding="UTF-8"?><svg xmlns="http://www.w3.org/2000/svg" viewBox="0 0 200 200"><g id="a"><circle cx="100" cy="100" r="99" style="fill:#50af95;"/><path d="m112.53,113.37h0c-.7.05-4.31.27-12.39.27-6.42,0-10.97-.19-12.57-.27h0c-24.8-1.09-43.31-5.41-43.31-10.58s18.51-9.48,43.31-10.59v16.87c1.62.11,6.26.39,12.68.39,7.7,0,11.56-.32,12.25-.39v-16.86c24.74,1.1,43.22,5.42,43.22,10.58s-18.46,9.47-43.22,10.57h.03Zm0-22.89v-15.09h34.54v-23.01H53.04v23.01h34.53v15.08c-28.06,1.29-49.17,6.85-49.17,13.51s21.11,12.21,49.17,13.51v48.36h24.95v-48.38c28-1.29,49.07-6.84,49.07-13.5s-21.05-12.21-49.07-13.51h0Z" style="fill:#fff; fill-rule:evenodd;"/></g><g id="b"><circle cx="161.73" cy="134.82" r="27"/><path d="m164.14,131.55l12.64-12.64-4.79-4.79-10.24,10.24-10.24-10.24-4.79,4.79,12.63,12.64c.66.66,1.53.99,2.4.99s1.73-.33,2.4-.99Zm18.29,13.5l-10.24-10.24,10.24-10.24-4.79-4.79-12.63,12.64c-1.32,1.32-1.32,3.47,0,4.79l12.63,12.64,4.79-4.79h0Zm-20.7.23l10.24,10.24,4.79-4.79-12.63-12.64c-1.32-1.32-3.47-1.32-4.79,0l-12.63,12.64,4.79,4.79,10.24-10.24h0Zm-3.26-8.05c.64-.64.99-1.5.99-2.4s-.36-1.76-.99-2.4l-12.63-12.64-4.79,4.79,10.24,10.24-10.24,10.24,4.79,4.79,12.63-12.64h0Z" style="fill:#fff;"/></g></svg>