<svg xmlns="http://www.w3.org/2000/svg" viewBox="0 0 200 200">
  <path fill="#2775ca" d="M100 199c54.9 0 99-44.1 99-99S154.9 1 100 1 1 45.1 1 100s44.1 99 99 99Z"/>
  <path fill="#fff" d="M127.2 115.7c0-14.5-8.6-19.4-26-21.5-12.3-1.6-14.8-5-14.8-10.7S90.5 74 98.8 74c7.4 0 11.5 2.5 13.6 8.7a3 3 0 0 0 2.9 2h6.6c1.6 0 2.9-1.2 2.9-2.8v-.5c-1.7-9-9.1-16-18.6-16.9v-9.9c0-1.6-1.2-2.9-3.3-3.3h-6.2c-1.6 0-2.9 1.3-3.3 3.3v9.5c-12.4 1.7-20.2 10-20.2 20.2 0 13.6 8.3 19 25.6 21 11.5 2.1 15.2 4.6 15.2 11.2s-5.7 11.1-13.6 11.1c-10.7 0-14.4-4.5-15.6-10.7a3.1 3.1 0 0 0-3-2.5h-7a2.8 2.8 0 0 0-2.8 3v.3c1.6 10.3 8.2 17.8 21.8 19.8v10c0 1.6 1.3 2.8 3.3 3.2h6.2c1.7 0 3-1.2 3.3-3.3v-9.9c12.4-2 20.6-10.7 20.6-21.8Z"/>
  <path fill="#fff" d="M79 159a61.4 61.4 0 0 1-36.7-79.2A61 61 0 0 1 79 43c1.6-.8 2.4-2 2.4-4.1v-5.8c0-1.7-.8-3-2.4-3.3a74.1 74.1 0 0 0-1.7 141.9c1.7.8 3.3 0 3.7-1.7.4-.4.4-.8.4-1.6v-5.8c0-1.2-1.2-2.9-2.4-3.7Zm43.7-128.7c-1.7-.8-3.3 0-3.7 1.6-.4.4-.4.9-.4 1.7v5.8c0 1.6 1.2 3.3 2.4 4a61.4 61.4 0 0 1 36.8 79.3 61 61 0 0 1-36.8 36.7c-1.6.8-2.4 2-2.4 4.1v5.8c0 1.6.8 2.9 2.4 3.3.4 0 1.3 0 1.7-.4A74.1 74.1 0 0 0 170.9 79a74.8 74.8 0 0 0-48.2-48.7Z"/>
  <circle cx="161.7" cy="134.8" r="27"/>
  <path fill="#fff" d="m164.1 131.6 12.7-12.7-4.8-4.8-10.3 10.3-10.2-10.3-4.8 4.8 12.6 12.7a3.4 3.4 0 0 0 4.8 0Zm18.3 13.5-10.2-10.3 10.2-10.2-4.8-4.8-12.6 12.6a3.4 3.4 0 0 0 0 4.8l12.6 12.7 4.8-4.8Zm-20.7.2 10.3 10.2 4.8-4.8-12.7-12.6a3.4 3.4 0 0 0-4.8 0l-12.6 12.6 4.8 4.8 10.2-10.2Zm-3.2-8a3.4 3.4 0 0 0 0-4.9l-12.7-12.6-4.8 4.8 10.3 10.2-10.2 10.3 4.7 4.8 12.7-12.7Z"/>
</svg>
