<svg xmlns="http://www.w3.org/2000/svg" viewBox="0 0 200 200">
  <circle cx="100" cy="100" r="99" fill="#fff"/>
  <path fill="#ff007a" d="M87.6 62.2c-1.4-.2-1.5-.3-.8-.3 1.3-.2 4.4 0 6.5.5a28 28 0 0 1 14.2 9.5l1.2 1.5 1.8-.3a38.3 38.3 0 0 1 27.1 5.7l.5 1.9c.4 3.2.2 5.7-.8 7.5-.5 1-.5 1.3-.2 2.2.3.7 1.1 1.2 1.9 1.2 1.6 0 3.3-2.6 4.2-6.3l.3-1.4.6.7a27 27 0 0 1 6.7 13.2l.2 1-.7-.8c-1-1.6-2-2.7-3.3-3.6-2.3-1.6-4.8-2-11.3-2.4-6-.3-9.4-.8-12.7-2-5.6-1.8-8.5-4.2-15.2-13a62 62 0 0 0-6.7-8 23 23 0 0 0-13.5-6.8Z"/>
  <path fill="#ff007a" d="M139 71a14.9 14.9 0 0 1 1.9-7.1s0 .4-.3 1c-.5 1.5-.6 3.7-.3 6 .5 3.2.7 3.6 4 7 1.6 1.6 3.3 3.6 4 4.4l1.2 1.5-1.2-1c-1.4-1.5-4.7-4-5.5-4.4-.5-.3-.5-.3-.9 0-.3.3-.3.7-.3 2.7 0 3.1-.5 5-1.5 7-.6 1.1-.7.9-.2-.3.4-.9.4-1.3.4-4.3 0-6-.7-7.4-4.9-9.8a50.9 50.9 0 0 0-5.7-3 52.7 52.7 0 0 1 8.8 2.8c.3-.3.4-.8.5-2.5ZM90.5 81.3a24 24 0 0 1-4.4-14.9l.2-1.4.7.1c1.2.2 3.3 1 4.4 1.7 2.7 1.6 4 3.9 5.1 9.6l1 4.2a34 34 0 0 0 2.8 5c.8 1 .3 1.6-1.4 1.5-2.6-.3-6.2-2.7-8.4-5.8Zm45 30C122 105.7 117 101 117 92.9l.1-2.1 1.2.9c2.7 2.2 5.8 3.1 14.5 4.4 5 .7 7.9 1.3 10.5 2.2 8.4 2.8 13.5 8.4 14.8 16a28 28 0 0 1-.4 8.7c-.5 1.7-1.9 4.9-2.2 5-.1 0-.2-.4-.2-1-.2-2.8-1.6-5.6-4-7.7a54.8 54.8 0 0 0-15.8-8Zm-9.6 2.2-.7-2.9-.4-1 .7.8c.9 1 1.5 2.2 2.2 4 .4 1.3.4 1.7.4 3.8s0 2.6-.4 3.8c-.7 1.8-1.6 3.1-3 4.6a16 16 0 0 1-10.3 4.5l-5.2.4a40.8 40.8 0 0 0-12.7 2.2c-.1-.2 2-1.4 3.8-2.2 2.4-1.2 4.9-1.8 10.3-2.8a46 46 0 0 0 6.2-1.2c6.8-2.2 10.2-7.5 9-14Z"/>
  <path fill="#ff007a" d="M132.1 124.7a16 16 0 0 1-1.2-11.2c.1-.4.3-.7.4-.7l1 .5 7 3.9a39 39 0 0 1 11 8c1.8 2.4 3 5.1 3.6 8.4.3 1.9.1 6.4-.4 8.2a20.3 20.3 0 0 1-11.4 14l.6-1.6a13 13 0 0 0 .6-10.6 44 44 0 0 0-5.5-10c-3.8-5.5-4.7-7-5.7-9Zm-51.4 21.1a37.5 37.5 0 0 1 17.2-8.3c2.5-.4 6.6-.3 9 .3 3.6 1 6.9 3 8.6 5.6 1.7 2.5 2.4 4.6 3.2 9.4l.7 4.2a9.2 9.2 0 0 0 3 5.5c2.1 1.5 5.9 1.6 9.5.2l1.2-.3a11 11 0 0 1-3 2 9.7 9.7 0 0 1-5 1.2c-3.2 0-6-1.8-8.3-5.2-.5-.7-1.5-2.7-2.3-4.6-2.4-5.6-3.7-7.2-6.5-9a8.5 8.5 0 0 0-8-.8 5.2 5.2 0 0 0-1.9 8 7 7 0 0 0 4 2.1c2.5.3 4.7-1.7 4.7-4.2 0-1.7-.6-2.6-2.3-3.4-2.2-1-4.6.2-4.5 2.3 0 .9.4 1.4 1.3 1.9.4.1.4.2.1.2-2-.4-2.5-3-.9-4.5 2-2 6-1.1 7.4 1.6.6 1 .6 3.3.2 4.7a6.5 6.5 0 0 1-7.9 3.7c-2.3-.6-3.2-1.2-6-4-4.8-5-6.7-6-13.6-7l-1.3-.3 1.4-1.3Z"/>
  <path fill="#ff007a" fill-rule="evenodd" d="M44.5 34.8c16 19.5 40.8 49.8 42 51.5 1 1.4.7 2.7-1 3.6-1 .6-3 1.1-4 1.1a5 5 0 0 1-3.3-1.4 220 220 0 0 1-9.4-14c-4.6-7.3-8.5-13.3-8.6-13.3-.2-.1 2.5 4.8 8.1 14.9 5.4 9.4 7 12.8 7 13.2 0 1-.2 1.4-1.3 2.6-1.9 2.1-2.7 4.4-3.3 9.4-.7 5.4-2.6 9.3-7.9 15.8a28.4 28.4 0 0 0-4.3 6.2c-1 1.9-1.3 3-1.4 5.5-.1 2.6.1 4.3.9 6.7.7 2.3 1.5 3.7 3.3 6.5a16 16 0 0 1 2.6 5c0 .6.1.6 2.6 0a27 27 0 0 0 13.5-6.5c1.7-1.8 2-2.8 2-5.3 0-1.6 0-2-.4-2.9-.7-1.5-2-2.7-4.8-4.7-3.8-2.5-5.4-4.6-5.8-7.4-.3-2.3.1-3.9 2.2-8.2 2.1-4.5 2.7-6.4 3-11 .2-2.8.6-4 1.4-4.9.9-1 1.6-1.3 3.8-1.6a13 13 0 0 0 7.6-3.1 6.4 6.4 0 0 0 2.3-5v-1.6l-.8-1C87.2 81.2 42.3 31.8 42 31.8l2.4 3Zm21.1 98c.8-1.2.4-2.9-.9-3.7-1.1-.8-3-.4-3 .6 0 .3.2.5.6.7.6.3.7.7.2 1.4s-.5 1.5.2 2c1 .7 2.2.3 3-1Zm28-36.2a6.1 6.1 0 0 0-3.8 4c-.2 1.1-.1 3.1.4 3.8.7 1 1.4 1.2 3.4 1.2 3.7 0 7-1.7 7.3-3.7.4-1.6-1-3.9-3-5a7 7 0 0 0-4.4-.3ZM98 100c.5-.8.3-1.7-.7-2.3-1.9-1.2-4.7-.2-4.7 1.6 0 .9 1.4 1.8 2.8 1.8 1 0 2.2-.5 2.6-1Z"/>
  <circle cx="161.7" cy="134.8" r="27"/>
  <path fill="#fff" d="m164.1 131.6 12.7-12.7-4.8-4.8-10.3 10.3-10.2-10.3-4.8 4.8 12.6 12.7a3.4 3.4 0 0 0 4.8 0Zm18.3 13.5-10.2-10.3 10.2-10.2-4.8-4.8-12.6 12.6a3.4 3.4 0 0 0 0 4.8l12.6 12.7 4.8-4.8Zm-20.7.2 10.3 10.2 4.8-4.8-12.7-12.6a3.4 3.4 0 0 0-4.8 0l-12.6 12.6 4.8 4.8 10.2-10.2Zm-3.2-8a3.4 3.4 0 0 0 0-4.9l-12.7-12.6-4.8 4.8 10.3 10.2-10.2 10.3 4.7 4.8 12.7-12.7Z"/>
</svg>
