<?xml version="1.0" encoding="UTF-8"?><svg xmlns="http://www.w3.org/2000/svg" viewBox="0 0 200 200"><g id="a"><circle cx="100" cy="100" r="99" style="fill:#fff;"/><path d="m87.64,62.21c-1.45-.21-1.52-.28-.83-.34,1.31-.21,4.35.07,6.49.55,4.97,1.17,9.45,4.21,14.21,9.52l1.24,1.45,1.79-.28c7.66-1.24,15.52-.28,22.08,2.76,1.79.83,4.62,2.49,4.97,2.9.14.14.34,1.04.48,1.93.48,3.24.28,5.66-.76,7.52-.55,1.04-.55,1.31-.21,2.21.28.69,1.1,1.17,1.87,1.17,1.66,0,3.38-2.62,4.21-6.28l.34-1.45.62.69c3.52,3.93,6.28,9.38,6.69,13.25l.14,1.04-.62-.9c-1.04-1.59-2-2.62-3.31-3.52-2.34-1.59-4.83-2.07-11.38-2.41-5.93-.34-9.32-.83-12.63-1.93-5.66-1.87-8.56-4.28-15.25-13.18-2.96-3.93-4.83-6.07-6.69-7.86-4.07-3.93-8.14-6-13.45-6.83h0Z" style="fill:#ff007a;"/><path d="m139.04,70.97c.14-2.62.48-4.35,1.24-5.93.28-.62.55-1.17.62-1.17s-.07.48-.28,1.04c-.55,1.52-.62,3.66-.28,6.07.48,3.11.69,3.52,4,6.9,1.52,1.59,3.31,3.59,4,4.41l1.17,1.52-1.17-1.1c-1.45-1.38-4.76-4-5.52-4.35-.48-.28-.55-.28-.9.07-.28.28-.34.69-.34,2.69-.07,3.11-.48,5.04-1.52,7.04-.55,1.04-.62.83-.14-.34.34-.9.41-1.31.41-4.28,0-6-.69-7.45-4.9-9.86-1.04-.62-2.83-1.52-3.87-2-1.1-.48-1.93-.9-1.87-.9.14-.14,4.21,1.04,5.79,1.72,2.41.96,2.83,1.04,3.11.96.21-.21.34-.76.41-2.49h0Z" style="fill:#ff007a;"/><path d="m90.47,81.25c-2.9-4-4.76-10.21-4.35-14.83l.14-1.45.69.14c1.24.21,3.38,1.04,4.41,1.66,2.76,1.66,4,3.93,5.17,9.59.34,1.66.83,3.59,1.04,4.21.34,1.04,1.66,3.45,2.76,4.97.76,1.1.28,1.66-1.45,1.52-2.62-.28-6.14-2.69-8.41-5.79Z" style="fill:#ff007a;"/><path d="m135.52,111.27c-13.66-5.52-18.49-10.28-18.49-18.35,0-1.17.07-2.14.07-2.14.07,0,.55.41,1.17.9,2.76,2.21,5.87,3.17,14.49,4.41,5.04.76,7.94,1.31,10.56,2.21,8.35,2.76,13.52,8.41,14.77,16.07.34,2.21.14,6.41-.41,8.62-.48,1.72-1.87,4.9-2.21,4.97-.07,0-.21-.34-.21-.9-.14-2.9-1.59-5.66-4-7.79-2.9-2.49-6.62-4.35-15.73-8Z" style="fill:#ff007a;"/><path d="m125.86,113.54c-.14-1.04-.48-2.34-.69-2.9l-.34-1.04.62.76c.9,1.04,1.59,2.28,2.21,4,.48,1.31.48,1.72.48,3.87s-.07,2.55-.48,3.73c-.69,1.87-1.52,3.17-2.9,4.62-2.49,2.55-5.73,3.93-10.35,4.55-.83.07-3.17.28-5.24.41-5.17.28-8.62.83-11.73,1.93-.41.14-.83.28-.9.21-.14-.14,2-1.38,3.73-2.21,2.41-1.17,4.9-1.79,10.35-2.76,2.69-.41,5.45-.96,6.14-1.24,6.83-2.14,10.21-7.45,9.11-13.94h0Z" style="fill:#ff007a;"/><path d="m132.14,124.65c-1.79-3.93-2.21-7.66-1.24-11.18.14-.34.28-.69.41-.69s.55.21.96.48c.83.55,2.55,1.52,6.97,3.93,5.59,3.04,8.76,5.38,10.97,8.07,1.93,2.34,3.11,5.04,3.66,8.35.34,1.87.14,6.35-.34,8.21-1.52,5.87-4.97,10.56-10,13.25-.76.41-1.38.69-1.45.69s.21-.69.62-1.52c1.66-3.52,1.87-6.9.62-10.69-.76-2.34-2.34-5.17-5.52-9.94-3.79-5.52-4.69-6.97-5.66-8.97h0Z" style="fill:#ff007a;"/><path d="m80.74,145.76c5.11-4.28,11.39-7.32,17.18-8.28,2.49-.41,6.62-.28,8.9.34,3.66.96,6.97,3.04,8.69,5.59,1.66,2.49,2.41,4.62,3.17,9.38.28,1.87.62,3.79.69,4.21.55,2.49,1.66,4.41,3.04,5.45,2.14,1.59,5.87,1.66,9.52.28.62-.21,1.17-.41,1.17-.34.14.14-1.72,1.38-2.96,2-1.72.9-3.11,1.17-4.97,1.17-3.31,0-6.14-1.72-8.41-5.17-.48-.69-1.45-2.69-2.28-4.55-2.41-5.59-3.66-7.24-6.49-9.11-2.49-1.59-5.66-1.93-8.07-.76-3.17,1.52-4,5.59-1.79,8.07.9,1.04,2.55,1.87,3.93,2.07,2.55.34,4.76-1.66,4.76-4.21,0-1.66-.62-2.62-2.28-3.38-2.21-.96-4.62.14-4.55,2.28,0,.9.41,1.45,1.31,1.87.37.18.41.25.14.21-2-.41-2.49-2.9-.9-4.49,1.93-1.93,6-1.1,7.38,1.59.55,1.1.62,3.31.14,4.69-1.17,3.04-4.49,4.62-7.86,3.73-2.28-.62-3.24-1.24-6-4.07-4.83-4.97-6.69-5.93-13.59-6.97l-1.31-.21s1.45-1.38,1.45-1.38Z" style="fill:#ff007a;"/><path d="m44.45,34.75c16.07,19.52,40.85,49.88,42.09,51.54,1.04,1.38.62,2.69-1.1,3.66-.96.55-2.96,1.1-3.93,1.1-1.1,0-2.41-.55-3.31-1.45-.62-.62-3.31-4.55-9.38-14.01-4.62-7.24-8.56-13.25-8.62-13.32-.18-.09,2.53,4.88,8.14,14.9,5.31,9.45,7.04,12.83,7.04,13.25,0,.9-.28,1.38-1.38,2.62-1.87,2.07-2.69,4.41-3.31,9.32-.69,5.45-2.55,9.32-7.86,15.87-3.11,3.87-3.59,4.55-4.35,6.14-.96,1.93-1.24,3.04-1.38,5.52-.14,2.62.14,4.28.9,6.76.69,2.21,1.45,3.66,3.31,6.49,1.59,2.49,2.55,4.35,2.55,5.04,0,.55.14.55,2.62,0,5.93-1.38,10.83-3.73,13.52-6.62,1.66-1.79,2.07-2.76,2.07-5.24,0-1.59-.07-1.93-.48-2.9-.69-1.52-2-2.76-4.83-4.69-3.73-2.55-5.31-4.62-5.73-7.38-.34-2.34.07-3.93,2.14-8.28,2.14-4.49,2.69-6.35,3.04-10.9.21-2.9.55-4.07,1.38-4.97.9-.96,1.66-1.31,3.79-1.59,3.52-.48,5.79-1.38,7.59-3.11,1.59-1.45,2.28-2.9,2.34-5.04l.07-1.59-.9-.96c-3.24-3.73-48.16-53.13-48.36-53.13-.07,0,1.04,1.31,2.34,2.96h.01Zm21.18,98.11c.76-1.31.34-2.96-.9-3.79-1.17-.76-2.96-.41-2.96.62,0,.28.14.55.55.69.62.34.69.69.21,1.45s-.48,1.45.14,1.93c.96.76,2.28.34,2.96-.9Z" style="fill:#ff007a; fill-rule:evenodd;"/><path d="m93.57,96.57c-1.66.48-3.24,2.28-3.73,4.07-.28,1.1-.14,3.11.34,3.73.76.96,1.45,1.24,3.38,1.24,3.79,0,7.04-1.66,7.38-3.66.34-1.66-1.1-3.93-3.11-4.97-1.04-.55-3.17-.76-4.28-.41Zm4.41,3.45c.55-.83.34-1.72-.69-2.34-1.87-1.17-4.69-.21-4.69,1.59,0,.9,1.45,1.87,2.83,1.87.9,0,2.14-.55,2.55-1.1h0Z" style="fill:#ff007a; fill-rule:evenodd;"/></g><g id="b"><circle cx="161.73" cy="134.82" r="27"/><path d="m164.14,131.55l12.64-12.64-4.79-4.79-10.24,10.24-10.24-10.24-4.79,4.79,12.63,12.64c.66.66,1.53.99,2.4.99s1.73-.33,2.4-.99Zm18.29,13.5l-10.24-10.24,10.24-10.24-4.79-4.79-12.63,12.64c-1.32,1.32-1.32,3.47,0,4.79l12.63,12.64,4.79-4.79h0Zm-20.7.23l10.24,10.24,4.79-4.79-12.63-12.64c-1.32-1.32-3.47-1.32-4.79,0l-12.63,12.64,4.79,4.79,10.24-10.24h0Zm-3.26-8.05c.64-.64.99-1.5.99-2.4s-.36-1.76-.99-2.4l-12.63-12.64-4.79,4.79,10.24,10.24-10.24,10.24,4.79,4.79,12.63-12.64h0Z" style="fill:#fff;"/></g></svg>