<?xml version="1.0" encoding="UTF-8"?><svg xmlns="http://www.w3.org/2000/svg" viewBox="0 0 200 200"><g id="a"><circle cx="100" cy="100" r="97.33" style="fill:#fff;"/><path d="m99.98,199c-54.68-.01-98.99-44.34-98.98-99.02C1.01,45.31,45.34.99,100.02,1c54.66.01,98.97,44.32,98.98,98.98.01,54.67-44.31,99.01-98.98,99.02h-.04,0Zm0-190.28c-50.38.04-91.19,40.92-91.15,91.3.04,50.38,40.91,91.19,91.3,91.15,50.34-.04,91.13-40.85,91.15-91.19.02-50.38-40.81-91.24-91.19-91.26,0,0-.11,0-.11,0Z" style="fill:#282138;"/><path id="b" d="m131.86,81.86c-1.09-11.34-10.87-15.15-23.25-16.31v-15.62h-9.57v15.33h-7.65v-15.33h-9.49v15.73h-19.41v10.24s7.07-.13,6.96,0c2.65-.29,5.05,1.57,5.43,4.2v43.06c-.06.9-.47,1.75-1.16,2.34-.67.6-1.56.9-2.46.83.13.11-6.96,0-6.96,0l-1.81,11.44h19.23v15.99h9.57v-15.75h7.65v15.67h9.59v-15.8c16.16-.98,27.44-4.97,28.85-20.1,1.14-12.18-4.59-17.62-13.73-19.81,5.56-2.74,9.01-7.81,8.23-16.11h0Zm-13.41,34.04c0,11.89-20.37,10.53-26.86,10.53v-21.09c6.49.02,26.86-1.85,26.86,10.57h0Zm-4.44-29.72c0,10.87-17,9.55-22.4,9.55v-19.17c5.4,0,22.4-1.7,22.4,9.62Z" style="fill:#f09242;"/><path d="m162.44,42.42c29.9,32.46,29.9,82.44,0,114.88l-5.43-5.43c26.88-29.41,26.88-74.46,0-103.88l5.43-5.43v-.13h0Z" style="fill:#5a5564;"/><path d="m151.91,156.94l5.56,5.43c-32.46,29.92-82.44,29.92-114.88,0l5.43-5.43c29.39,26.89,74.46,26.89,103.88,0Z" style="fill:#5a5564;"/><path d="m157.41,37.59l-5.43,5.43c-29.41-26.89-74.48-26.89-103.88,0l-5.56-5.43c32.44-29.92,82.42-29.92,114.88,0Z" style="fill:#5a5564;"/><path d="m43.01,151.92l-5.43,5.62c-29.92-32.44-29.92-82.42,0-114.88l5.43,5.43c-26.86,29.39-26.86,74.43,0,103.82h0Z" style="fill:#5a5564;"/></g><g id="c"><circle cx="161.73" cy="134.82" r="27"/><path d="m164.14,131.55l12.64-12.64-4.79-4.79-10.24,10.24-10.24-10.24-4.79,4.79,12.63,12.64c.66.66,1.53.99,2.4.99s1.73-.33,2.4-.99Zm18.29,13.5l-10.24-10.24,10.24-10.24-4.79-4.79-12.63,12.64c-1.32,1.32-1.32,3.47,0,4.79l12.63,12.64,4.79-4.79h0Zm-20.7.23l10.24,10.24,4.79-4.79-12.63-12.64c-1.32-1.32-3.47-1.32-4.79,0l-12.63,12.64,4.79,4.79,10.24-10.24h0Zm-3.26-8.05c.64-.64.99-1.5.99-2.4s-.36-1.76-.99-2.4l-12.63-12.64-4.79,4.79,10.24,10.24-10.24,10.24,4.79,4.79,12.63-12.64h0Z" style="fill:#fff;"/></g></svg>