<svg xmlns="http://www.w3.org/2000/svg" viewBox="0 0 200 200">
  <circle cx="100" cy="100" r="99" fill="#fff"/>
  <g fill-rule="evenodd">
    <path fill="#e4147c" d="M41.6 86.8c-.5.4-.8.9-.9 1.2l-.2.6c-.2 0-.2 1.7 0 1.8l.2.3.3.6.3.4.4.4.7.5c.4.3 2.2.4 2.3.2l.4-.2c.4 0 1.6-1.3 1.8-1.8.6-3-.7-4.8-3.3-4.8h-1.2l-.8.8m11.3-.6-.2.1c-.3 0-1.6 1.3-1.6 1.6 0 .2 0 .3-.2.3l-.1 1.2.1 1.3.2.3c0 .4 1.4 1.6 1.8 1.6a9961 9961 0 0 0 112.9 0c.8 0 1.8-1.6 1.8-3.2 0-1.3-1-3-1.6-3a3988.7 3988.7 0 0 0-56.6-.3l-56.5.1M20.5 99.3l-.4.2c-.2 0-.6.2-1 .6l-.7.6v2c0 2.1.3 2.7 1.1 2.7.2 0 .3 0 .4.2.1.2 2.8.2 2.8 0l.5-.3c1.1-.3 1.8-2 1.4-3.6-.3-1.5-3.5-3.3-4.1-2.4m10.4 0-.4.2-.3.1-.2.2c-.7 0-1.6 1.6-1.6 2.7 0 1.3 1 3 1.7 3h.3c0 .2 14.1.2 41.7.2a2172.2 2172.2 0 0 0 42-.3c.4 0 .5 0 .6-.3l.3-.5.2-.4.1-.3c.3 0 .2-2.4-.1-3-.3-.7-1.2-1.4-1.6-1.4l-.3-.2-41.2-.1-41.2.1m12.6 13.1-.6.2-.6.1-.3.2c-.3 0-1 .7-1 .9l-.1.2c-.1 0-.2.1-.2.3l-.1.4c-.1 0-.2.4-.2 1l.2 1c.2 0 .1.1.1.3 0 .3 1.5 1.8 1.8 1.8l.4.2.8.1.7-.1.4-.2c.7 0 2-1 2-1.8.4-1.6 0-3.6-.7-4l-.6-.2-.9-.2c-.3 0-.6 0-.6-.2s-.2-.1-.2-.1l-.3.1m9.1.3c0 .1-.1.2-.3.2-.4 0-.9.4-.9.7l-.3.4c-.5.5-.4 3.3.2 3.3l.1.2c0 .4.7 1 1 1l.2.2.5.1c.3 0 .4.1.4.2l49.3.1a3056.2 3056.2 0 0 0 49.8-.3h.5l.3-.4c1.1-.6 1.8-3 1.2-4.1-.4-.7-1-1.4-1.3-1.4-.1 0-.3 0-.3-.2l-50.3-.1-50 .1M26 125.6l-.4.1c-.1 0-.3 0-.3.2s0 .1-.2.1c-.3 0-.8.5-1 1l-.1.2-.2.3-.1.4c-.3.2 0 2.5.3 2.5l.1.3c0 1 3.6 2.2 4 1.4l.4-.1c1 0 2.6-3.8 1.7-4.4l-.1-.3c0-.3-1.3-1.6-1.6-1.6l-.3-.1-1.2-.2-1 .1m10.3 0c0 .1-.1.2-.3.2-.4 0-1.6 1.2-1.6 1.7l-.2.3-.1 1.1.1 1.2.2.4c0 .3 1.3 1.5 1.6 1.5l.4.2 20.2.1h20l.7-.3a5 5 0 0 0 1.1-.9l.5-.5v-3.4l-.6-.7c-.4-.4-.8-.7-1-.7l-.3-.2-20.4-.1-20.3.1m49.7.2c-.7.4-1.6 1.3-1.6 1.6l-.1.2c-.1 0-.2.6-.2 1.3l.2 1.3.1.2c0 .3 1 1.3 1.6 1.6l.6.4h82.2l.6-.4c1.4-.7 1.5-1 1.5-3s0-2.5-1.4-3.2l-.6-.3h-41.2c-40.4 0-41.3 0-41.8.3m6.6 13-.5.1c-.6 0-1.7.9-1.7 1.3l-.1.3c-.1 0-.2 0-.2.2l-.1.4-.2 1 .2 1 .1.3c0 .9 1.2 2 2.5 2.2 1.1.2 3.2-.7 3.2-1.4l.1-.2.3-.4c.3-.5.3-2.8 0-2.8v-.2c0-.3-1-1.3-1.3-1.3l-.2-.2-.3-.1-.5-.2-.7-.1-.6.1m10.2 0-.4.2-.3.1c0 .1-.1.2-.3.2s-.4.2-.7.5l-.5.7-.2.3c-.2 0-.2 2.4 0 2.8.4.5 1.1 1.3 1.7 1.6l.6.3h51.6c.5-.2 1.7-1.3 1.7-1.6l.1-.2c.1 0 .2-.2.2-.5l.1-.5.2-.6-.2-.6-.1-.4-.2-.3-.1-.3-.3-.5-.4-.4c0-.3-.5-.7-1-.7l-.5-.1c0-.1-8.6-.2-25.5-.2l-25.5.2M61.5 152l-.2.2c-.3 0-1.4 1-1.6 1.5-.3.5-.3 2.7 0 2.7v.3c0 .3 1 1.1 1.2 1.1l.4.3c.5.4 2.5.5 3 0l.7-.4c1-.5 1.5-2.7 1-4-.2-.5-1.3-1.5-1.6-1.5l-.2-.2-1.4-.1-1.3.1m10.2 0-.2.2c-.3 0-1 .7-1 1 0 0 0 .2-.2.2s-.1.2-.1.5l-.2.4c-.2 0-.1.3-.1.7l.1.8.2.3c0 .6.8 1.7 1.2 1.7l.5.3a1282.8 1282.8 0 0 0 52.2 0h.3l.4-.4c.9-.4 1.4-1.4 1.4-2.6 0-1-.3-2-.6-2-.1 0-.4-.2-.6-.5l-.7-.4-.2-.2-26.2-.1-26.2.1"/>
    <path fill="#54cccb" d="m104.5 27.7-1 .2-1.1.1-.8.2c-.4 0-.8 0-.9.2h-.2c0-.2 0-.2-.2-.1l-1.1.2c-1.2.1-1.9.3-1.9.5h-.2l-.2-.1c.1.2 0 .2-.7.2l-.5.2h-.4l-.7.3c-.2.1-.4.2-.5.1s-.1 0-.1.1l-.3.2-1 .3-.8.3-.2.1-.3.2a2 2 0 0 0-1 .5l-.5.1c-.2 0-.3.1-.3.2l-.3.1-.4.1c0 .2-1 .6-1.3.5-.2 0-.4 0-.4.2s0 .1-.2.1-.5.2-1 .7l-.4.2-.3.1c0 .1-.1.2-.3.2h-.2l-.2.2c-.1 0-.3 0-.4.2l-.8.6a3 3 0 0 0-1 .7c0 .2-.2.3-.4.3s-.3.2-.4.3c-.1.2-.4.3-.6.3l-.3.2-.5.3c-.3 0-.4.2-.4.3l-.3.3-.4.4H79c-.2 0-.3.2-.3.3a6 6 0 0 1-1.8 1.7l-.4.4s0 .1-.1 0c-.2 0-.6.4-.6.6l-.7.7c-.4.2-.7.5-.6.6l-.2.2c-.1 0-.3 0-.2.1 0 .1 0 .2-.9 1.2l-.5.7-.4.2-.5.5c0 .2-.4.6-.7 1a4 4 0 0 0-.5.6v.4c0 .1-.1.2-.2.1 0 0-.2 0-.2.2 0 .1-.2.5-.6.9-.3.3-.7.8-.7 1l-.3.4s-.2.1-.2.3l-.4.7-.4.7-.3.3s-.1 0 0 .1l-.1.2c-.2.1-.3.4-.3.8l-.2.1c-.2 0-.3.5-.3 1v.2a2 2 0 0 0-.6 1l-.1.3c-.1 0-.2.1-.2.3l-.3.6-.3.6c0 .1 0 .3-.2.3s-.1.2-.1.4l-.2.4c-.2 0-.1.1-.1.4 0 .2 0 .3-.2.2-.1 0-.2 0 0 0l-.6 1.7-.4 1.3-.2.4c-.2.2-.2.4 0 .3l-.1.6c-.3.5-.3.7-.2.8.1.1.1.2 0 .2l-.1.6-.2.7-.2 1v.6l-.3 1-.1.8-.2 1.1-.1 1.2c-.4.2-.2 6 .2 6 .1 0 .2.1.2.3s.2.4.4.5l.4.3 46.5.1A2719.3 2719.3 0 0 0 156 78l.4-.3c.1-.2.4-.3.5-.3l.2-.2.2-.6c.2-.4.2-3.2 0-3.4v-1.7c0-.9-.2-1.6-.2-1.6l-.2-1-.1-1c-.1 0-.2-.3-.2-.7l-.1-.9-.2-.7-.1-.8-.2-.5-.1-.5-.2-.4-.1-.6-.2-1-.1-.9-.4-.8-.7-2-.2-.6-.2-.4c-.1-.2-.2-.3-.1-.4s-.3-.2-.3-.3c0-.2 0-.4-.2-.6s-.2-.3-.1-.4l-.1-.1-.3-.6-.5-.9c-.2-.1-.3-.4-.3-.5l-.3-.6-.4-.6c0-.4-.5-1.4-.7-1.4l-.1-.3-.1-.3-.4-.5c0-.2-.2-.4-.3-.4l-.1-.2c0-.2-.2-.3-.4-.4l-.3-.3-.4-.7-.5-.6-.3-.5-.3-.5c0-.2-1.2-1.5-1.5-1.6-.2 0-.2-.1 0-.1 0 0-.5-.7-1.3-1.4l-1.3-1.5c0-.1-.8-.8-1-.8l-.5-.5-.5-.4-.3-.4c-.1-.2-.3-.3-.4-.3a5 5 0 0 1-1.3-1.4h-.2l-.7-.6c-.4-.4-.5-.5-.6-.3 0 .2-.2.2-.2.1l-.4-.4c-.2 0-.6-.4-.8-.6l-.9-.6c-.3 0-.5-.3-.6-.5l-.5-.2-.1-.2c0-.1-1.1-.7-1.3-.6v-.1c0-.1-.3-.3-.6-.3l-.9-.5-.8-.3-.9-.3-.6-.3c-.1 0-.3 0-.3-.2s-.3-.2-.6-.3c-.4 0-.8-.3-1-.5a2 2 0 0 0-.9-.3h-.2s-.5-.4-1.4-.6-1.7-.6-1.9-.7l-.7-.2c-.2 0-.4 0-.4-.2s-.1 0-.2 0h-.6c-.2 0-.9-.3-1.5-.3l-1.3-.2-1-.2a20 20 0 0 1-3.3-.5c-.2-.1-.2 0-.1 0 0 .3 0 .3-.1.1-.3-.2-8.8-.2-9 0"/>
    <path fill="#54d0a4" d="M75 41.4c-.2.3 0 .3.4 0 .2-.2.2-.2 0-.2 0 0-.3 0-.4.2"/>
  </g>
  <circle cx="161.7" cy="134.8" r="27"/>
  <path fill="#fff" d="m164.1 131.6 12.7-12.7-4.8-4.8-10.3 10.3-10.2-10.3-4.8 4.8 12.6 12.7a3.4 3.4 0 0 0 4.8 0Zm18.3 13.5-10.2-10.3 10.2-10.2-4.8-4.8-12.6 12.6a3.4 3.4 0 0 0 0 4.8l12.6 12.7 4.8-4.8Zm-20.7.2 10.3 10.2 4.8-4.8-12.7-12.6a3.4 3.4 0 0 0-4.8 0l-12.6 12.6 4.8 4.8 10.2-10.2Zm-3.2-8a3.4 3.4 0 0 0 0-4.9l-12.7-12.6-4.8 4.8 10.3 10.2-10.2 10.3 4.7 4.8 12.7-12.7Z"/>
</svg>
