<?xml version="1.0" encoding="UTF-8"?><svg xmlns="http://www.w3.org/2000/svg" viewBox="0 0 200 200"><g id="a"><path d="m100,1c54.68,0,99,44.32,99,99s-44.32,99-99,99S1,154.68,1,100,45.32,1,100,1h0Z" style="fill:#f0b90b; fill-rule:evenodd;"/><path d="m55.41,100l.07,26.18,22.24,13.09v15.33l-35.26-20.68v-41.57l12.95,7.66h0Zm0-26.18v15.25l-12.95-7.66v-15.25l12.95-7.66,13.02,7.66-13.02,7.66h0Zm31.6-7.66l12.95-7.66,13.02,7.66-13.02,7.66-12.95-7.66h0Z" style="fill:#fff;"/><path d="m64.77,120.75v-15.33l12.95,7.66v15.25l-12.95-7.59h0Zm22.24,24l12.95,7.66,13.02-7.66v15.25l-13.02,7.66-12.95-7.66v-15.25h0Zm44.55-78.6l12.95-7.66,13.02,7.66v15.25l-13.02,7.66v-15.25l-12.95-7.66h0Zm12.95,60.02l.07-26.18,12.95-7.66v41.57l-35.26,20.68v-15.33l22.24-13.08h0Z" style="fill:#fff;"/><polygon points="135.23 120.75 122.28 128.34 122.28 113.09 135.23 105.43 135.23 120.75" style="fill:#fff;"/><path d="m135.23,79.25l.07,15.33-22.31,13.09v26.24l-12.95,7.59-12.95-7.59v-26.24l-22.31-13.09v-15.33l13.01-7.66,22.17,13.15,22.31-13.15,13.02,7.66h-.06Zm-70.46-26.17l35.2-20.75,35.26,20.75-12.95,7.66-22.31-13.15-22.24,13.15-12.95-7.66h0Z" style="fill:#fff;"/></g><g id="b"><circle cx="161.73" cy="134.82" r="27"/><path d="m164.14,131.55l12.64-12.64-4.79-4.79-10.24,10.24-10.24-10.24-4.79,4.79,12.63,12.64c.66.66,1.53.99,2.4.99s1.73-.33,2.4-.99Zm18.29,13.5l-10.24-10.24,10.24-10.24-4.79-4.79-12.63,12.64c-1.32,1.32-1.32,3.47,0,4.79l12.63,12.64,4.79-4.79h0Zm-20.7.23l10.24,10.24,4.79-4.79-12.63-12.64c-1.32-1.32-3.47-1.32-4.79,0l-12.63,12.64,4.79,4.79,10.24-10.24h0Zm-3.26-8.05c.64-.64.99-1.5.99-2.4s-.36-1.76-.99-2.4l-12.63-12.64-4.79,4.79,10.24,10.24-10.24,10.24,4.79,4.79,12.63-12.64h0Z" style="fill:#fff;"/></g></svg>