<svg xmlns="http://www.w3.org/2000/svg" viewBox="0 0 200 200">
  <circle cx="100" cy="100" r="99" fill="#00008b"/>
  <path fill="#fff" d="M94.7 39.9c3-1.6 7.5-1.6 10.4 0l30.5 16c1.7.9 2.8 2.3 3 3.8V140c0 1.6-1 3.1-3 4.2l-30.4 16c-3 1.5-7.5 1.5-10.5 0l-30.4-16c-2-1-2.9-2.7-3-4.2V59.6c.2-1.4 1.1-2.8 3-3.8l30.4-16Zm39 64.6-28.5 15a12 12 0 0 1-10.5 0l-28.5-15v35.3l28.5 15c1.6.8 3.3 1.6 5 1.8h.2c1.7 0 3.4-.9 5-1.7l28.9-15.2v-35.2Zm-77.3 33.7c0 3 .4 5.1 1 6.5a8 8 0 0 0 3.2 3.2l1.3.9.6.3 1.7 1-2.5 4.1-2-1.1-.2-.2-1.5-1c-4.6-3-6.3-6.4-6.4-13.4v-.2h4.8v-.1ZM97.6 83l-.7.2-30.4 16h-.1v.1h.1l30.4 16 .7.3V83Zm4.7 0v32.6l.6-.3 30.4-16h.1v-.1l-30.5-16-.6-.3Zm31.5-17.6-27.3 14.3L133.8 94V65.4Zm-67.6 0V94l27.2-14.3-27.2-14.3ZM102.9 44a7.6 7.6 0 0 0-6 0L66.5 60h-.1v.1l30.5 16a7 7 0 0 0 6 0l30.4-16h.1V60l-30.5-16Zm35.4 1.7 2 1.2.2.2 1.5 1c4.6 3 6.3 6.4 6.4 13.4v.2h-4.8c0-3-.4-5-1-6.5a8 8 0 0 0-3.2-3.2l-1.3-.8-.6-.4-1.7-1 2.5-4Z"/>
  <circle cx="161.7" cy="134.8" r="27"/>
  <path fill="#fff" d="m164.1 131.6 12.7-12.7-4.8-4.8-10.3 10.3-10.2-10.3-4.8 4.8 12.6 12.7a3.4 3.4 0 0 0 4.8 0Zm18.3 13.5-10.2-10.3 10.2-10.2-4.8-4.8-12.6 12.6a3.4 3.4 0 0 0 0 4.8l12.6 12.7 4.8-4.8Zm-20.7.2 10.3 10.2 4.8-4.8-12.7-12.6a3.4 3.4 0 0 0-4.8 0l-12.6 12.6 4.8 4.8 10.2-10.2Zm-3.2-8a3.4 3.4 0 0 0 0-4.9l-12.7-12.6-4.8 4.8 10.3 10.2-10.2 10.3 4.7 4.8 12.7-12.7Z"/>
</svg>
