<?xml version="1.0" encoding="UTF-8"?><svg xmlns="http://www.w3.org/2000/svg" viewBox="0 0 200 200"><g id="a"><path d="m100,195.16c-52.57,0-95.16-42.62-95.16-95.16,0-25.23,10.03-49.45,27.87-67.29,37.3-37.01,97.57-36.79,134.58.53,36.82,37.11,36.82,96.96,0,134.05-17.81,17.89-42.04,27.95-67.29,27.87Z" style="fill:#7b3fe4;"/><path d="m100,8.68c50.45.03,91.32,40.98,91.3,91.4-.03,36.66-21.97,69.78-55.75,84.07-46.56,19.43-100.06-2.59-119.46-49.16C-3.21,88.72,18.39,35.57,64.48,15.85c11.22-4.76,23.32-7.2,35.52-7.17m0-7.68C45.31,1,1,45.31,1,100s44.31,99,99,99,99-44.34,99-99S154.66,1,100,1Z" style="fill:#231f20;"/><path d="m150.96,88.33v23.08c-.03,2.91-1.56,5.61-4.08,7.12l-19.93,11.51c-2.51,1.51-5.64,1.51-8.15,0l-19.93-11.51c-2.51-1.48-4.08-4.18-4.08-7.12v-6.49l10.19-5.96v11.25l17.87,10.4,17.87-10.4v-20.75l-17.87-10.4-41.82,24.33c-2.54,1.43-5.64,1.43-8.15,0l-19.93-11.57c-2.49-1.51-4-4.21-4-7.12v-23.08c.03-2.94,1.56-5.64,4.08-7.12l19.93-11.51c2.51-1.48,5.64-1.48,8.15,0l19.93,11.51c2.51,1.48,4.08,4.18,4.08,7.12v6.49l-10.27,5.9v-11.2l-17.87-10.38-17.87,10.4v20.73l17.87,10.4,41.82-24.33c2.54-1.43,5.64-1.43,8.15,0l19.96,11.57c2.49,1.51,4.02,4.21,4.05,7.12h0Z" style="fill:#fff;"/><path d="m46.95,38.51c33.78-29.25,84.86-25.6,114.11,8.18,67.05,83.89-48.81,184.24-122.27,105.94-29.25-33.75-25.6-84.84,8.15-114.11Z" style="fill:none; stroke:#d0baf5; stroke-dasharray:0 0 80 40; stroke-miterlimit:10; stroke-width:4px;"/><g style="isolation:isolate;"><path d="m61.25,159.8l-3.52-14.59h4.5c1.01,5.56,1.32,7.99,1.51,10.32h.05c.58-3.15,1.48-6.91,2.22-10.32h3.81c.64,2.96,1.61,7.01,2.12,10.14h.05c.37-3.02,1.32-7.89,1.69-10.14h4.1l-3.71,14.59h-4.37c-.64-3.02-1.48-6.49-2.04-9.29h-.05c-.5,2.75-1.43,6.49-2.06,9.29h-4.31Z" style="fill:#fff;"/></g><g style="isolation:isolate;"><path d="m91.56,155.03c0-2.28.05-5.21.13-6.94h-.13c-.58,3.12-1.59,7.46-2.65,11.7h-3.44c-.82-4.13-1.8-8.47-2.36-11.7h-.16c.13,1.72.21,4.58.21,7.07v4.63h-3.81v-14.59h6.17c.71,2.96,1.54,7.25,1.88,9.4h.05c.37-2.36,1.35-6.22,2.2-9.4h5.98v14.59h-4.1v-4.76h.03Z" style="fill:#fff;"/></g><g style="isolation:isolate;"><path d="m102.25,156.96l-.85,2.83h-4.16l4.61-14.59h5.56l4.79,14.59h-4.47l-.9-2.83h-4.58Zm3.84-3.18c-.69-2.28-1.24-4.31-1.56-5.74h-.05c-.34,1.56-.9,3.65-1.48,5.74h3.1Z" style="fill:#fff;"/></g><g style="isolation:isolate;"><path d="m115.22,148.39h-4.18v-3.18h12.57v3.18h-4.13v11.41h-4.29v-11.41h.03Z" style="fill:#fff;"/><path d="m129.65,145.21v14.59h-4.29v-14.59h4.29Z" style="fill:#fff;"/><path d="m145.87,155.01c-.56,3.04-2.78,5.08-6.78,5.08-4.79,0-7.09-3.23-7.09-7.46s2.28-7.68,7.31-7.68c4.29,0,6.22,2.49,6.51,5.03h-4.24c-.21-1.03-.79-2.01-2.38-2.01-2.06,0-2.81,1.96-2.81,4.53,0,2.3.58,4.61,2.83,4.61,1.72,0,2.17-1.24,2.38-2.06h4.26v-.03Z" style="fill:#fff;"/></g></g><g id="b"><circle cx="161.73" cy="134.82" r="27"/><path d="m164.14,131.55l12.64-12.64-4.79-4.79-10.24,10.24-10.24-10.24-4.79,4.79,12.63,12.64c.66.66,1.53.99,2.4.99s1.73-.33,2.4-.99Zm18.29,13.5l-10.24-10.24,10.24-10.24-4.79-4.79-12.63,12.64c-1.32,1.32-1.32,3.47,0,4.79l12.63,12.64,4.79-4.79h0Zm-20.7.23l10.24,10.24,4.79-4.79-12.63-12.64c-1.32-1.32-3.47-1.32-4.79,0l-12.63,12.64,4.79,4.79,10.24-10.24h0Zm-3.26-8.05c.64-.64.99-1.5.99-2.4s-.36-1.76-.99-2.4l-12.63-12.64-4.79,4.79,10.24,10.24-10.24,10.24,4.79,4.79,12.63-12.64h0Z" style="fill:#fff;"/></g></svg>