<svg xmlns="http://www.w3.org/2000/svg" viewBox="0 0 200 200">
  <path fill="#f0b90b" fill-rule="evenodd" d="M100 1a99 99 0 1 1 0 198 99 99 0 0 1 0-198Z"/>
  <path fill="#fff" d="M55.4 100v26.2l22.3 13v15.4l-35.2-20.7V92.4l13 7.6Zm0-26.2v15.3l-13-7.7V66.2l13-7.7 13 7.7-13 7.6ZM87 66.2l13-7.7 13 7.7-13 7.6-13-7.6Z"/>
  <path fill="#fff" d="M64.8 120.8v-15.4l13 7.7v15.2l-13-7.6Zm22.2 24 13 7.6 13-7.7V160l-13 7.7-13-7.7v-15.3ZM131.6 66l13-7.6 13 7.7v15.2l-13 7.7V73.8l-13-7.6Zm13 60v-26l13-7.7V134l-35.3 20.7v-15.3l22.2-13.1Z"/>
  <path fill="#fff" d="m135.2 120.8-12.9 7.5v-15.2l12.9-7.7v15.4z"/>
  <path fill="#fff" d="m135.2 79.3.1 15.3-22.3 13V134l-13 7.6-13-7.6v-26.2L64.9 94.6V79.3l13-7.7L100 84.7l22.3-13.1 13 7.7ZM64.8 53 100 32.3l35.2 20.8-13 7.6L100 47.6 77.7 60.7l-13-7.6Z"/>
  <circle cx="161.7" cy="134.8" r="27"/>
  <path fill="#fff" d="m164.1 131.6 12.7-12.7-4.8-4.8-10.3 10.3-10.2-10.3-4.8 4.8 12.6 12.7a3.4 3.4 0 0 0 4.8 0Zm18.3 13.5-10.2-10.3 10.2-10.2-4.8-4.8-12.6 12.6a3.4 3.4 0 0 0 0 4.8l12.6 12.7 4.8-4.8Zm-20.7.2 10.3 10.2 4.8-4.8-12.7-12.6a3.4 3.4 0 0 0-4.8 0l-12.6 12.6 4.8 4.8 10.2-10.2Zm-3.2-8a3.4 3.4 0 0 0 0-4.9l-12.7-12.6-4.8 4.8 10.3 10.2-10.2 10.3 4.7 4.8 12.7-12.7Z"/>
</svg>
