<svg xmlns="http://www.w3.org/2000/svg" viewBox="0 0 200 200">
  <path d="M38.8 34.9h122.3v111.3H38.8z"/>
  <path fill="#fff" fill-rule="evenodd" d="M199 100a99 99 0 1 1-198 0 99 99 0 0 1 198 0ZM72 139.4H52.7c-4 0-6 0-7.2-.8a4.9 4.9 0 0 1-2.2-3.8c0-1.4.9-3.2 2.9-6.7l47.4-83.6c2-3.6 3-5.3 4.4-6a5 5 0 0 1 4.4 0c1.3.7 2.3 2.4 4.3 6l9.8 17v.1c2.2 3.8 3.3 5.7 3.8 7.8.5 2.2.5 4.5 0 6.7-.5 2-1.6 4-3.8 7.9l-25 44v.2a31.6 31.6 0 0 1-4.8 7.2 14.6 14.6 0 0 1-6 3.4c-2 .6-4.2.6-8.7.6Zm48.5 0H148c4 0 6.1 0 7.3-.8a4.9 4.9 0 0 0 2.2-3.8c.1-1.4-.9-3.1-2.8-6.4l-.2-.4-13.8-23.5-.1-.3c-2-3.3-3-5-4.2-5.6-1.4-.7-3-.7-4.4 0-1.3.7-2.3 2.4-4.3 5.9L114 128h-.1c-2 3.5-3 5.3-3 6.7a5 5 0 0 0 2.3 3.8c1.2.8 3.2.8 7.3.8Z"/>
  <circle cx="161.7" cy="134.8" r="27"/>
  <path fill="#fff" d="m164.1 131.6 12.7-12.7-4.8-4.8-10.3 10.3-10.2-10.3-4.8 4.8 12.6 12.7a3.4 3.4 0 0 0 4.8 0Zm18.3 13.5-10.2-10.3 10.2-10.2-4.8-4.8-12.6 12.6a3.4 3.4 0 0 0 0 4.8l12.6 12.7 4.8-4.8Zm-20.7.2 10.3 10.2 4.8-4.8-12.7-12.6a3.4 3.4 0 0 0-4.8 0l-12.6 12.6 4.8 4.8 10.2-10.2Zm-3.2-8a3.4 3.4 0 0 0 0-4.9l-12.7-12.6-4.8 4.8 10.3 10.2-10.2 10.3 4.7 4.8 12.7-12.7Z"/>
</svg>
