<?xml version="1.0" encoding="UTF-8"?><svg xmlns="http://www.w3.org/2000/svg" viewBox="0 0 200 200"><g id="a"><rect x="38.77" y="34.88" width="122.33" height="111.26"/><path d="m199,100c0,54.68-44.32,99-99,99S1,154.68,1,100,45.33,1,100,1s99,44.33,99,99Zm-127.05,39.4h-19.21c-4.04,0-6.03,0-7.25-.78-1.31-.85-2.12-2.26-2.21-3.82-.07-1.43.92-3.18,2.92-6.69l47.44-83.62c2.02-3.55,3.04-5.33,4.33-5.98,1.39-.7,3.04-.7,4.43,0,1.29.66,2.31,2.43,4.33,5.98l9.75,17.02.05.09c2.18,3.81,3.29,5.74,3.77,7.77.54,2.21.54,4.55,0,6.76-.48,2.04-1.58,3.99-3.79,7.86l-24.92,44.05-.06.11c-2.19,3.84-3.31,5.79-4.85,7.26-1.68,1.6-3.69,2.77-5.91,3.43-2.02.56-4.28.56-8.81.56h-.02Zm48.52,0h27.53c4.06,0,6.11,0,7.32-.8,1.31-.85,2.14-2.29,2.21-3.84.07-1.39-.91-3.07-2.82-6.37l-.2-.34-13.79-23.59-.16-.27c-1.94-3.28-2.92-4.93-4.17-5.57-1.39-.7-3.02-.7-4.4,0-1.27.66-2.29,2.38-4.3,5.86l-13.74,23.59-.05.08c-2.01,3.47-3.02,5.21-2.94,6.63.1,1.56.9,2.99,2.21,3.84,1.19.78,3.24.78,7.29.78Z" style="fill:#fff; fill-rule:evenodd;"/></g><g id="b"><circle cx="161.73" cy="134.82" r="27"/><path d="m164.14,131.55l12.64-12.64-4.79-4.79-10.24,10.24-10.24-10.24-4.79,4.79,12.63,12.64c.66.66,1.53.99,2.4.99s1.73-.33,2.4-.99Zm18.29,13.5l-10.24-10.24,10.24-10.24-4.79-4.79-12.63,12.64c-1.32,1.32-1.32,3.47,0,4.79l12.63,12.64,4.79-4.79h0Zm-20.7.23l10.24,10.24,4.79-4.79-12.63-12.64c-1.32-1.32-3.47-1.32-4.79,0l-12.63,12.64,4.79,4.79,10.24-10.24h0Zm-3.26-8.05c.64-.64.99-1.5.99-2.4s-.36-1.76-.99-2.4l-12.63-12.64-4.79,4.79,10.24,10.24-10.24,10.24,4.79,4.79,12.63-12.64h0Z" style="fill:#fff;"/></g></svg>