<svg xmlns="http://www.w3.org/2000/svg" viewBox="0 0 200 200">
  <path fill="#7b3fe4" d="M100 195.2A95.2 95.2 0 0 1 32.7 32.7a95.2 95.2 0 0 1 134.6 134.6 94.6 94.6 0 0 1-67.3 27.9Z"/>
  <path fill="#231f20" d="M100 8.7A91.4 91.4 0 0 1 135.6 184 91.3 91.3 0 1 1 100 8.8m0-7.7a99 99 0 1 0 0 198 99 99 0 0 0 0-198Z"/>
  <path fill="#fff" d="M151 88.3v23.1c0 3-1.6 5.6-4.1 7.1l-20 11.5a7.9 7.9 0 0 1-8.1 0l-20-11.5a8.3 8.3 0 0 1-4-7v-6.6l10.2-6v11.3l17.8 10.4 18-10.4V89.5l-18-10.4L81 103.4a8.3 8.3 0 0 1-8.1 0l-20-11.6a8.3 8.3 0 0 1-4-7.1v-23c0-3 1.6-5.7 4.1-7.2L73 43a8 8 0 0 1 8.1 0l20 11.5c2.4 1.5 4 4.2 4 7.1v6.5l-10.3 6V62.7L77 52.4 59 62.8v20.8L77 94l41.8-24.4a8.3 8.3 0 0 1 8.1 0l20 11.6c2.5 1.5 4 4.2 4 7.1Z"/>
  <path fill="none" stroke="#d0baf5" stroke-dasharray="0 0 80 40" stroke-miterlimit="10" stroke-width="4" d="M47 38.5a80.9 80.9 0 0 1 114 8.2c67.1 83.9-48.8 184.2-122.2 106a81 81 0 0 1 8.1-114.2Z"/>
  <path fill="#fff" d="m61.3 159.8-3.6-14.6h4.5c1 5.6 1.3 8 1.5 10.3l2.3-10.3h3.8c.7 3 1.6 7 2.1 10.2l1.8-10.2h4l-3.6 14.6h-4.4l-2-9.3-2.2 9.3h-4.3Zm30.3-4.8v-7a184 184 0 0 1-2.7 11.8h-3.4L83 148l.2 7v4.7h-3.9v-14.6h6.2c.7 3 1.6 7.3 1.9 9.4.4-2.4 1.4-6.2 2.2-9.4h6v14.6h-4V155Zm10.7 2-.9 2.8h-4.2l4.7-14.6h5.5l4.8 14.6h-4.5l-.9-2.8h-4.5Zm3.8-3.2-1.6-5.8-1.5 5.8h3.1Zm9.1-5.4H111v-3.2h12.6v3.2h-4.1v11.4h-4.3v-11.4Zm14.5-3.2v14.6h-4.3v-14.6h4.2Zm16.2 9.8c-.6 3-2.8 5-6.8 5-4.8 0-7.1-3.1-7.1-7.4s2.3-7.6 7.3-7.6c4.3 0 6.2 2.4 6.5 5h-4.2c-.2-1-.8-2-2.4-2-2 0-2.8 2-2.8 4.5 0 2.3.6 4.6 2.8 4.6 1.7 0 2.2-1.2 2.4-2h4.3Z" style="isolation:isolate"/>
  <circle cx="161.7" cy="134.8" r="27"/>
  <path fill="#fff" d="m164.1 131.6 12.7-12.7-4.8-4.8-10.3 10.3-10.2-10.3-4.8 4.8 12.6 12.7a3.4 3.4 0 0 0 4.8 0Zm18.3 13.5-10.2-10.3 10.2-10.2-4.8-4.8-12.6 12.6a3.4 3.4 0 0 0 0 4.8l12.6 12.7 4.8-4.8Zm-20.7.2 10.3 10.2 4.8-4.8-12.7-12.6a3.4 3.4 0 0 0-4.8 0l-12.6 12.6 4.8 4.8 10.2-10.2Zm-3.2-8a3.4 3.4 0 0 0 0-4.9l-12.7-12.6-4.8 4.8 10.3 10.2-10.2 10.3 4.7 4.8 12.7-12.7Z"/>
</svg>
