<?xml version="1.0" encoding="UTF-8"?><svg xmlns="http://www.w3.org/2000/svg" viewBox="0 0 200 200"><g id="a"><circle cx="100" cy="100" r="99" style="fill:#fff;"/><g id="b"><path id="c" d="m41.61,86.76c-.49.47-.81.91-.87,1.22-.05.27-.16.52-.23.57-.19.12-.17,1.7.02,1.82.08.05.15.22.15.37s.14.4.31.55.31.36.31.46.19.28.42.4c.23.12.55.34.72.48.33.3,2.13.39,2.3.12.05-.08.22-.15.38-.15.42,0,1.62-1.27,1.74-1.84.59-2.93-.66-4.72-3.27-4.72h-1.18l-.77.74m11.28-.58c0,.08-.11.15-.23.15-.3,0-1.6,1.3-1.6,1.6,0,.13-.07.23-.15.23-.09,0-.15.5-.15,1.21,0,.67.07,1.26.15,1.31.08.05.15.2.15.33,0,.36,1.37,1.58,1.77,1.58.19,0,.39.07.45.15.13.21,111.9.21,112.03,0,.05-.08.22-.15.37-.15.92,0,1.88-1.63,1.89-3.21,0-1.34-.92-3.05-1.65-3.05-.12,0-.21-.07-.21-.15,0-.1-18.9-.15-56.4-.15s-56.4.05-56.4.15m-32.43,13.13c-.05.08-.25.15-.45.15-.21,0-.61.25-.99.61l-.63.61v1.99c0,2.12.24,2.72,1.1,2.73.14,0,.3.07.36.16.11.18,2.82.21,2.82.03,0-.07.22-.19.49-.26,1.09-.32,1.76-2.08,1.41-3.69-.31-1.44-3.54-3.26-4.12-2.33m10.38,0c-.05.08-.23.15-.39.15s-.3.07-.3.15-.1.15-.22.15c-.66,0-1.58,1.59-1.57,2.74,0,1.3.95,2.91,1.71,2.91.12,0,.26.07.31.15.06.1,14.12.15,41.68.15s41.58-.05,41.58-.15c0-.08.21-.15.46-.15.34,0,.5-.09.6-.37.07-.2.21-.41.3-.47.09-.05.16-.23.16-.4s.07-.3.15-.3c.3,0,.18-2.4-.15-3.05-.32-.64-1.17-1.38-1.57-1.38-.13,0-.29-.07-.34-.15-.06-.1-13.96-.15-41.21-.15s-41.15.05-41.21.15m12.67,13.13c-.05.08-.33.15-.61.15s-.56.07-.61.15c-.05.08-.2.15-.32.15-.26,0-.98.67-.98.91,0,.09-.07.16-.15.16s-.15.17-.15.38-.07.38-.15.38-.15.43-.15.99.07.99.15.99.15.12.15.27c0,.37,1.47,1.87,1.83,1.87.16,0,.33.07.38.15.05.08.4.15.76.15s.71-.07.76-.15c.05-.08.23-.15.39-.15.68,0,1.88-1.09,2.04-1.86.31-1.55-.12-3.62-.82-3.94-.13-.06-.38-.19-.57-.28-.19-.1-.58-.17-.87-.17s-.57-.07-.62-.15-.15-.15-.23-.15-.17.07-.23.15m9.08.31c0,.08-.16.15-.36.15-.33,0-.86.41-.86.67,0,.06-.13.24-.28.41-.51.55-.38,3.34.15,3.34.07,0,.13.11.13.23,0,.31.68.99.99.99.13,0,.23.07.23.15s.21.15.46.15.46.07.46.15c0,.1,16.54.15,49.3.15s49.3-.05,49.3-.15c0-.08.21-.15.46-.15s.46-.06.46-.13.16-.22.37-.32c1.11-.59,1.77-2.98,1.16-4.13-.37-.69-.99-1.37-1.25-1.37-.14,0-.3-.07-.36-.15-.06-.1-16.97-.15-50.23-.15s-50.13.05-50.13.15m-26.56,12.82c0,.08-.14.15-.31.15s-.31.07-.31.15-.11.15-.25.15c-.28,0-.76.5-.9.93-.05.16-.15.29-.23.29s-.14.13-.14.3-.07.34-.15.39c-.32.2,0,2.52.34,2.52.06,0,.12.11.12.23,0,.95,3.56,2.23,4.04,1.44.05-.08.2-.15.32-.15,1.1,0,2.62-3.81,1.74-4.35-.08-.05-.15-.2-.15-.32,0-.29-1.3-1.59-1.59-1.59-.12,0-.26-.07-.32-.15-.05-.08-.57-.15-1.16-.15s-1.06.06-1.06.15m10.38,0c0,.08-.15.15-.32.15-.42,0-1.66,1.23-1.66,1.66,0,.18-.07.32-.15.32-.09,0-.15.48-.15,1.13s.07,1.18.15,1.23.15.21.15.34c0,.34,1.31,1.56,1.68,1.56.16,0,.33.07.38.15.06.1,6.94.15,20.14.15h20.05l.66-.34c.37-.19.89-.58,1.16-.87l.5-.52v-3.4l-.67-.71c-.37-.39-.78-.71-.91-.71s-.28-.07-.33-.15c-.06-.1-7.02-.15-20.39-.15s-20.29.05-20.29.15m49.64.16c-.67.39-1.56,1.3-1.56,1.59,0,.13-.07.23-.15.23-.09,0-.15.54-.15,1.3s.06,1.3.15,1.3c.08,0,.15.09.15.2,0,.3.93,1.26,1.57,1.62l.57.32h82.23l.66-.34c1.35-.7,1.5-1,1.5-3.11s-.13-2.37-1.43-3.1l-.57-.32h-41.24c-40.43.02-41.25.03-41.75.32m6.53,12.96c0,.08-.23.15-.5.15-.56,0-1.63.84-1.63,1.28,0,.14-.07.25-.15.25s-.15.13-.15.3-.07.34-.15.39c-.08.05-.15.5-.15,1s.07.91.15.91.15.14.15.31c0,.92,1.16,1.97,2.45,2.21,1.1.21,3.2-.7,3.2-1.38,0-.12.06-.22.13-.22s.21-.17.31-.39c.22-.48.24-2.81.03-2.81-.08,0-.15-.09-.15-.2,0-.25-.98-1.32-1.2-1.32-.1,0-.17-.07-.17-.15s-.17-.15-.37-.15-.41-.07-.47-.15-.37-.15-.69-.15-.6.07-.6.15m10.15,0c-.05.08-.23.15-.39.15s-.3.07-.3.15-.11.15-.23.15-.47.24-.76.53c-.29.29-.53.64-.53.76s-.07.23-.15.23c-.22,0-.19,2.38.04,2.78.32.57,1.08,1.3,1.69,1.64l.58.32h25.56c14.06,0,25.74-.05,25.96-.1.6-.15,1.73-1.16,1.73-1.54,0-.11.07-.2.15-.2s.15-.2.15-.45.07-.49.15-.55c.08-.05.15-.33.15-.61s-.07-.56-.15-.61c-.08-.05-.15-.23-.15-.39s-.07-.3-.15-.3-.15-.12-.15-.27-.14-.37-.31-.49c-.17-.12-.31-.3-.31-.39,0-.32-.56-.68-1.04-.68-.26,0-.48-.07-.48-.15,0-.1-8.6-.15-25.48-.15s-25.51.05-25.58.15m-41.29,13.43c0,.08-.09.15-.2.15-.28,0-1.37,1.08-1.6,1.58-.23.5-.26,2.69-.04,2.69.08,0,.15.13.15.3,0,.26.85,1.08,1.13,1.08.06,0,.25.14.43.31.45.42,2.5.45,2.95.04.16-.15.48-.37.71-.48.96-.49,1.53-2.73,1-3.94-.24-.54-1.27-1.57-1.57-1.57-.13,0-.23-.07-.23-.15,0-.09-.56-.15-1.37-.15s-1.37.06-1.37.15m10.23,0c0,.08-.1.15-.22.15-.29,0-1,.71-1,1,0,.12-.07.22-.15.22s-.15.21-.15.46-.07.46-.15.46-.15.31-.15.68.07.72.15.77c.08.05.15.22.15.37,0,.57.81,1.69,1.22,1.69.09,0,.31.14.49.31.37.35,51.86.5,51.86.15,0-.08.14-.15.31-.15s.31-.05.31-.12.21-.21.46-.32c.84-.37,1.37-1.37,1.37-2.59,0-1.05-.31-2.02-.64-2.02-.08,0-.35-.21-.58-.46-.23-.25-.54-.46-.67-.46s-.24-.07-.24-.15c0-.1-8.83-.15-26.18-.15s-26.18.05-26.18.15" style="fill:#e4147c; fill-rule:evenodd;"/><path id="d" d="m104.54,27.72c-.07.07-.58.14-1.12.16s-1.03.08-1.07.15-.39.13-.76.15c-.38.02-.77.11-.88.19-.13.1-.19.08-.19-.05,0-.14-.05-.15-.21-.02-.11.1-.61.2-1.11.23-1.16.08-1.89.24-1.89.44,0,.08-.12.06-.26-.06-.17-.14-.22-.15-.14-.02.12.2.07.21-.7.25-.23.01-.46.07-.52.13s-.23.11-.37.11-.46.1-.69.22c-.23.12-.48.19-.55.14s-.13,0-.13.08-.12.16-.28.16-.56.14-.91.31c-.35.17-.74.31-.87.31s-.24.07-.24.15-.11.15-.23.15c-.24,0-.85.3-1,.49-.05.06-.26.13-.49.15-.22.02-.37.08-.32.15.04.06-.1.12-.32.12s-.39.05-.39.12c0,.18-.95.56-1.34.52-.19-.02-.34.04-.34.12s-.11.15-.23.15c-.24,0-.46.15-.98.66-.16.15-.36.24-.43.19-.08-.05-.19.02-.24.15s-.19.21-.32.16c-.13-.05-.23-.02-.23.06s-.1.15-.22.15-.28.09-.34.2c-.07.11-.45.39-.85.62s-.81.56-.92.72c-.1.16-.29.3-.42.3s-.33.14-.46.31c-.12.17-.38.31-.57.31s-.35.05-.35.12-.21.21-.46.32-.42.25-.39.32-.1.21-.3.32c-.21.11-.38.26-.38.33s-.11.13-.23.13-.28.12-.33.26c-.13.34-1.21,1.35-1.76,1.65-.23.13-.42.3-.42.39s-.06.12-.13.08c-.12-.07-.54.32-.6.56-.02.06-.32.35-.68.63-.36.28-.64.59-.61.68.02.1-.07.17-.22.17s-.21.04-.16.09c.1.1-.01.24-.87,1.19-.3.33-.54.64-.54.69s-.15.16-.34.24-.42.31-.51.49c-.1.19-.4.6-.69.92-.29.31-.53.63-.54.68-.01.06-.03.22-.04.36-.01.13-.09.2-.17.14-.08-.05-.15.03-.16.18,0,.15-.28.55-.61.89-.33.33-.68.8-.77,1.03-.1.23-.23.42-.29.42s-.16.12-.21.26-.23.47-.4.73c-.17.25-.35.58-.4.73s-.16.26-.24.26-.11.06-.06.14c.05.07.02.16-.07.2-.14.05-.24.32-.29.77,0,.06-.12.12-.24.12-.2,0-.29.45-.22,1.01,0,.05-.04.14-.12.19-.2.15-.51.75-.51,1.01,0,.13-.07.23-.15.23s-.15.14-.15.31-.14.46-.31.64-.31.45-.31.6-.07.28-.15.28-.15.17-.15.38-.07.38-.15.38-.15.17-.15.39c0,.27-.06.36-.19.28-.11-.06-.14-.06-.08.01.1.11-.06.65-.49,1.69-.24.59-.35.92-.41,1.22-.03.16-.12.37-.21.45-.19.19-.19.44,0,.32.08-.05.02.2-.14.56-.21.47-.24.7-.13.85.09.11.1.2.02.2s-.16.26-.18.57c-.02.31-.11.64-.19.72s-.14.48-.14.88-.06.73-.13.73-.14.4-.16.88c-.02.48-.1.9-.18.93s-.14.52-.14,1.1-.06,1.08-.13,1.13c-.38.23-.16,6.04.22,6.04.12,0,.21.13.21.28s.17.37.38.48.38.26.38.33,20.95.13,46.55.13c30.93,0,46.55-.05,46.55-.15,0-.08.12-.15.27-.15s.37-.14.49-.31.31-.31.41-.31.2-.08.2-.19.09-.37.21-.58c.22-.42.27-3.23.06-3.44-.06-.06-.12-.82-.12-1.69s-.07-1.61-.15-1.66c-.08-.05-.15-.5-.15-1s-.07-.91-.15-.91-.15-.34-.15-.75-.07-.79-.15-.85-.15-.4-.15-.76-.07-.71-.15-.76c-.08-.05-.15-.3-.15-.55s-.07-.45-.15-.45-.15-.2-.15-.45-.07-.49-.15-.55-.15-.5-.15-.99-.05-.92-.12-.94-.23-.39-.37-.82c-.35-1.06-.64-1.82-.73-1.91-.07-.07-.15-.33-.21-.71-.02-.1-.11-.28-.21-.4-.1-.12-.14-.26-.08-.32.05-.05.02-.1-.08-.1s-.18-.12-.19-.26c0-.15-.11-.4-.22-.56s-.19-.35-.14-.42c.04-.07.02-.13-.06-.13-.07,0-.23-.28-.34-.61s-.33-.72-.48-.86c-.15-.14-.28-.36-.28-.49s-.15-.39-.33-.59-.34-.47-.36-.62c-.03-.39-.55-1.42-.7-1.42-.07,0-.13-.14-.13-.31s-.05-.31-.12-.31-.21-.21-.32-.46-.26-.42-.34-.37c-.07.05-.14-.05-.14-.22s-.13-.34-.31-.4c-.17-.05-.31-.19-.31-.3s-.21-.43-.46-.72-.46-.57-.46-.63-.14-.25-.31-.42-.31-.41-.31-.54c0-.24-1.17-1.49-1.54-1.64-.12-.05-.14-.09-.04-.1.1,0-.43-.62-1.18-1.37-.75-.75-1.36-1.4-1.36-1.46,0-.16-.73-.85-.9-.85-.08,0-.32-.21-.53-.46-.21-.25-.45-.46-.51-.46s-.23-.14-.35-.31-.28-.31-.35-.31c-.17,0-1.33-1.21-1.33-1.39,0-.08-.12-.14-.25-.14s-.45-.22-.68-.5c-.36-.41-.45-.46-.58-.26-.08.13-.15.15-.16.06,0-.09-.19-.26-.42-.38-.23-.12-.6-.39-.83-.6s-.6-.49-.84-.61-.54-.34-.68-.49c-.14-.15-.32-.27-.42-.27s-.17-.05-.17-.12c0-.14-1.08-.74-1.25-.68-.07.02-.12-.02-.12-.1s-.21-.21-.47-.3c-.25-.09-.66-.3-.9-.47s-.63-.31-.87-.31-.6-.14-.82-.3c-.21-.16-.5-.3-.65-.3s-.26-.06-.26-.13-.29-.22-.65-.33c-.36-.11-.83-.33-1.05-.48-.22-.15-.6-.28-.84-.29-.24,0-.34-.05-.23-.09.11-.04-.51-.31-1.37-.6s-1.71-.59-1.88-.67c-.17-.08-.49-.16-.73-.19-.23-.02-.42-.09-.42-.16s-.08-.1-.19-.06-.35.01-.55-.06-.88-.17-1.52-.22-1.24-.14-1.32-.21-.54-.17-1-.21c-1.85-.19-2.99-.36-3.27-.48-.23-.1-.26-.08-.16.09.11.17.08.18-.09.04-.26-.21-8.73-.25-8.94-.05" style="fill:#54cccb; fill-rule:evenodd;"/><path id="e" d="m75.05,41.38c-.25.29-.04.28.34-.01.21-.16.23-.22.07-.22-.12,0-.31.11-.42.23" style="fill:#54d0a4; fill-rule:evenodd;"/></g></g><g id="f"><circle cx="161.73" cy="134.82" r="27"/><path d="m164.14,131.55l12.64-12.64-4.79-4.79-10.24,10.24-10.24-10.24-4.79,4.79,12.63,12.64c.66.66,1.53.99,2.4.99s1.73-.33,2.4-.99Zm18.29,13.5l-10.24-10.24,10.24-10.24-4.79-4.79-12.63,12.64c-1.32,1.32-1.32,3.47,0,4.79l12.63,12.64,4.79-4.79h0Zm-20.7.23l10.24,10.24,4.79-4.79-12.63-12.64c-1.32-1.32-3.47-1.32-4.79,0l-12.63,12.64,4.79,4.79,10.24-10.24h0Zm-3.26-8.05c.64-.64.99-1.5.99-2.4s-.36-1.76-.99-2.4l-12.63-12.64-4.79,4.79,10.24,10.24-10.24,10.24,4.79,4.79,12.63-12.64h0Z" style="fill:#fff;"/></g></svg>