<svg xmlns="http://www.w3.org/2000/svg" viewBox="0 0 200 200">
  <circle cx="100" cy="100" r="97.33" fill="#fff"/>
  <path fill="#282138" d="M99.98 199C45.3 198.99.99 154.66 1 99.98 1.01 45.31 45.34.99 100.02 1c54.66.01 98.97 44.32 98.98 98.98.01 54.67-44.31 99.01-98.98 99.02h-.04Zm0-190.28a91.23 91.23 0 1 0 .11 0h-.11Z"/>
  <path fill="#f09242" d="M131.86 81.86c-1.09-11.34-10.87-15.15-23.25-16.31V49.93h-9.57v15.33h-7.65V49.93H81.9v15.73H62.49V75.9s7.07-.13 6.96 0a4.94 4.94 0 0 1 5.43 4.2v43.06c-.06.9-.47 1.75-1.16 2.34-.67.6-1.56.9-2.46.83.13.11-6.96 0-6.96 0l-1.81 11.44h19.23v15.99h9.57v-15.75h7.65v15.67h9.59v-15.8c16.16-.98 27.44-4.97 28.85-20.1 1.14-12.18-4.59-17.62-13.73-19.81 5.56-2.74 9.01-7.81 8.23-16.11Zm-13.41 34.04c0 11.89-20.37 10.53-26.86 10.53v-21.09c6.49.02 26.86-1.85 26.86 10.57Zm-4.44-29.72c0 10.87-17 9.55-22.4 9.55V76.56c5.4 0 22.4-1.7 22.4 9.62Z"/>
  <path fill="#5a5564" d="M162.44 42.42a84.78 84.78 0 0 1 0 114.88l-5.43-5.43a76.99 76.99 0 0 0 0-103.88l5.43-5.43v-.13Zm-10.53 114.52 5.56 5.43a84.74 84.74 0 0 1-114.88 0l5.43-5.43a76.97 76.97 0 0 0 103.88 0Zm5.5-119.35-5.43 5.43a76.97 76.97 0 0 0-103.88 0l-5.56-5.43a84.74 84.74 0 0 1 114.88 0ZM43.01 151.92l-5.43 5.62a84.74 84.74 0 0 1 0-114.88l5.43 5.43a76.95 76.95 0 0 0 0 103.82Z"/>
  <circle cx="161.73" cy="134.82" r="27"/>
  <path fill="#fff" d="m164.14 131.55 12.64-12.64-4.79-4.79-10.24 10.24-10.24-10.24-4.79 4.79 12.63 12.64a3.38 3.38 0 0 0 4.8 0Zm18.29 13.5-10.24-10.24 10.24-10.24-4.79-4.79-12.63 12.64a3.4 3.4 0 0 0 0 4.79l12.63 12.64 4.79-4.79Zm-20.7.23 10.24 10.24 4.79-4.79-12.63-12.64a3.4 3.4 0 0 0-4.79 0l-12.63 12.64 4.79 4.79 10.24-10.24Zm-3.26-8.05a3.38 3.38 0 0 0 0-4.8l-12.63-12.64-4.79 4.79 10.24 10.24-10.24 10.24 4.79 4.79 12.63-12.64Z"/>
</svg>
