<?xml version="1.0" encoding="UTF-8"?><svg xmlns="http://www.w3.org/2000/svg" viewBox="0 0 200 200"><g id="a"><circle cx="100" cy="100" r="99" style="fill:#00008b;"/><path d="m94.67,39.89c2.98-1.55,7.5-1.55,10.48,0l30.41,15.98c1.78.93,2.8,2.36,2.98,3.82h.05v80.31c-.05,1.6-1.02,3.15-2.98,4.17l-30.41,15.98c-2.98,1.55-7.5,1.55-10.48,0l-30.41-15.98c-1.95-1.02-2.89-2.62-2.93-4.17V59.64h0c.14-1.46,1.06-2.84,2.93-3.82l30.37-15.94h0Zm39.11,64.59l-28.59,15.05c-2.98,1.55-7.5,1.55-10.48,0l-28.54-15.01v35.3l28.54,14.92c1.6.84,3.28,1.69,4.93,1.82h.31c1.69,0,3.38-.84,5.02-1.69l28.81-15.18v-35.21h0Zm-77.38,33.74c0,3.06.35,5.11,1.06,6.52.58,1.2,1.46,2.08,3.11,3.19l.09.05c.35.22.76.49,1.25.8l.58.35,1.73,1.02-2.49,4.09-1.95-1.16-.31-.18c-.58-.35-1.02-.62-1.46-.93-4.62-3.11-6.35-6.48-6.39-13.5v-.22h4.79v-.05h0Zm41.15-55.27c-.22.09-.44.18-.62.27l-30.41,15.98s-.05.05-.09.05h-.05l.05.05.09.05,30.41,15.98c.18.09.4.18.62.27v-32.63h0Zm4.75,0v32.63c.22-.09.44-.18.62-.27l30.41-15.98s.05-.05.09-.05h.05l-.05-.05-.09-.05-30.41-15.98c-.18-.14-.4-.22-.62-.27h0Zm31.48-17.58l-27.26,14.34,27.26,14.34s0-28.68,0-28.68Zm-67.61,0v28.59l27.21-14.29-27.21-14.29h0Zm36.76-21.26c-1.6-.84-4.44-.84-6.04,0l-30.41,15.98s-.05.05-.09.05h-.05l.05.05.09.05,30.41,15.98c1.6.84,4.44.84,6.04,0l30.41-15.98s.05-.05.09-.05h.05l-.05-.05-.09-.05-30.41-15.98Zm35.34,1.73l1.95,1.16.31.18c.58.35,1.02.62,1.46.93,4.62,3.11,6.35,6.48,6.39,13.5v.22h-4.79c0-3.06-.35-5.11-1.06-6.52-.58-1.2-1.46-2.08-3.11-3.19l-.09-.05c-.35-.22-.76-.49-1.25-.8l-.58-.35-1.73-1.02,2.49-4.04h0Z" style="fill:#fff;"/></g><g id="b"><circle cx="161.73" cy="134.82" r="27"/><path d="m164.14,131.55l12.64-12.64-4.79-4.79-10.24,10.24-10.24-10.24-4.79,4.79,12.63,12.64c.66.66,1.53.99,2.4.99s1.73-.33,2.4-.99Zm18.29,13.5l-10.24-10.24,10.24-10.24-4.79-4.79-12.63,12.64c-1.32,1.32-1.32,3.47,0,4.79l12.63,12.64,4.79-4.79h0Zm-20.7.23l10.24,10.24,4.79-4.79-12.63-12.64c-1.32-1.32-3.47-1.32-4.79,0l-12.63,12.64,4.79,4.79,10.24-10.24h0Zm-3.26-8.05c.64-.64.99-1.5.99-2.4s-.36-1.76-.99-2.4l-12.63-12.64-4.79,4.79,10.24,10.24-10.24,10.24,4.79,4.79,12.63-12.64h0Z" style="fill:#fff;"/></g></svg>