<?xml version="1.0" encoding="UTF-8"?><svg xmlns="http://www.w3.org/2000/svg" viewBox="0 0 200 200"><g id="a"><circle cx="100" cy="100" r="99" style="fill:#20252d;"/><path d="m57.1,75.14c8.8-5.28,26.84-15.84,26.84-15.84,0,0,18.04,10.34,27.06,15.62.22,9.68.22,30.36.22,30.36,0,0-11,7.26-15.84,10.12,3.74,2.2,11,6.6,11,6.6l16.06-9.46v-44.88l-38.28-22-38.06,22.22v44.88l16.06,9.46s7.26-4.4,11-6.6c-4.84-2.86-15.84-10.12-15.84-10.12,0,0-.44-20.68-.22-30.36h0Z" style="fill:#fff;"/><path d="m153.9,87.68l-16.06-9.46s-7.26,4.4-11,6.6c4.84,2.86,15.84,10.12,15.84,10.12v30.36c-8.8,5.28-26.84,15.84-26.84,15.84h0c-6.16-3.52-14.74-8.58-20.24-11.66h0c-2.64-1.54-4.84-2.86-6.82-3.96-.22-9.68-.22-30.36-.22-30.36h0c.66-.44,11-7.26,15.84-10.12-3.74-2.2-11-6.6-11-6.6l-16.06,9.46v44.88l6.82,3.96,31.46,18.04,38.06-22h0l.22-45.1h0Z" style="fill:#fff;"/></g><g id="b"><circle cx="161.73" cy="134.82" r="27" style="fill:#fff; stroke:#000; stroke-miterlimit:10; stroke-width:2px;"/><path d="m164.14,131.55l12.64-12.64-4.79-4.79-10.24,10.24-10.24-10.24-4.79,4.79,12.63,12.64c.66.66,1.53.99,2.4.99s1.73-.33,2.4-.99Zm18.29,13.5l-10.24-10.24,10.24-10.24-4.79-4.79-12.63,12.64c-1.32,1.32-1.32,3.47,0,4.79l12.63,12.64,4.79-4.79h0Zm-20.7.23l10.24,10.24,4.79-4.79-12.63-12.64c-1.32-1.32-3.47-1.32-4.79,0l-12.63,12.64,4.79,4.79,10.24-10.24h0Zm-3.26-8.05c.64-.64.99-1.5.99-2.4s-.36-1.76-.99-2.4l-12.63-12.64-4.79,4.79,10.24,10.24-10.24,10.24,4.79,4.79,12.63-12.64h0Z"/></g></svg>