<svg xmlns="http://www.w3.org/2000/svg" viewBox="0 0 200 200">
  <g fill="#e5017a">
    <ellipse cx="100" cy="21.8" rx="38" ry="20.8"/>
    <ellipse cx="100" cy="178.2" rx="38" ry="20.8"/>
    <ellipse cx="28" cy="60.9" rx="36.3" ry="21.7" transform="rotate(-57 28 60.9)"/>
    <ellipse cx="172.1" cy="139.1" rx="36.3" ry="21.7" transform="rotate(-57 172 139.1)"/>
    <ellipse cx="28" cy="139.1" rx="21.7" ry="36.3" transform="rotate(-33 28 139.1)"/>
    <ellipse cx="172.1" cy="60.9" rx="21.7" ry="36.3" transform="rotate(-33 172 60.9)"/>
  </g>
  <circle cx="161.7" cy="134.8" r="27"/>
  <path fill="#fff" d="m164.1 131.6 12.7-12.7-4.8-4.8-10.3 10.3-10.2-10.3-4.8 4.8 12.6 12.7a3.4 3.4 0 0 0 4.8 0Zm18.3 13.5-10.2-10.3 10.2-10.2-4.8-4.8-12.6 12.6a3.4 3.4 0 0 0 0 4.8l12.6 12.7 4.8-4.8Zm-20.7.2 10.3 10.2 4.8-4.8-12.7-12.6a3.4 3.4 0 0 0-4.8 0l-12.6 12.6 4.8 4.8 10.2-10.2Zm-3.2-8a3.4 3.4 0 0 0 0-4.9l-12.7-12.6-4.8 4.8 10.3 10.2-10.2 10.3 4.7 4.8 12.7-12.7Z"/>
</svg>
