<svg xmlns="http://www.w3.org/2000/svg" viewBox="0 0 200 200">
  <circle cx="100" cy="100" r="99" fill="#20252d"/>
  <path fill="#fff" d="m57.1 75.1 26.8-15.8L111 74.9c.2 9.7.2 30.4.2 30.4s-11 7.2-15.8 10.1l11 6.6 16-9.5V67.7l-38.2-22L46 67.9v44.9l16 9.4 11-6.6c-4.8-2.8-15.8-10.1-15.8-10.1s-.4-20.7-.2-30.4Z"/>
  <path fill="#fff" d="m153.9 87.7-16-9.5-11 6.6c4.8 2.9 15.8 10.1 15.8 10.1v30.4c-8.8 5.3-26.9 15.8-26.9 15.8l-20.2-11.6-6.8-4c-.2-9.7-.2-30.3-.2-30.3.6-.5 11-7.3 15.8-10.2l-11-6.6-16 9.5v44.9l6.8 4 31.4 18 38-22 .3-45.1Z"/>
  <circle cx="161.7" cy="134.8" r="27" fill="#fff" stroke="#000" stroke-miterlimit="10" stroke-width="2"/>
  <path d="m164.1 131.6 12.7-12.7-4.8-4.8-10.3 10.3-10.2-10.3-4.8 4.8 12.6 12.7a3.4 3.4 0 0 0 4.8 0Zm18.3 13.5-10.2-10.3 10.2-10.2-4.8-4.8-12.6 12.6a3.4 3.4 0 0 0 0 4.8l12.6 12.7 4.8-4.8Zm-20.7.2 10.3 10.2 4.8-4.8-12.7-12.6a3.4 3.4 0 0 0-4.8 0l-12.6 12.6 4.8 4.8 10.2-10.2Zm-3.2-8a3.4 3.4 0 0 0 0-4.9l-12.7-12.6-4.8 4.8 10.3 10.2-10.2 10.3 4.7 4.8 12.7-12.7Z"/>
</svg>
