<?xml version="1.0" encoding="UTF-8"?><svg xmlns="http://www.w3.org/2000/svg" xmlns:xlink="http://www.w3.org/1999/xlink" viewBox="0 0 200 200"><defs><mask id="b" x="116.51" y="146.11" width="36.05" height="31.8" maskUnits="userSpaceOnUse"><g id="c"><path d="m152.56,146.21h-36.05v31.59h36.05v-31.59Z" style="fill:#fff;"/></g></mask></defs><g id="a"><circle cx="100" cy="100" r="99" style="fill:#2775ca;"/><path d="m81.44,168.84c0,2.32-1.86,3.64-4.02,2.94-30.01-9.59-51.67-37.59-51.67-70.77s21.66-61.18,51.67-70.77c2.24-.7,4.02.62,4.02,2.94v5.8c0,1.55-1.16,3.33-2.63,3.87-23.74,8.74-40.68,31.56-40.68,58.16s16.94,49.42,40.68,58.09c1.47.54,2.63,2.32,2.63,3.87v5.88Z" style="fill:#fff;"/><path d="m106.19,147.41c0,1.7-1.39,3.09-3.09,3.09h-6.19c-1.7,0-3.09-1.39-3.09-3.09v-9.75c-13.54-1.86-20.11-9.36-21.89-19.72-.31-1.78,1.08-3.33,2.86-3.33h7.04c1.47,0,2.71,1.08,3.02,2.47,1.31,6.11,4.87,10.83,15.7,10.83,7.97,0,13.69-4.49,13.69-11.14s-3.33-9.2-15.08-11.14c-17.33-2.32-25.52-7.58-25.52-21.11,0-10.44,7.97-18.64,20.19-20.34v-9.59c0-1.7,1.39-3.09,3.09-3.09h6.19c1.7,0,3.09,1.39,3.09,3.09v9.82c9.98,1.78,16.32,7.42,18.41,16.86.39,1.78-1.01,3.4-2.86,3.4h-6.5c-1.39,0-2.55-.93-2.94-2.24-1.78-5.96-6.03-8.59-13.46-8.59-8.2,0-12.45,3.94-12.45,9.51,0,5.88,2.4,8.82,15,10.6,17.02,2.32,25.83,7.19,25.83,21.66,0,10.98-8.2,19.88-20.96,21.89v9.9h-.08Z" style="fill:#fff;"/><path d="m122.58,171.78c-2.24.7-4.02-.62-4.02-2.94v-5.8c0-1.7,1.01-3.33,2.63-3.87,23.67-8.66,40.68-31.48,40.68-58.09s-16.94-49.42-40.68-58.09c-1.47-.54-2.63-2.32-2.63-3.87v-5.8c0-2.32,1.86-3.64,4.02-2.94,30.01,9.44,51.67,37.51,51.67,70.61s-21.66,61.18-51.67,70.77Z" style="fill:#fff;"/><path d="m134.72,134.32c15.19,0,27.51,12.31,27.51,27.51s-12.32,27.49-27.5,27.49-27.5-12.31-27.5-27.49c-.01-15.19,12.31-27.51,27.49-27.51Z" style="fill:#8247e5;"/><g style="mask:url(#b);"><path d="m143.74,155.83c-.66-.38-1.5-.38-2.25,0l-5.26,3.12-3.57,1.98-5.16,3.11c-.66.38-1.5.38-2.25,0l-4.04-2.46c-.66-.38-1.13-1.14-1.13-1.98v-4.72c0-.76.38-1.5,1.13-1.98l4.04-2.36c.66-.38,1.5-.38,2.25,0l4.04,2.46c.66.38,1.13,1.14,1.13,1.98v3.12l3.57-2.08v-3.2c0-.76-.38-1.5-1.13-1.98l-7.51-4.44c-.66-.38-1.5-.38-2.25,0l-7.69,4.53c-.75.38-1.13,1.14-1.13,1.88v8.86c0,.76.38,1.5,1.13,1.98l7.61,4.44c.66.38,1.5.38,2.25,0l5.16-3.02,3.57-2.08,5.16-3.02c.66-.38,1.5-.38,2.25,0l4.04,2.36c.66.38,1.13,1.14,1.13,1.98v4.72c0,.76-.38,1.5-1.13,1.98l-3.94,2.36c-.66.38-1.5.38-2.25,0l-4.05-2.36c-.66-.38-1.13-1.14-1.13-1.98v-3.02l-3.57,2.08v3.12c0,.76.38,1.5,1.13,1.98l7.61,4.44c.66.38,1.5.38,2.25,0l7.61-4.44c.66-.38,1.13-1.14,1.13-1.98v-8.96c0-.76-.38-1.5-1.13-1.98l-7.61-4.44Z" style="fill:#fff;"/></g></g><g id="d"><circle cx="161.73" cy="134.82" r="27"/><path d="m164.14,131.55l12.64-12.64-4.79-4.79-10.24,10.24-10.24-10.24-4.79,4.79,12.63,12.64c.66.66,1.53.99,2.4.99s1.73-.33,2.4-.99Zm18.29,13.5l-10.24-10.24,10.24-10.24-4.79-4.79-12.63,12.64c-1.32,1.32-1.32,3.47,0,4.79l12.63,12.64,4.79-4.79h0Zm-20.7.23l10.24,10.24,4.79-4.79-12.63-12.64c-1.32-1.32-3.47-1.32-4.79,0l-12.63,12.64,4.79,4.79,10.24-10.24h0Zm-3.26-8.05c.64-.64.99-1.5.99-2.4s-.36-1.76-.99-2.4l-12.63-12.64-4.79,4.79,10.24,10.24-10.24,10.24,4.79,4.79,12.63-12.64h0Z" style="fill:#fff;"/></g></svg>