<svg xmlns="http://www.w3.org/2000/svg" viewBox="0 0 200 200">
  <defs>
    <mask id="a" width="36" height="31.8" x="116.5" y="146.1" maskUnits="userSpaceOnUse">
      <path fill="#fff" d="M152.6 146.2h-36v31.6h36v-31.6Z"/>
    </mask>
  </defs>
  <circle cx="100" cy="100" r="99" fill="#2775ca"/>
  <path fill="#fff" d="M81.4 168.8c0 2.4-1.8 3.7-4 3a74.2 74.2 0 0 1 0-141.6c2.3-.7 4 .7 4 3V39c0 1.5-1.1 3.3-2.6 3.9a62 62 0 0 0 0 116.3c1.5.4 2.6 2.2 2.6 3.8v5.8Z"/>
  <path fill="#fff" d="M106.2 147.4c0 1.7-1.4 3.1-3.1 3.1h-6.2a3 3 0 0 1-3-3v-9.8c-13.6-1.9-20.2-9.4-22-19.8-.3-1.7 1.1-3.3 2.9-3.3h7a3 3 0 0 1 3 2.5c1.4 6 5 10.8 15.7 10.8 8 0 13.7-4.5 13.7-11.1s-3.3-9.2-15-11.2c-17.4-2.3-25.6-7.5-25.6-21 0-10.5 8-18.7 20.2-20.4v-9.6c0-1.7 1.4-3.1 3.1-3.1h6.2c1.7 0 3.1 1.4 3.1 3v10c10 1.7 16.3 7.3 18.4 16.8.4 1.7-1 3.4-2.8 3.4h-6.5a3 3 0 0 1-3-2.3c-1.8-6-6-8.6-13.4-8.6-8.3 0-12.5 4-12.5 9.6 0 5.8 2.4 8.8 15 10.6 17 2.3 25.8 7.1 25.8 21.6 0 11-8.2 19.9-21 21.9v9.9Z"/>
  <path fill="#fff" d="M122.6 171.8c-2.3.7-4-.6-4-3V163a4 4 0 0 1 2.6-3.8 62 62 0 0 0 0-116.2 4.4 4.4 0 0 1-2.6-3.9v-5.8c0-2.3 1.8-3.6 4-3a74.3 74.3 0 0 1 0 141.4Z"/>
  <path fill="#8247e5" d="M134.7 134.3a27.5 27.5 0 1 1 0 55 27.5 27.5 0 0 1 0-55Z"/>
  <g mask="url(#a)">
    <path fill="#fff" d="M143.7 155.8c-.6-.3-1.5-.3-2.2 0l-5.3 3.2-3.5 2-5.2 3c-.7.4-1.5.4-2.2 0l-4-2.4a2.3 2.3 0 0 1-1.2-2v-4.7c0-.8.4-1.5 1.1-2l4-2.4a3 3 0 0 1 2.3 0l4 2.5c.7.4 1.2 1.1 1.2 2v3.1l3.5-2v-3.3c0-.7-.3-1.5-1-2l-7.6-4.4c-.7-.4-1.5-.4-2.2 0l-7.7 4.5a2 2 0 0 0-1.2 2v8.8c0 .7.4 1.5 1.2 2l7.6 4.4c.6.4 1.5.4 2.2 0l5.2-3 3.6-2.1 5.1-3c.7-.4 1.5-.4 2.3 0l4 2.3c.7.4 1.1 1.2 1.1 2v4.7c0 .8-.4 1.5-1.1 2l-4 2.4c-.6.3-1.4.3-2.2 0l-4-2.4a2.3 2.3 0 0 1-1.2-2v-3l-3.5 2v3.2c0 .8.3 1.5 1 2l7.7 4.4c.7.4 1.5.4 2.3 0l7.6-4.4c.6-.4 1-1.2 1-2v-9c0-.7-.3-1.5-1-2l-7.6-4.4Z"/>
  </g>
  <circle cx="161.7" cy="134.8" r="27"/>
  <path fill="#fff" d="m164.1 131.6 12.7-12.7-4.8-4.8-10.3 10.3-10.2-10.3-4.8 4.8 12.6 12.7a3.4 3.4 0 0 0 4.8 0Zm18.3 13.5-10.2-10.3 10.2-10.2-4.8-4.8-12.6 12.6a3.4 3.4 0 0 0 0 4.8l12.6 12.7 4.8-4.8Zm-20.7.2 10.3 10.2 4.8-4.8-12.7-12.6a3.4 3.4 0 0 0-4.8 0l-12.6 12.6 4.8 4.8 10.2-10.2Zm-3.2-8a3.4 3.4 0 0 0 0-4.9l-12.7-12.6-4.8 4.8 10.3 10.2-10.2 10.3 4.7 4.8 12.7-12.7Z"/>
</svg>
